  0
SECTION
  2
HEADER
  9
$ACADVER
  1
AC1014
  9
$HANDSEED
  5
FFFF
  9
$INSUNITS
 70
     4
  9
$MEASUREMENT
 70
     1
  0
ENDSEC
  0
SECTION
  2
TABLES
  0
TABLE
  2
VPORT
  5
8
330
0
100
AcDbSymbolTable
 70
     4
  0
VPORT
  5
2E
330
8
100
AcDbSymbolTableRecord
100
AcDbViewportTableRecord
  2
*ACTIVE
 70
     0
 10
0.0
 20
0.0
 11
1.0
 21
1.0
 12
210.0
 22
148.5
 13
0.0
 23
0.0
 14
10.0
 24
10.0
 15
10.0
 25
10.0
 16
0.0
 26
0.0
 36
1.0
 17
0.0
 27
0.0
 37
0.0
 40
341.0
 41
1.24
 42
50.0
 43
0.0
 44
0.0
 50
0.0
 51
0.0
 71
     0
 72
   100
 73
     1
 74
     3
 75
     0
 76
     0
 77
     0
 78
     0
  0
ENDTAB
  0
TABLE
  2
LTYPE
  5
5
330
0
100
AcDbSymbolTable
 70
     1
  0
LTYPE
  5
14
330
5
100
AcDbSymbolTableRecord
100
AcDbLinetypeTableRecord
  2
BYBLOCK
 70
     0
  3

 72
    65
 73
     0
 40
0.0
  0
LTYPE
  5
15
330
5
100
AcDbSymbolTableRecord
100
AcDbLinetypeTableRecord
  2
BYLAYER
 70
     0
  3

 72
    65
 73
     0
 40
0.0
  0
LTYPE
  5
16
330
5
100
AcDbSymbolTableRecord
100
AcDbLinetypeTableRecord
  2
CONTINUOUS
 70
     0
  3
Solid line
 72
    65
 73
     0
 40
0.0
  0
ENDTAB
  0
TABLE
  2
LAYER
  5
2
100
AcDbSymbolTable
 70
3
  0
LAYER
  5
50
100
AcDbSymbolTableRecord
100
AcDbLayerTableRecord
  2
0
 70
0
  6
CONTINUOUS
  0
LAYER
  5
51
100
AcDbSymbolTableRecord
100
AcDbLayerTableRecord
  2
DashLayer
 70
0
  6
CONTINUOUS
  0
LAYER
  5
52
100
AcDbSymbolTableRecord
100
AcDbLayerTableRecord
  2
SolidLayer
 70
0
  6
CONTINUOUS
  0
ENDTAB
  0
TABLE
  2
STYLE
  5
3
330
0
100
AcDbSymbolTable
 70
     1
  0
STYLE
  5
11
330
3
100
AcDbSymbolTableRecord
100
AcDbTextStyleTableRecord
  2
STANDARD
 70
     0
 40
0.0
 41
1.0
 50
0.0
 71
     0
 42
2.5
  3
txt
  4

  0
ENDTAB
  0
TABLE
  2
VIEW
  5
6
330
0
100
AcDbSymbolTable
 70
     0
  0
ENDTAB
  0
TABLE
  2
UCS
  5
7
330
0
100
AcDbSymbolTable
 70
     0
  0
ENDTAB
  0
TABLE
  2
APPID
  5
9
330
0
100
AcDbSymbolTable
 70
     2
  0
APPID
  5
12
330
9
100
AcDbSymbolTableRecord
100
AcDbRegAppTableRecord
  2
ACAD
 70
     0
  0
ENDTAB
  0
TABLE
  2
DIMSTYLE
  5
A
330
0
100
AcDbSymbolTable
 70
     1
  0
DIMSTYLE
105
27
330
A
100
AcDbSymbolTableRecord
100
AcDbDimStyleTableRecord
  2
ISO-25
 70
     0
  3

  4

  5

  6

  7

 40
1.0
 41
2.5
 42
0.625
 43
3.75
 44
1.25
 45
0.0
 46
0.0
 47
0.0
 48
0.0
140
2.5
141
2.5
142
0.0
143
0.03937007874016
144
1.0
145
0.0
146
1.0
147
0.625
 71
     0
 72
     0
 73
     0
 74
     0
 75
     0
 76
     0
 77
     1
 78
     8
170
     0
171
     3
172
     1
173
     0
174
     0
175
     0
176
     0
177
     0
178
     0
270
     2
271
     2
272
     2
273
     2
274
     3
340
11
275
     0
280
     0
281
     0
282
     0
283
     0
284
     8
285
     0
286
     0
287
     3
288
     0
  0
ENDTAB
  0
TABLE
  2
BLOCK_RECORD
  5
1
330
0
100
AcDbSymbolTable
 70
     1
  0
BLOCK_RECORD
  5
1F
330
1
100
AcDbSymbolTableRecord
100
AcDbBlockTableRecord
  2
*MODEL_SPACE
  0
BLOCK_RECORD
  5
1B
330
1
100
AcDbSymbolTableRecord
100
AcDbBlockTableRecord
  2
*PAPER_SPACE
  0
ENDTAB
  0
ENDSEC
  0
SECTION
  2
BLOCKS
  0
BLOCK
  5
20
330
1F
100
AcDbEntity
  8
0
100
AcDbBlockBegin
  2
*MODEL_SPACE
 70
     0
 10
0.0
 20
0.0
 30
0.0
  3
*MODEL_SPACE
  1

  0
ENDBLK
  5
21
330
1F
100
AcDbEntity
  8
0
100
AcDbBlockEnd
  0
BLOCK
  5
1C
330
1B
100
AcDbEntity
 67
     1
  8
0
100
AcDbBlockBegin
  2
*PAPER_SPACE
  1

  0
ENDBLK
  5
1D
330
1B
100
AcDbEntity
 67
     1
  8
0
100
AcDbBlockEnd
  0
ENDSEC
  0
SECTION
  2
ENTITIES
  0
LINE
  5
100
100
AcDbEntity
  8
SolidLayer
 62
1
100
AcDbLine
 10
185.699739
 20
335.000182
 30
0.0
 11
185.699739
 21
564.999831
 31
0.0
  0
LINE
  5
101
100
AcDbEntity
  8
SolidLayer
 62
1
100
AcDbLine
 10
414.299750
 20
335.000182
 30
0.0
 11
414.299750
 21
564.999831
 31
0.0
  0
LINE
  5
102
100
AcDbEntity
  8
SolidLayer
 62
1
100
AcDbLine
 10
187.899739
 20
761.400043
 30
0.0
 11
187.899739
 21
564.298685
 31
0.0
  0
LINE
  5
103
100
AcDbEntity
  8
SolidLayer
 62
1
100
AcDbLine
 10
187.899739
 20
335.698682
 30
0.0
 11
187.899739
 21
138.599970
 31
0.0
  0
LINE
  5
104
100
AcDbEntity
  8
SolidLayer
 62
1
100
AcDbLine
 10
187.899739
 20
564.298685
 30
0.0
 11
412.099740
 21
564.298685
 31
0.0
  0
LINE
  5
105
100
AcDbEntity
  8
SolidLayer
 62
1
100
AcDbLine
 10
187.899739
 20
335.698682
 30
0.0
 11
412.099740
 21
335.698682
 31
0.0
  0
LINE
  5
106
100
AcDbEntity
  8
SolidLayer
 62
1
100
AcDbLine
 10
412.099740
 20
761.400043
 30
0.0
 11
412.099740
 21
564.298685
 31
0.0
  0
LINE
  5
107
100
AcDbEntity
  8
SolidLayer
 62
1
100
AcDbLine
 10
412.099740
 20
335.698682
 30
0.0
 11
412.099740
 21
138.599970
 31
0.0
  0
LINE
  5
108
100
AcDbEntity
  8
SolidLayer
 62
5
100
AcDbLine
 10
8.100000
 20
562.099998
 30
0.0
 11
8.100000
 21
337.900015
 31
0.0
  0
LINE
  5
109
100
AcDbEntity
  8
SolidLayer
 62
5
100
AcDbLine
 10
592.100706
 20
562.099998
 30
0.0
 11
592.100706
 21
337.900015
 31
0.0
  0
LINE
  5
10a
100
AcDbEntity
  8
SolidLayer
 62
5
100
AcDbLine
 10
8.100000
 20
562.099998
 30
0.0
 11
13.300121
 21
564.999831
 31
0.0
  0
LINE
  5
10b
100
AcDbEntity
  8
SolidLayer
 62
5
100
AcDbLine
 10
8.100000
 20
337.900015
 30
0.0
 11
13.300121
 21
335.000182
 31
0.0
  0
LINE
  5
10c
100
AcDbEntity
  8
SolidLayer
 62
5
100
AcDbLine
 10
13.298002
 20
564.999831
 30
0.0
 11
185.699739
 21
564.999831
 31
0.0
  0
LINE
  5
10d
100
AcDbEntity
  8
SolidLayer
 62
5
100
AcDbLine
 10
414.299750
 20
564.999831
 30
0.0
 11
586.810891
 21
564.999831
 31
0.0
  0
LINE
  5
10e
100
AcDbEntity
  8
SolidLayer
 62
5
100
AcDbLine
 10
13.322725
 20
335.000182
 30
0.0
 11
185.699739
 21
335.000182
 31
0.0
  0
LINE
  5
10f
100
AcDbEntity
  8
SolidLayer
 62
5
100
AcDbLine
 10
414.299750
 20
335.000182
 30
0.0
 11
586.862802
 21
335.000182
 31
0.0
  0
LINE
  5
110
100
AcDbEntity
  8
SolidLayer
 62
5
100
AcDbLine
 10
73.599748
 20
761.400043
 30
0.0
 11
187.899739
 21
761.400043
 31
0.0
  0
LINE
  5
111
100
AcDbEntity
  8
SolidLayer
 62
5
100
AcDbLine
 10
412.099740
 20
761.400043
 30
0.0
 11
526.401065
 21
761.400043
 31
0.0
  0
LINE
  5
112
100
AcDbEntity
  8
SolidLayer
 62
5
100
AcDbLine
 10
73.599748
 20
761.400043
 30
0.0
 11
73.599748
 21
564.999831
 31
0.0
  0
LINE
  5
113
100
AcDbEntity
  8
SolidLayer
 62
5
100
AcDbLine
 10
73.599748
 20
335.000182
 30
0.0
 11
73.599748
 21
138.599970
 31
0.0
  0
LINE
  5
114
100
AcDbEntity
  8
SolidLayer
 62
5
100
AcDbLine
 10
73.599748
 20
138.599970
 30
0.0
 11
187.899739
 21
138.599970
 31
0.0
  0
LINE
  5
115
100
AcDbEntity
  8
SolidLayer
 62
5
100
AcDbLine
 10
185.699739
 20
564.999831
 30
0.0
 11
187.899739
 21
564.298685
 31
0.0
  0
LINE
  5
116
100
AcDbEntity
  8
SolidLayer
 62
5
100
AcDbLine
 10
185.699739
 20
335.000182
 30
0.0
 11
187.899739
 21
335.698682
 31
0.0
  0
LINE
  5
117
100
AcDbEntity
  8
SolidLayer
 62
5
100
AcDbLine
 10
187.899739
 20
761.400043
 30
0.0
 11
189.399752
 21
764.299876
 31
0.0
  0
LINE
  5
118
100
AcDbEntity
  8
SolidLayer
 62
5
100
AcDbLine
 10
187.899739
 20
138.599970
 30
0.0
 11
189.399752
 21
135.700137
 31
0.0
  0
LINE
  5
119
100
AcDbEntity
  8
SolidLayer
 62
5
100
AcDbLine
 10
189.399752
 20
764.299876
 30
0.0
 11
244.899732
 21
764.299876
 31
0.0
  0
LINE
  5
11a
100
AcDbEntity
  8
SolidLayer
 62
5
100
AcDbLine
 10
189.399752
 20
135.700137
 30
0.0
 11
244.899732
 21
135.700137
 31
0.0
  0
LINE
  5
11b
100
AcDbEntity
  8
SolidLayer
 62
5
100
AcDbLine
 10
244.899732
 20
764.299876
 30
0.0
 11
355.099758
 21
764.299876
 31
0.0
  0
LINE
  5
11c
100
AcDbEntity
  8
SolidLayer
 62
5
100
AcDbLine
 10
244.899732
 20
135.700137
 30
0.0
 11
355.099758
 21
135.700137
 31
0.0
  0
LINE
  5
11d
100
AcDbEntity
  8
SolidLayer
 62
5
100
AcDbLine
 10
355.099758
 20
764.299876
 30
0.0
 11
410.599817
 21
764.299876
 31
0.0
  0
LINE
  5
11e
100
AcDbEntity
  8
SolidLayer
 62
5
100
AcDbLine
 10
355.099758
 20
135.700137
 30
0.0
 11
410.599817
 21
135.700137
 31
0.0
  0
LINE
  5
11f
100
AcDbEntity
  8
SolidLayer
 62
5
100
AcDbLine
 10
410.599817
 20
764.299876
 30
0.0
 11
412.099740
 21
761.400043
 31
0.0
  0
LINE
  5
120
100
AcDbEntity
  8
SolidLayer
 62
5
100
AcDbLine
 10
410.599817
 20
135.700137
 30
0.0
 11
412.099740
 21
138.599970
 31
0.0
  0
LINE
  5
121
100
AcDbEntity
  8
SolidLayer
 62
5
100
AcDbLine
 10
412.099740
 20
564.298685
 30
0.0
 11
414.299750
 21
564.999831
 31
0.0
  0
LINE
  5
122
100
AcDbEntity
  8
SolidLayer
 62
5
100
AcDbLine
 10
412.099740
 20
335.698682
 30
0.0
 11
414.299750
 21
335.000182
 31
0.0
  0
LINE
  5
123
100
AcDbEntity
  8
SolidLayer
 62
5
100
AcDbLine
 10
412.099740
 20
138.599970
 30
0.0
 11
526.401065
 21
138.599970
 31
0.0
  0
LINE
  5
124
100
AcDbEntity
  8
SolidLayer
 62
5
100
AcDbLine
 10
526.401065
 20
761.400043
 30
0.0
 11
526.401065
 21
564.999831
 31
0.0
  0
LINE
  5
125
100
AcDbEntity
  8
SolidLayer
 62
5
100
AcDbLine
 10
526.401065
 20
335.000182
 30
0.0
 11
526.401065
 21
138.599970
 31
0.0
  0
LINE
  5
126
100
AcDbEntity
  8
SolidLayer
 62
5
100
AcDbLine
 10
586.898997
 20
564.999831
 30
0.0
 11
592.100706
 21
562.099998
 31
0.0
  0
LINE
  5
127
100
AcDbEntity
  8
SolidLayer
 62
5
100
AcDbLine
 10
586.898997
 20
335.000182
 30
0.0
 11
592.100706
 21
337.900015
 31
0.0
  0
ENDSEC
  0
SECTION
  2
OBJECTS
  0
DICTIONARY
  5
C
330
0
100
AcDbDictionary
  3
ACAD_GROUP
350
D
  3
ACAD_MLINESTYLE
350
17
  0
DICTIONARY
  5
D
330
C
100
AcDbDictionary
  0
DICTIONARY
  5
1A
330
C
100
AcDbDictionary
  0
DICTIONARY
  5
17
330
C
100
AcDbDictionary
  3
STANDARD
350
18
  0
DICTIONARY
  5
19
330
C
100
AcDbDictionary
  0
ENDSEC
  0
EOF
