999
dxfrw 0.6.3
  0
SECTION
  2
HEADER
  9
$ACADVER
  1
AC1021
  9
$DWGCODEPAGE
  3
ANSI_1252
  9
$INSBASE
 10
0
 20
0
 30
0
  9
$EXTMIN
 10
0.00049
 20
9.14523
 30
0
  9
$EXTMAX
 10
406.400519
 20
453.64523
 30
0
  9
$LIMMIN
 10
0
 20
0
  9
$LIMMAX
 10
420
 20
297
  9
$ORTHOMODE
 70
    0
  9
$REGENMODE
 70
    1
  9
$FILLMODE
 70
    1
  9
$QTEXTMODE
 70
    0
  9
$MIRRTEXT
 70
    0
  9
$LTSCALE
 40
1
  9
$ATTMODE
 70
    0
  9
$TEXTSIZE
 40
2.5
  9
$TRACEWID
 40
15.68
  9
$TEXTSTYLE
  7
STANDARD
  9
$CLAYER
  8
0
  9
$CELTYPE
  6
BYLAYER
  9
$CECOLOR
 62
  256
  9
$CELTSCALE
 40
1
  9
$DISPSILH
 70
    0
  9
$DIMSCALE
 40
2.5
  9
$DIMASZ
 40
2.5
  9
$DIMEXO
 40
0.625
  9
$DIMDLI
 40
3.75
  9
$DIMRND
 40
0
  9
$DIMDLE
 40
0
  9
$DIMEXE
 40
1.25
  9
$DIMTP
 40
0
  9
$DIMTM
 40
0
  9
$DIMTXT
 40
2.5
  9
$DIMCEN
 40
2.5
  9
$DIMTSZ
 40
0
  9
$DIMTOL
 70
    0
  9
$DIMLIM
 70
    0
  9
$DIMTIH
 70
    0
  9
$DIMTOH
 70
    0
  9
$DIMSE1
 70
    0
  9
$DIMSE2
 70
    0
  9
$DIMTAD
 70
    1
  9
$DIMZIN
 70
    8
  9
$DIMBLK
  1

  9
$DIMASO
 70
    1
  9
$DIMSHO
 70
    1
  9
$DIMPOST
  1

  9
$DIMAPOST
  1

  9
$DIMALT
 70
    0
  9
$DIMALTD
 70
    3
  9
$DIMALTF
 40
0.03937
  9
$DIMLFAC
 40
1
  9
$DIMTOFL
 70
    1
  9
$DIMTVP
 40
0
  9
$DIMTIX
 70
    0
  9
$DIMSOXD
 70
    0
  9
$DIMSAH
 70
    0
  9
$DIMBLK1
  1

  9
$DIMBLK2
  1

  9
$DIMSTYLE
  2
Standard
  9
$DIMCLRD
 70
    0
  9
$DIMCLRE
 70
    0
  9
$DIMCLRT
 70
    0
  9
$DIMTFAC
 40
1
  9
$DIMGAP
 40
0.625
  9
$DIMJUST
 70
    0
  9
$DIMSD1
 70
    0
  9
$DIMSD2
 70
    0
  9
$DIMTOLJ
 70
    0
  9
$DIMTZIN
 70
    8
  9
$DIMALTZ
 70
    0
  9
$DIMALTTZ
 70
    0
  9
$DIMUPT
 70
    0
  9
$DIMDEC
 70
    2
  9
$DIMTDEC
 70
    2
  9
$DIMALTU
 70
    2
  9
$DIMALTTD
 70
    3
  9
$DIMTXSTY
  7
STANDARD
  9
$DIMAUNIT
 70
    0
  9
$DIMADEC
 70
    0
  9
$DIMALTRND
 40
0
  9
$DIMAZIN
 70
    0
  9
$DIMDSEP
 70
   44
  9
$DIMATFIT
 70
    3
  9
$DIMFRAC
 70
    0
  9
$DIMLDRBLK
  1
STANDARD
  9
$DIMLUNIT
 70
    2
  9
$DIMLWD
 70
   -2
  9
$DIMLWE
 70
   -2
  9
$DIMTMOVE
 70
    0
  9
$DIMFXL
 40
1
  9
$DIMFXLON
 70
    0
  9
$DIMJOGANG
 40
0.7854
  9
$DIMTFILL
 70
    0
  9
$DIMTFILLCLR
 70
    0
  9
$DIMARCSYM
 70
    0
  9
$DIMLTYPE
  6

  9
$DIMLTEX1
  6

  9
$DIMLTEX2
  6

  9
$LUNITS
 70
    2
  9
$LUPREC
 70
    4
  9
$SKETCHINC
 40
1
  9
$FILLETRAD
 40
0
  9
$AUNITS
 70
    0
  9
$AUPREC
 70
    2
  9
$MENU
  1
.
  9
$ELEVATION
 40
0
  9
$PELEVATION
 40
0
  9
$THICKNESS
 40
0
  9
$LIMCHECK
 70
    0
  9
$CHAMFERA
 40
0
  9
$CHAMFERB
 40
0
  9
$CHAMFERC
 40
0
  9
$CHAMFERD
 40
0
  9
$SKPOLY
 70
    0
  9
$USRTIMER
 70
    1
  9
$ANGBASE
 50
0
  9
$ANGDIR
 70
    0
  9
$PDMODE
 70
   34
  9
$PDSIZE
 40
0
  9
$PLINEWID
 40
0
  9
$SPLFRAME
 70
    0
  9
$SPLINETYPE
 70
    2
  9
$SPLINESEGS
 70
    8
  9
$HANDSEED
  5
20000
  9
$SURFTAB1
 70
    6
  9
$SURFTAB2
 70
    6
  9
$SURFTYPE
 70
    6
  9
$SURFU
 70
    6
  9
$SURFV
 70
    6
  9
$UCSBASE
  2

  9
$UCSNAME
  2

  9
$UCSORG
 10
0
 20
0
 30
0
  9
$UCSXDIR
 10
1
 20
0
 30
0
  9
$UCSYDIR
 10
0
 20
1
 30
0
  9
$UCSORTHOREF
  2

  9
$UCSORTHOVIEW
 70
    0
  9
$UCSORGTOP
 10
0
 20
0
 30
0
  9
$UCSORGBOTTOM
 10
0
 20
0
 30
0
  9
$UCSORGLEFT
 10
0
 20
0
 30
0
  9
$UCSORGRIGHT
 10
0
 20
0
 30
0
  9
$UCSORGFRONT
 10
0
 20
0
 30
0
  9
$UCSORGBACK
 10
0
 20
0
 30
0
  9
$PUCSBASE
  2

  9
$PUCSNAME
  2

  9
$PUCSORG
 10
0
 20
0
 30
0
  9
$PUCSXDIR
 10
1
 20
0
 30
0
  9
$PUCSYDIR
 10
0
 20
1
 30
0
  9
$PUCSORTHOREF
  2

  9
$PUCSORTHOVIEW
 70
    0
  9
$PUCSORGTOP
 10
0
 20
0
 30
0
  9
$PUCSORGBOTTOM
 10
0
 20
0
 30
0
  9
$PUCSORGLEFT
 10
0
 20
0
 30
0
  9
$PUCSORGRIGHT
 10
0
 20
0
 30
0
  9
$PUCSORGFRONT
 10
0
 20
0
 30
0
  9
$PUCSORGBACK
 10
0
 20
0
 30
0
  9
$USERI1
 70
    0
  9
$USERI2
 70
    0
  9
$USERI3
 70
    0
  9
$USERI4
 70
    0
  9
$USERI5
 70
    0
  9
$USERR1
 40
0
  9
$USERR2
 40
0
  9
$USERR3
 40
0
  9
$USERR4
 40
0
  9
$USERR5
 40
0
  9
$WORLDVIEW
 70
    1
  9
$SHADEDGE
 70
    3
  9
$SHADEDIF
 70
   70
  9
$TILEMODE
 70
    1
  9
$MAXACTVP
 70
   64
  9
$PINSBASE
 10
0
 20
0
 30
0
  9
$PLIMCHECK
 70
    0
  9
$PEXTMIN
 10
0
 20
0
 30
0
  9
$PEXTMAX
 10
0
 20
0
 30
0
  9
$GRIDMODE
 70
    0
  9
$SNAPSTYLE
 70
    0
  9
$PLIMMIN
 10
0
 20
0
  9
$PLIMMAX
 10
210
 20
297
  9
$UNITMODE
 70
    0
  9
$VISRETAIN
 70
    1
  9
$PLINEGEN
 70
    0
  9
$PSLTSCALE
 70
    1
  9
$TREEDEPTH
 70
 3020
  9
$CMLSTYLE
  2
Standard
  9
$CMLJUST
 70
    0
  9
$CMLSCALE
 40
20
  9
$PROXYGRAPHICS
 70
    1
  9
$MEASUREMENT
 70
    1
  9
$CELWEIGHT
370
   -1
  9
$ENDCAPS
280
    0
  9
$JOINSTYLE
280
    0
  9
$LWDISPLAY
290
    0
  9
$INSUNITS
 70
    4
  9
$HYPERLINKBASE
  1

  9
$STYLESHEET
  1

  9
$XEDIT
290
    1
  9
$CEPSNTYPE
380
    0
  9
$PSTYLEMODE
290
    1
  9
$EXTNAMES
290
    1
  9
$PSVPSCALE
 40
1
  9
$OLESTARTUP
290
    0
  9
$SORTENTS
280
  127
  9
$INDEXCTL
280
    0
  9
$HIDETEXT
280
    1
  9
$XCLIPFRAME
290
    0
  9
$HALOGAP
280
    0
  9
$OBSCOLOR
 70
  257
  9
$OBSLTYPE
280
    0
  9
$INTERSECTIONDISPLAY
280
    0
  9
$INTERSECTIONCOLOR
 70
  257
  9
$DIMASSOC
280
    1
  9
$PROJECTNAME
  1

  9
$CAMERADISPLAY
290
    0
  9
$LENSLENGTH
 40
50
  9
$CAMERAHEIGHT
 40
0
  9
$STEPSPERSEC
 40
2
  9
$STEPSIZE
 40
50
  9
$3DDWFPREC
 40
2
  9
$PSOLWIDTH
 40
5
  9
$PSOLHEIGHT
 40
80
  9
$LOFTANG1
 40
1.570796326794897
  9
$LOFTANG2
 40
1.570796326794897
  9
$LOFTMAG1
 40
0
  9
$LOFTMAG2
 40
0
  9
$LOFTPARAM
 70
    7
  9
$LOFTNORMALS
280
    1
  9
$LATITUDE
 40
1
  9
$LONGITUDE
 40
1
  9
$NORTHDIRECTION
 40
0
  9
$TIMEZONE
 70
-8000
  9
$LIGHTGLYPHDISPLAY
280
    1
  9
$TILEMODELIGHTSYNCH
280
    1
  9
$SOLIDHIST
280
    1
  9
$SHOWHIST
280
    1
  9
$DWFFRAME
280
    2
  9
$DGNFRAME
280
    0
  9
$REALWORLDSCALE
290
    1
  9
$INTERFERECOLOR
 62
    1
  9
$CSHADOW
280
    0
  9
$SHADOWPLANELOCATION
 40
0
  0
ENDSEC
  0
SECTION
  2
CLASSES
  0
ENDSEC
  0
SECTION
  2
TABLES
  0
TABLE
  2
VPORT
  5
8
330
0
100
AcDbSymbolTable
 70
    1
  0
VPORT
  5
31
330
2
100
AcDbSymbolTableRecord
100
AcDbViewportTableRecord
  2
*ACTIVE
 70
    0
 10
0
 20
0
 11
1
 21
1
 12
326.5912063953488
 22
230.0029069767442
 13
0
 23
0
 14
10
 24
10
 15
10
 25
10
 16
0
 26
0
 36
1
 17
0
 27
0
 37
0
 40
457.421511627907
 41
1.964689265536723
 42
50
 43
0
 44
0
 50
0
 51
0
 71
    0
 72
  100
 73
    1
 74
    3
 75
    0
 76
    0
 77
    0
 78
    0
281
    0
 65
    1
110
0
120
0
130
0
111
1
121
0
131
0
112
0
122
1
132
0
 79
    0
146
0
348
10020
 60
    7
 61
    5
292
1
282
    1
141
0
142
0
 63
  250
421
3358443
  0
ENDTAB
  0
TABLE
  2
LTYPE
  5
5
330
0
100
AcDbSymbolTable
 70
    4
  0
LTYPE
  5
14
330
5
100
AcDbSymbolTableRecord
100
AcDbLinetypeTableRecord
  2
ByBlock
 70
    0
  3

 72
   65
 73
    0
 40
0
  0
LTYPE
  5
15
330
5
100
AcDbSymbolTableRecord
100
AcDbLinetypeTableRecord
  2
ByLayer
 70
    0
  3

 72
   65
 73
    0
 40
0
  0
LTYPE
  5
16
330
5
100
AcDbSymbolTableRecord
100
AcDbLinetypeTableRecord
  2
Continuous
 70
    0
  3
Solid line
 72
   65
 73
    0
 40
0
  0
LTYPE
  5
32
330
5
100
AcDbSymbolTableRecord
100
AcDbLinetypeTableRecord
  2
DOT
 70
    0
  3
Dot . . . . . . . . . . . . . . . . . . . . . .
 72
   65
 73
    2
 40
6.35
 49
0
 74
    0
 49
-6.35
 74
    0
  0
LTYPE
  5
33
330
5
100
AcDbSymbolTableRecord
100
AcDbLinetypeTableRecord
  2
DOTTINY
 70
    0
  3
Dot (.15x) .....................................
 72
   65
 73
    2
 40
0.9525
 49
0
 74
    0
 49
-0.9525
 74
    0
  0
LTYPE
  5
34
330
5
100
AcDbSymbolTableRecord
100
AcDbLinetypeTableRecord
  2
DOT2
 70
    0
  3
Dot (.5x) .....................................
 72
   65
 73
    2
 40
3.175
 49
0
 74
    0
 49
-3.175
 74
    0
  0
LTYPE
  5
35
330
5
100
AcDbSymbolTableRecord
100
AcDbLinetypeTableRecord
  2
DOTX2
 70
    0
  3
Dot (2x) .  .  .  .  .  .  .  .  .  .  .  .  .
 72
   65
 73
    2
 40
12.7
 49
0
 74
    0
 49
-12.7
 74
    0
  0
LTYPE
  5
36
330
5
100
AcDbSymbolTableRecord
100
AcDbLinetypeTableRecord
  2
DASHED
 70
    0
  3
Dashed _ _ _ _ _ _ _ _ _ _ _ _ _ _ _ _ _
 72
   65
 73
    2
 40
19.05
 49
12.7
 74
    0
 49
-6.35
 74
    0
  0
LTYPE
  5
37
330
5
100
AcDbSymbolTableRecord
100
AcDbLinetypeTableRecord
  2
DASHEDTINY
 70
    0
  3
Dashed (.15x) _ _ _ _ _ _ _ _ _ _ _ _ _ _ _ _ _
 72
   65
 73
    2
 40
2.8575
 49
1.905
 74
    0
 49
-0.9525
 74
    0
  0
LTYPE
  5
38
330
5
100
AcDbSymbolTableRecord
100
AcDbLinetypeTableRecord
  2
DASHED2
 70
    0
  3
Dashed (.5x) _ _ _ _ _ _ _ _ _ _ _ _ _ _ _ _ _
 72
   65
 73
    2
 40
9.524999999999999
 49
6.35
 74
    0
 49
-3.175
 74
    0
  0
LTYPE
  5
39
330
5
100
AcDbSymbolTableRecord
100
AcDbLinetypeTableRecord
  2
DASHEDX2
 70
    0
  3
Dashed (2x) ____  ____  ____  ____  ____  ___
 72
   65
 73
    2
 40
38.09999999999999
 49
25.4
 74
    0
 49
-12.7
 74
    0
  0
LTYPE
  5
3A
330
5
100
AcDbSymbolTableRecord
100
AcDbLinetypeTableRecord
  2
DASHDOT
 70
    0
  3
Dash dot __ . __ . __ . __ . __ . __ . __ . __
 72
   65
 73
    4
 40
25.4
 49
12.7
 74
    0
 49
-6.35
 74
    0
 49
0
 74
    0
 49
-6.35
 74
    0
  0
LTYPE
  5
3B
330
5
100
AcDbSymbolTableRecord
100
AcDbLinetypeTableRecord
  2
DASHDOTTINY
 70
    0
  3
Dash dot (.15x) _._._._._._._._._._._._._._._.
 72
   65
 73
    4
 40
3.81
 49
1.905
 74
    0
 49
-0.9525
 74
    0
 49
0
 74
    0
 49
-0.9525
 74
    0
  0
LTYPE
  5
3C
330
5
100
AcDbSymbolTableRecord
100
AcDbLinetypeTableRecord
  2
DASHDOT2
 70
    0
  3
Dash dot (.5x) _._._._._._._._._._._._._._._.
 72
   65
 73
    4
 40
12.7
 49
6.35
 74
    0
 49
-3.175
 74
    0
 49
0
 74
    0
 49
-3.175
 74
    0
  0
LTYPE
  5
3D
330
5
100
AcDbSymbolTableRecord
100
AcDbLinetypeTableRecord
  2
DASHDOTX2
 70
    0
  3
Dash dot (2x) ____  .  ____  .  ____  .  ___
 72
   65
 73
    4
 40
50.8
 49
25.4
 74
    0
 49
-12.7
 74
    0
 49
0
 74
    0
 49
-12.7
 74
    0
  0
LTYPE
  5
3E
330
5
100
AcDbSymbolTableRecord
100
AcDbLinetypeTableRecord
  2
DIVIDE
 70
    0
  3
Divide ____ . . ____ . . ____ . . ____ . . ____
 72
   65
 73
    6
 40
31.75
 49
12.7
 74
    0
 49
-6.35
 74
    0
 49
0
 74
    0
 49
-6.35
 74
    0
 49
0
 74
    0
 49
-6.35
 74
    0
  0
LTYPE
  5
3F
330
5
100
AcDbSymbolTableRecord
100
AcDbLinetypeTableRecord
  2
DIVIDETINY
 70
    0
  3
Divide (.15x) __..__..__..__..__..__..__..__.._
 72
   65
 73
    6
 40
4.7625
 49
1.905
 74
    0
 49
-0.9525
 74
    0
 49
0
 74
    0
 49
-0.9525
 74
    0
 49
0
 74
    0
 49
-0.9525
 74
    0
  0
LTYPE
  5
40
330
5
100
AcDbSymbolTableRecord
100
AcDbLinetypeTableRecord
  2
DIVIDE2
 70
    0
  3
Divide (.5x) __..__..__..__..__..__..__..__.._
 72
   65
 73
    6
 40
15.875
 49
6.35
 74
    0
 49
-3.175
 74
    0
 49
0
 74
    0
 49
-3.175
 74
    0
 49
0
 74
    0
 49
-3.175
 74
    0
  0
LTYPE
  5
41
330
5
100
AcDbSymbolTableRecord
100
AcDbLinetypeTableRecord
  2
DIVIDEX2
 70
    0
  3
Divide (2x) ________  .  .  ________  .  .  _
 72
   65
 73
    6
 40
63.5
 49
25.4
 74
    0
 49
-12.7
 74
    0
 49
0
 74
    0
 49
-12.7
 74
    0
 49
0
 74
    0
 49
-12.7
 74
    0
  0
LTYPE
  5
42
330
5
100
AcDbSymbolTableRecord
100
AcDbLinetypeTableRecord
  2
BORDER
 70
    0
  3
Border __ __ . __ __ . __ __ . __ __ . __ __ .
 72
   65
 73
    6
 40
44.45
 49
12.7
 74
    0
 49
-6.35
 74
    0
 49
12.7
 74
    0
 49
-6.35
 74
    0
 49
0
 74
    0
 49
-6.35
 74
    0
  0
LTYPE
  5
43
330
5
100
AcDbSymbolTableRecord
100
AcDbLinetypeTableRecord
  2
BORDERTINY
 70
    0
  3
Border (.15x) __.__.__.__.__.__.__.__.__.__.__.
 72
   65
 73
    6
 40
6.6675
 49
1.905
 74
    0
 49
-0.9525
 74
    0
 49
1.905
 74
    0
 49
-0.9525
 74
    0
 49
0
 74
    0
 49
-0.9525
 74
    0
  0
LTYPE
  5
44
330
5
100
AcDbSymbolTableRecord
100
AcDbLinetypeTableRecord
  2
BORDER2
 70
    0
  3
Border (.5x) __.__.__.__.__.__.__.__.__.__.__.
 72
   65
 73
    6
 40
22.225
 49
6.35
 74
    0
 49
-3.175
 74
    0
 49
6.35
 74
    0
 49
-3.175
 74
    0
 49
0
 74
    0
 49
-3.175
 74
    0
  0
LTYPE
  5
45
330
5
100
AcDbSymbolTableRecord
100
AcDbLinetypeTableRecord
  2
BORDERX2
 70
    0
  3
Border (2x) ____  ____  .  ____  ____  .  ___
 72
   65
 73
    6
 40
88.89999999999999
 49
25.4
 74
    0
 49
-12.7
 74
    0
 49
25.4
 74
    0
 49
-12.7
 74
    0
 49
0
 74
    0
 49
-12.7
 74
    0
  0
LTYPE
  5
46
330
5
100
AcDbSymbolTableRecord
100
AcDbLinetypeTableRecord
  2
CENTER
 70
    0
  3
Center ____ _ ____ _ ____ _ ____ _ ____ _ ____
 72
   65
 73
    4
 40
50.8
 49
31.75
 74
    0
 49
-6.35
 74
    0
 49
6.35
 74
    0
 49
-6.35
 74
    0
  0
LTYPE
  5
47
330
5
100
AcDbSymbolTableRecord
100
AcDbLinetypeTableRecord
  2
CENTERTINY
 70
    0
  3
Center (.15x) ___ _ ___ _ ___ _ ___ _ ___ _ ___
 72
   65
 73
    4
 40
7.619999999999999
 49
4.7625
 74
    0
 49
-0.9525
 74
    0
 49
0.9525
 74
    0
 49
-0.9525
 74
    0
  0
LTYPE
  5
48
330
5
100
AcDbSymbolTableRecord
100
AcDbLinetypeTableRecord
  2
CENTER2
 70
    0
  3
Center (.5x) ___ _ ___ _ ___ _ ___ _ ___ _ ___
 72
   65
 73
    4
 40
28.575
 49
19.05
 74
    0
 49
-3.175
 74
    0
 49
3.175
 74
    0
 49
-3.175
 74
    0
  0
LTYPE
  5
49
330
5
100
AcDbSymbolTableRecord
100
AcDbLinetypeTableRecord
  2
CENTERX2
 70
    0
  3
Center (2x) ________  __  ________  __  _____
 72
   65
 73
    4
 40
101.6
 49
63.5
 74
    0
 49
-12.7
 74
    0
 49
12.7
 74
    0
 49
-12.7
 74
    0
  0
ENDTAB
  0
TABLE
  2
LAYER
  5
2
330
0
100
AcDbSymbolTable
 70
    1
  0
LAYER
  5
10
330
2
100
AcDbSymbolTableRecord
100
AcDbLayerTableRecord
  2
0
 70
    0
 62
    7
  6
CONTINUOUS
370
   -3
390
F
  0
LAYER
  5
4A
330
2
100
AcDbSymbolTableRecord
100
AcDbLayerTableRecord
  2
Layer_1
 70
    0
 62
    7
  6
CONTINUOUS
370
   -3
390
F
  0
ENDTAB
  0
TABLE
  2
STYLE
  5
3
330
0
100
AcDbSymbolTable
 70
    3
  0
STYLE
  5
4B
330
2
100
AcDbSymbolTableRecord
100
AcDbTextStyleTableRecord
  2
Standard
 70
    0
 40
0
 41
1
 50
0
 71
    0
 42
1
  3
txt
  4

  0
ENDTAB
  0
TABLE
  2
VIEW
  5
6
330
0
100
AcDbSymbolTable
 70
    0
  0
ENDTAB
  0
TABLE
  2
UCS
  5
7
330
0
100
AcDbSymbolTable
 70
    0
  0
ENDTAB
  0
TABLE
  2
APPID
  5
9
330
0
100
AcDbSymbolTable
 70
    1
  0
APPID
  5
12
330
9
100
AcDbSymbolTableRecord
100
AcDbRegAppTableRecord
  2
ACAD
 70
    0
  0
APPID
  5
4C
330
9
100
AcDbSymbolTableRecord
100
AcDbRegAppTableRecord
  2
LibreCad
 70
    0
  0
ENDTAB
  0
TABLE
  2
DIMSTYLE
  5
A
330
0
100
AcDbSymbolTable
 70
    1
100
AcDbDimStyleTable
 71
    1
  0
DIMSTYLE
105
4D
330
A
100
AcDbSymbolTableRecord
100
AcDbDimStyleTableRecord
  2
Standard
 70
    0
 40
1
 41
2.5
 42
0.625
 43
0.38
 44
1.25
 45
0
 46
0
 47
0
 48
0
 49
1
140
2.5
141
0.09
142
2.5
143
25.4
144
1
145
0
146
1
147
0.625
148
0
 71
    0
 72
    0
 73
    0
 74
    1
 75
    0
 76
    0
 77
    0
 78
    1
 79
    0
170
    0
171
    2
172
    0
173
    0
174
    0
175
    0
176
    0
177
    0
178
    0
179
    0
271
    2
272
    4
273
    2
274
    2
275
    0
276
    0
277
    2
278
    0
279
    0
280
    0
281
    0
282
    0
283
    1
284
    0
285
    0
286
    0
288
    0
289
    3
340
standard
341

371
   -2
372
   -2
  0
ENDTAB
  0
TABLE
  2
BLOCK_RECORD
  5
1
330
0
100
AcDbSymbolTable
 70
    2
  0
BLOCK_RECORD
  5
1F
330
1
100
AcDbSymbolTableRecord
100
AcDbBlockTableRecord
  2
*Model_Space
 70
    0
280
    1
281
    0
  0
BLOCK_RECORD
  5
1E
330
1
100
AcDbSymbolTableRecord
100
AcDbBlockTableRecord
  2
*Paper_Space
 70
    0
280
    1
281
    0
  0
ENDTAB
  0
ENDSEC
  0
SECTION
  2
BLOCKS
  0
BLOCK
  5
20
330
1F
100
AcDbEntity
  8
0
100
AcDbBlockBegin
  2
*Model_Space
 70
    0
 10
0
 20
0
 30
0
  3
*Model_Space
  1

  0
ENDBLK
  5
21
330
1F
100
AcDbEntity
  8
0
100
AcDbBlockEnd
  0
BLOCK
  5
1C
330
1B
100
AcDbEntity
  8
0
100
AcDbBlockBegin
  2
*Paper_Space
 70
    0
 10
0
 20
0
 30
0
  3
*Paper_Space
  1

  0
ENDBLK
  5
1D
330
1F
100
AcDbEntity
  8
0
100
AcDbBlockEnd
  0
ENDSEC
  0
SECTION
  2
ENTITIES
  0
LINE
  5
4E
100
AcDbEntity
  8
Layer_1
  6
ByLayer
 62
    1
370
   -1
100
AcDbLine
 10
101.600491
 20
142.495223
 11
101.600491
 21
244.095225
  0
LINE
  5
4F
100
AcDbEntity
  8
Layer_1
  6
ByLayer
 62
    1
370
   -1
100
AcDbLine
 10
101.600491
 20
244.095225
 11
304.800496
 21
244.095225
  0
LINE
  5
50
100
AcDbEntity
  8
Layer_1
  6
ByLayer
 62
    1
370
   -1
100
AcDbLine
 10
304.800496
 20
244.095225
 11
304.800496
 21
142.495223
  0
LINE
  5
51
100
AcDbEntity
  8
Layer_1
  6
ByLayer
 62
    1
370
   -1
100
AcDbLine
 10
304.800496
 20
142.495223
 11
101.600491
 21
142.495223
  0
LINE
  5
52
100
AcDbEntity
  8
Layer_1
  6
ByLayer
 62
    5
370
   -1
100
AcDbLine
 10
304.800497
 20
453.64523
 11
215.894295
 21
453.64523
  0
SPLINE
  5
53
100
AcDbEntity
  8
Layer_1
  6
ByLayer
 62
    5
370
   -1
100
AcDbSpline
210
0
220
0
230
0
 70
    8
 71
    3
 72
   10
 73
    6
 74
    0
 42
1e-07
 43
1e-07
 40
0
 40
0
 40
0
 40
0
 40
6.501732
 40
12.817455
 40
19.319189
 40
19.319189
 40
19.319189
 40
19.319189
 10
215.894295
 20
453.64523
 30
0
 10
215.559619
 20
451.467018
 30
0
 10
214.899844
 20
447.17291
 30
0
 10
210.048886
 20
442.159279
 30
0
 10
205.778868
 20
441.358274
 30
0
 10
203.612874
 20
440.95196
 30
0
  0
SPLINE
  5
54
100
AcDbEntity
  8
Layer_1
  6
ByLayer
 62
    5
370
   -1
100
AcDbSpline
210
0
220
0
230
0
 70
    8
 71
    3
 72
   10
 73
    6
 74
    0
 42
1e-07
 43
1e-07
 40
0
 40
0
 40
0
 40
0
 40
6.633508
 40
13.070609
 40
19.704112
 40
19.704112
 40
19.704112
 40
19.704112
 10
203.612874
 20
440.95196
 30
0
 10
201.379673
 20
441.228156
 30
0
 10
196.979392
 20
441.772371
 30
0
 10
191.767753
 20
446.648
 30
0
 10
190.931921
 20
451.002311
 30
0
 10
190.507726
 20
453.21218
 30
0
  0
LINE
  5
55
100
AcDbEntity
  8
Layer_1
  6
ByLayer
 62
    5
370
   -1
100
AcDbLine
 10
190.530976
 20
453.64523
 11
101.600489
 21
453.64523
  0
LINE
  5
56
100
AcDbEntity
  8
Layer_1
  6
ByLayer
 62
    5
370
   -1
100
AcDbLine
 10
101.600492
 20
244.095229
 11
0.00049
 21
244.095229
  0
LINE
  5
57
100
AcDbEntity
  8
Layer_1
  6
ByLayer
 62
    5
370
   -1
100
AcDbLine
 10
0.00049
 20
244.095229
 11
0.00049
 21
352.045229
  0
LINE
  5
58
100
AcDbEntity
  8
Layer_1
  6
ByLayer
 62
    5
370
   -1
100
AcDbLine
 10
0.00049
 20
352.045229
 11
101.600492
 21
352.045229
  0
SPLINE
  5
59
100
AcDbEntity
  8
Layer_1
  6
ByLayer
 62
    5
370
   -1
100
AcDbSpline
210
0
220
0
230
0
 70
    8
 71
    3
 72
   10
 73
    6
 74
    0
 42
1e-07
 43
1e-07
 40
0
 40
0
 40
0
 40
0
 40
0.144564
 40
0.289126
 40
0.433692
 40
0.433692
 40
0.433692
 40
0.433692
 10
190.507726
 20
453.21218
 30
0
 10
190.509656
 20
453.26033
 30
0
 10
190.513514
 20
453.356628
 30
0
 10
190.52126
 20
453.500991
 30
0
 10
190.527737
 20
453.59715
 30
0
 10
190.530976
 20
453.64523
 30
0
  0
LINE
  5
5A
100
AcDbEntity
  8
Layer_1
  6
ByLayer
 62
    5
370
   -1
100
AcDbLine
 10
50.95552
 20
269.495226
 11
50.95552
 21
269.495226
  0
LINE
  5
5B
100
AcDbEntity
  8
Layer_1
  6
ByLayer
 62
    5
370
   -1
100
AcDbLine
 10
50.95552
 20
269.495226
 11
52.013854
 21
269.495226
  0
SPLINE
  5
5C
100
AcDbEntity
  8
Layer_1
  6
ByLayer
 62
    5
370
   -1
100
AcDbSpline
210
0
220
0
230
0
 70
    8
 71
    3
 72
   13
 73
    9
 74
    0
 42
1e-07
 43
1e-07
 40
0
 40
0
 40
0
 40
0
 40
5.0687
 40
17.092342
 40
33.451633
 40
49.810925
 40
61.834567
 40
66.903267
 40
66.903267
 40
66.903267
 40
66.903267
 10
50.95552
 20
326.645227
 30
0
 10
49.608895
 20
325.621553
 30
0
 10
45.067893
 20
322.169587
 30
0
 10
38.156683
 20
313.099569
 30
0
 10
34.308652
 20
298.070226
 30
0
 10
38.156682
 20
283.040884
 30
0
 10
45.067893
 20
273.970866
 30
0
 10
49.608895
 20
270.5189
 30
0
 10
50.95552
 20
269.495226
 30
0
  0
LINE
  5
5D
100
AcDbEntity
  8
Layer_1
  6
ByLayer
 62
    5
370
   -1
100
AcDbLine
 10
52.013854
 20
326.645227
 11
50.95552
 21
326.645227
  0
SPLINE
  5
5E
100
AcDbEntity
  8
Layer_1
  6
ByLayer
 62
    5
370
   -1
100
AcDbSpline
210
0
220
0
230
0
 70
    8
 71
    3
 72
   10
 73
    6
 74
    0
 42
1e-07
 43
1e-07
 40
0
 40
0
 40
0
 40
0
 40
22.483549
 40
43.269191
 40
66.32419899999999
 40
66.32419899999999
 40
66.32419899999999
 40
66.32419899999999
 10
52.013854
 20
269.495226
 30
0
 10
46.518855
 20
274.931057
 30
0
 10
35.943826
 20
285.392218
 30
0
 10
35.852429
 20
310.292305
 30
0
 10
46.443959
 20
321.009334
 30
0
 10
52.013854
 20
326.645227
 30
0
  0
LINE
  5
5F
100
AcDbEntity
  8
Layer_1
  6
ByLayer
 62
    5
370
   -1
100
AcDbLine
 10
36.001627
 20
110.259562
 11
101.600491
 21
142.495223
  0
SPLINE
  5
60
100
AcDbEntity
  8
Layer_1
  6
ByLayer
 62
    5
370
   -1
100
AcDbSpline
210
0
220
0
230
0
 70
    8
 71
    3
 72
   16
 73
   12
 74
    0
 42
1e-07
 43
1e-07
 40
0
 40
0
 40
0
 40
0
 40
2.708748
 40
21.669988
 40
73.136216
 40
84.083494
 40
93.986572
 40
98.614938
 40
103.097136
 40
112.786159
 40
123.73808
 40
123.73808
 40
123.73808
 40
123.73808
 10
101.600491
 20
34.545231
 30
0
 10
100.786603
 20
34.93623
 30
0
 10
94.275499
 20
38.064227
 30
0
 10
72.619141
 20
49.253005
 30
0
 10
45.889844
 20
56.480361
 30
0
 10
27.477776
 20
73.49556800000001
 30
0
 10
25.793761
 20
82.16331599999999
 30
0
 10
25.260441
 20
88.47369500000001
 30
0
 10
25.886175
 20
94.697164
 30
0
 10
27.730758
 20
103.256881
 30
0
 10
33.134464
 20
107.832027
 30
0
 10
36.001627
 20
110.259562
 30
0
  0
LINE
  5
61
100
AcDbEntity
  8
Layer_1
  6
ByLayer
 62
    5
370
   -1
100
AcDbLine
 10
370.399358
 20
66.780891
 11
304.800497
 21
34.545231
  0
LINE
  5
62
100
AcDbEntity
  8
Layer_1
  6
ByLayer
 62
    5
370
   -1
100
AcDbLine
 10
101.600491
 20
34.545231
 11
101.600491
 21
21.84523
  0
SPLINE
  5
63
100
AcDbEntity
  8
Layer_1
  6
ByLayer
 62
    5
370
   -1
100
AcDbSpline
210
0
220
0
230
0
 70
    8
 71
    3
 72
   16
 73
   12
 74
    0
 42
1e-07
 43
1e-07
 40
0
 40
0
 40
0
 40
0
 40
2.708748
 40
21.669988
 40
73.136214
 40
84.083494
 40
93.98657300000001
 40
98.61493900000001
 40
103.097137
 40
112.786161
 40
123.738085
 40
123.738085
 40
123.738085
 40
123.738085
 10
304.800497
 20
142.495223
 30
0
 10
305.614384
 20
142.104224
 30
0
 10
312.125488
 20
138.976227
 30
0
 10
333.781846
 20
127.787449
 30
0
 10
360.511142
 20
120.560091
 30
0
 10
378.923211
 20
103.544886
 30
0
 10
380.60723
 20
94.877138
 30
0
 10
381.140554
 20
88.566759
 30
0
 10
380.514818
 20
82.34329
 30
0
 10
378.670233
 20
73.78357099999999
 30
0
 10
373.266524
 20
69.208427
 30
0
 10
370.399358
 20
66.780891
 30
0
  0
LINE
  5
64
100
AcDbEntity
  8
Layer_1
  6
ByLayer
 62
    5
370
   -1
100
AcDbLine
 10
114.300492
 20
9.14523
 11
292.100496
 21
9.14523
  0
SPLINE
  5
65
100
AcDbEntity
  8
Layer_1
  6
ByLayer
 62
    5
370
   -1
100
AcDbSpline
210
0
220
0
230
0
 70
    8
 71
    3
 72
   10
 73
    6
 74
    0
 42
1e-07
 43
1e-07
 40
0
 40
0
 40
0
 40
0
 40
6.397733
 40
13.049773
 40
19.447502
 40
19.447502
 40
19.447502
 40
19.447502
 10
101.600491
 20
21.84523
 30
0
 10
102.032177
 20
19.726784
 30
0
 10
102.912707
 20
15.405683
 30
0
 10
107.860947
 20
10.457446
 30
0
 10
112.182046
 20
9.576915
 30
0
 10
114.300492
 20
9.14523
 30
0
  0
LINE
  5
66
100
AcDbEntity
  8
Layer_1
  6
ByLayer
 62
    5
370
   -1
100
AcDbLine
 10
304.800497
 20
21.84522
 11
304.800497
 21
34.545231
  0
LINE
  5
67
100
AcDbEntity
  8
Layer_1
  6
ByLayer
 62
    5
370
   -1
100
AcDbLine
 10
101.600489
 20
142.495223
 11
25.400921
 21
142.495223
  0
LINE
  5
68
100
AcDbEntity
  8
Layer_1
  6
ByLayer
 62
    5
370
   -1
100
AcDbLine
 10
25.400921
 20
142.495223
 11
25.400921
 21
188.215434
  0
LINE
  5
69
100
AcDbEntity
  8
Layer_1
  6
ByLayer
 62
    5
370
   -1
100
AcDbLine
 10
25.400921
 20
188.215434
 11
25.418521
 21
188.215434
  0
SPLINE
  5
6A
100
AcDbEntity
  8
Layer_1
  6
ByLayer
 62
    5
370
   -1
100
AcDbSpline
210
0
220
0
230
0
 70
    8
 71
    3
 72
   10
 73
    6
 74
    0
 42
1e-07
 43
1e-07
 40
0
 40
0
 40
0
 40
0
 40
6.397728
 40
13.049766
 40
19.447493
 40
19.447493
 40
19.447493
 40
19.447493
 10
292.100496
 20
9.14523
 30
0
 10
294.218941
 20
9.576915
 30
0
 10
298.54004
 20
10.457445
 30
0
 10
303.488279
 20
15.405678
 30
0
 10
304.368811
 20
19.726776
 30
0
 10
304.800497
 20
21.84522
 30
0
  0
SPLINE
  5
6B
100
AcDbEntity
  8
Layer_1
  6
ByLayer
 62
    5
370
   -1
100
AcDbSpline
210
0
220
0
230
0
 70
    8
 71
    3
 72
   10
 73
    6
 74
    0
 42
1e-07
 43
1e-07
 40
0
 40
0
 40
0
 40
0
 40
0.288714
 40
0.577422
 40
0.866134
 40
0.866134
 40
0.866134
 40
0.866134
 10
25.418521
 20
188.215434
 30
0
 10
25.416854
 20
188.311659
 30
0
 10
25.413521
 20
188.504105
 30
0
 10
25.412521
 20
188.792827
 30
0
 10
25.414521
 20
188.985292
 30
0
 10
25.415521
 20
189.081524
 30
0
  0
SPLINE
  5
6C
100
AcDbEntity
  8
Layer_1
  6
ByLayer
 62
    5
370
   -1
100
AcDbSpline
210
0
220
0
230
0
 70
    8
 71
    3
 72
   10
 73
    6
 74
    0
 42
1e-07
 43
1e-07
 40
0
 40
0
 40
0
 40
0
 40
13.267022
 40
26.141233
 40
39.408255
 40
39.408255
 40
39.408255
 40
39.408255
 10
25.415521
 20
189.081524
 30
0
 10
26.263906
 20
193.50127
 30
0
 10
27.935557
 20
202.209901
 30
0
 10
38.358838
 20
211.961178
 30
0
 10
47.159406
 20
213.049607
 30
0
 10
51.625811
 20
213.601999
 30
0
  0
LINE
  5
6D
100
AcDbEntity
  8
Layer_1
  6
ByLayer
 62
    5
370
   -1
100
AcDbLine
 10
76.198989
 20
188.215434
 11
76.200489
 21
188.215434
  0
LINE
  5
6E
100
AcDbEntity
  8
Layer_1
  6
ByLayer
 62
    5
370
   -1
100
AcDbLine
 10
76.200489
 20
188.215434
 11
101.600489
 21
244.095229
  0
LINE
  5
6F
100
AcDbEntity
  8
Layer_1
  6
ByLayer
 62
    5
370
   -1
100
AcDbLine
 10
304.800487
 20
142.495223
 11
381.000058
 21
142.495223
  0
LINE
  5
70
100
AcDbEntity
  8
Layer_1
  6
ByLayer
 62
    5
370
   -1
100
AcDbLine
 10
381.000058
 20
142.495223
 11
381.000058
 21
188.215424
  0
LINE
  5
71
100
AcDbEntity
  8
Layer_1
  6
ByLayer
 62
    5
370
   -1
100
AcDbLine
 10
381.000058
 20
188.215424
 11
380.982458
 21
188.215424
  0
SPLINE
  5
72
100
AcDbEntity
  8
Layer_1
  6
ByLayer
 62
    5
370
   -1
100
AcDbSpline
210
0
220
0
230
0
 70
    8
 71
    3
 72
   10
 73
    6
 74
    0
 42
1e-07
 43
1e-07
 40
0
 40
0
 40
0
 40
0
 40
13.006785
 40
25.641296
 40
38.648086
 40
38.648086
 40
38.648086
 40
38.648086
 10
51.625811
 20
213.601999
 30
0
 10
55.959245
 20
212.790753
 30
0
 10
64.502083
 20
211.19148
 30
0
 10
74.208905
 20
201.163354
 30
0
 10
75.52923800000001
 20
192.572981
 30
0
 10
76.198989
 20
188.215434
 30
0
  0
SPLINE
  5
73
100
AcDbEntity
  8
Layer_1
  6
ByLayer
 62
    5
370
   -1
100
AcDbSpline
210
0
220
0
230
0
 70
    8
 71
    3
 72
   10
 73
    6
 74
    0
 42
1e-07
 43
1e-07
 40
0
 40
0
 40
0
 40
0
 40
0.288714
 40
0.577422
 40
0.866134
 40
0.866134
 40
0.866134
 40
0.866134
 10
380.982458
 20
188.215424
 30
0
 10
380.984125
 20
188.311649
 30
0
 10
380.987458
 20
188.504095
 30
0
 10
380.988458
 20
188.792817
 30
0
 10
380.986458
 20
188.985282
 30
0
 10
380.985458
 20
189.081514
 30
0
  0
SPLINE
  5
74
100
AcDbEntity
  8
Layer_1
  6
ByLayer
 62
    5
370
   -1
100
AcDbSpline
210
0
220
0
230
0
 70
    8
 71
    3
 72
   10
 73
    6
 74
    0
 42
1e-07
 43
1e-07
 40
0
 40
0
 40
0
 40
0
 40
13.26703
 40
26.141244
 40
39.408262
 40
39.408262
 40
39.408262
 40
39.408262
 10
380.985458
 20
189.081514
 30
0
 10
380.137073
 20
193.501262
 30
0
 10
378.465421
 20
202.209897
 30
0
 10
368.04214
 20
211.961178
 30
0
 10
359.241571
 20
213.049607
 30
0
 10
354.775168
 20
213.601999
 30
0
  0
LINE
  5
75
100
AcDbEntity
  8
Layer_1
  6
ByLayer
 62
    5
370
   -1
100
AcDbLine
 10
330.201997
 20
188.215424
 11
330.199997
 21
188.215424
  0
LINE
  5
76
100
AcDbEntity
  8
Layer_1
  6
ByLayer
 62
    5
370
   -1
100
AcDbLine
 10
330.199997
 20
188.215424
 11
304.800487
 21
244.095229
  0
LINE
  5
77
100
AcDbEntity
  8
Layer_1
  6
ByLayer
 62
    5
370
   -1
100
AcDbLine
 10
101.600489
 20
453.64523
 11
25.400921
 21
453.64523
  0
LINE
  5
78
100
AcDbEntity
  8
Layer_1
  6
ByLayer
 62
    5
370
   -1
100
AcDbLine
 10
25.400921
 20
453.64523
 11
25.400921
 21
407.924879
  0
LINE
  5
79
100
AcDbEntity
  8
Layer_1
  6
ByLayer
 62
    5
370
   -1
100
AcDbLine
 10
25.400921
 20
407.924879
 11
25.418521
 21
407.924879
  0
SPLINE
  5
7A
100
AcDbEntity
  8
Layer_1
  6
ByLayer
 62
    5
370
   -1
100
AcDbSpline
210
0
220
0
230
0
 70
    8
 71
    3
 72
   10
 73
    6
 74
    0
 42
1e-07
 43
1e-07
 40
0
 40
0
 40
0
 40
0
 40
13.006784
 40
25.641296
 40
38.648092
 40
38.648092
 40
38.648092
 40
38.648092
 10
354.775168
 20
213.601999
 30
0
 10
350.441735
 20
212.790752
 30
0
 10
341.898897
 20
211.191479
 30
0
 10
332.192074
 20
201.16335
 30
0
 10
330.871746
 20
192.572974
 30
0
 10
330.201997
 20
188.215424
 30
0
  0
SPLINE
  5
7B
100
AcDbEntity
  8
Layer_1
  6
ByLayer
 62
    5
370
   -1
100
AcDbSpline
210
0
220
0
230
0
 70
    8
 71
    3
 72
   10
 73
    6
 74
    0
 42
1e-07
 43
1e-07
 40
0
 40
0
 40
0
 40
0
 40
0.288714
 40
0.577422
 40
0.866134
 40
0.866134
 40
0.866134
 40
0.866134
 10
25.418521
 20
407.924879
 30
0
 10
25.416854
 20
407.828655
 30
0
 10
25.413521
 20
407.636208
 30
0
 10
25.412521
 20
407.347486
 30
0
 10
25.414521
 20
407.155022
 30
0
 10
25.415521
 20
407.058789
 30
0
  0
SPLINE
  5
7C
100
AcDbEntity
  8
Layer_1
  6
ByLayer
 62
    5
370
   -1
100
AcDbSpline
210
0
220
0
230
0
 70
    8
 71
    3
 72
   10
 73
    6
 74
    0
 42
1e-07
 43
1e-07
 40
0
 40
0
 40
0
 40
0
 40
13.266951
 40
26.141127
 40
39.408145
 40
39.408145
 40
39.408145
 40
39.408145
 10
25.415521
 20
407.058789
 30
0
 10
26.263908
 20
402.639067
 30
0
 10
27.935565
 20
393.930471
 30
0
 10
38.358854
 20
384.179262
 30
0
 10
47.159408
 20
383.090844
 30
0
 10
51.625811
 20
382.538457
 30
0
  0
LINE
  5
7D
100
AcDbEntity
  8
Layer_1
  6
ByLayer
 62
    5
370
   -1
100
AcDbLine
 10
76.198989
 20
407.924879
 11
76.200489
 21
407.924879
  0
LINE
  5
7E
100
AcDbEntity
  8
Layer_1
  6
ByLayer
 62
    5
370
   -1
100
AcDbLine
 10
76.200489
 20
407.924879
 11
101.600489
 21
352.045401
  0
LINE
  5
7F
100
AcDbEntity
  8
Layer_1
  6
ByLayer
 62
    5
370
   -1
100
AcDbLine
 10
304.800487
 20
453.64523
 11
381.000058
 21
453.64523
  0
LINE
  5
80
100
AcDbEntity
  8
Layer_1
  6
ByLayer
 62
    5
370
   -1
100
AcDbLine
 10
381.000058
 20
453.64523
 11
381.000058
 21
407.924889
  0
LINE
  5
81
100
AcDbEntity
  8
Layer_1
  6
ByLayer
 62
    5
370
   -1
100
AcDbLine
 10
381.000058
 20
407.924889
 11
380.982458
 21
407.924889
  0
SPLINE
  5
82
100
AcDbEntity
  8
Layer_1
  6
ByLayer
 62
    5
370
   -1
100
AcDbSpline
210
0
220
0
230
0
 70
    8
 71
    3
 72
   10
 73
    6
 74
    0
 42
1e-07
 43
1e-07
 40
0
 40
0
 40
0
 40
0
 40
13.006779
 40
25.641253
 40
38.647975
 40
38.647975
 40
38.647975
 40
38.647975
 10
51.625811
 20
382.538457
 30
0
 10
55.959243
 20
383.349697
 30
0
 10
64.502067
 20
384.948956
 30
0
 10
74.208899
 20
394.977016
 30
0
 10
75.529236
 20
403.567354
 30
0
 10
76.198989
 20
407.924879
 30
0
  0
SPLINE
  5
83
100
AcDbEntity
  8
Layer_1
  6
ByLayer
 62
    5
370
   -1
100
AcDbSpline
210
0
220
0
230
0
 70
    8
 71
    3
 72
   10
 73
    6
 74
    0
 42
1e-07
 43
1e-07
 40
0
 40
0
 40
0
 40
0
 40
0.288714
 40
0.577422
 40
0.866134
 40
0.866134
 40
0.866134
 40
0.866134
 10
380.982458
 20
407.924889
 30
0
 10
380.984125
 20
407.828665
 30
0
 10
380.987458
 20
407.636218
 30
0
 10
380.988458
 20
407.347496
 30
0
 10
380.986458
 20
407.155032
 30
0
 10
380.985458
 20
407.058799
 30
0
  0
SPLINE
  5
84
100
AcDbEntity
  8
Layer_1
  6
ByLayer
 62
    5
370
   -1
100
AcDbSpline
210
0
220
0
230
0
 70
    8
 71
    3
 72
   10
 73
    6
 74
    0
 42
1e-07
 43
1e-07
 40
0
 40
0
 40
0
 40
0
 40
13.266958
 40
26.141138
 40
39.408152
 40
39.408152
 40
39.408152
 40
39.408152
 10
380.985458
 20
407.058799
 30
0
 10
380.137071
 20
402.639075
 30
0
 10
378.465413
 20
393.930475
 30
0
 10
368.042123
 20
384.179264
 30
0
 10
359.241569
 20
383.090845
 30
0
 10
354.775168
 20
382.538457
 30
0
  0
LINE
  5
85
100
AcDbEntity
  8
Layer_1
  6
ByLayer
 62
    5
370
   -1
100
AcDbLine
 10
330.201997
 20
407.924889
 11
330.199997
 21
407.924889
  0
LINE
  5
86
100
AcDbEntity
  8
Layer_1
  6
ByLayer
 62
    5
370
   -1
100
AcDbLine
 10
330.199997
 20
407.924889
 11
304.800487
 21
352.045401
  0
LINE
  5
87
100
AcDbEntity
  8
Layer_1
  6
ByLayer
 62
    1
370
   -1
100
AcDbLine
 10
101.600488
 20
453.64523
 11
101.600491
 21
34.545231
  0
LINE
  5
88
100
AcDbEntity
  8
Layer_1
  6
ByLayer
 62
    1
370
   -1
100
AcDbLine
 10
101.600491
 20
34.545231
 11
304.800497
 21
34.545231
  0
LINE
  5
89
100
AcDbEntity
  8
Layer_1
  6
ByLayer
 62
    1
370
   -1
100
AcDbLine
 10
304.800497
 20
34.545231
 11
304.800497
 21
453.64523
  0
LINE
  5
8A
100
AcDbEntity
  8
Layer_1
  6
ByLayer
 62
    1
370
   -1
100
AcDbLine
 10
304.800497
 20
352.045401
 11
101.600488
 21
352.045401
  0
LINE
  5
8B
100
AcDbEntity
  8
Layer_1
  6
ByLayer
 62
    1
370
   -1
100
AcDbLine
 10
101.600488
 20
244.095233
 11
304.800497
 21
244.095233
  0
LINE
  5
8C
100
AcDbEntity
  8
Layer_1
  6
ByLayer
 62
    1
370
   -1
100
AcDbLine
 10
304.800497
 20
142.495223
 11
101.600491
 21
142.495223
  0
LINE
  5
8D
100
AcDbEntity
  8
Layer_1
  6
ByLayer
 62
    5
370
   -1
100
AcDbLine
 10
304.800517
 20
352.045224
 11
406.400519
 21
352.045224
  0
LINE
  5
8E
100
AcDbEntity
  8
Layer_1
  6
ByLayer
 62
    5
370
   -1
100
AcDbLine
 10
406.400519
 20
352.045224
 11
406.400519
 21
244.095224
  0
LINE
  5
8F
100
AcDbEntity
  8
Layer_1
  6
ByLayer
 62
    5
370
   -1
100
AcDbLine
 10
406.400519
 20
244.095224
 11
304.800517
 21
244.095224
  0
SPLINE
  5
90
100
AcDbEntity
  8
Layer_1
  6
ByLayer
 62
    5
370
   -1
100
AcDbSpline
210
0
220
0
230
0
 70
    8
 71
    3
 72
   10
 73
    6
 74
    0
 42
1e-07
 43
1e-07
 40
0
 40
0
 40
0
 40
0
 40
13.006778
 40
25.641253
 40
38.647981
 40
38.647981
 40
38.647981
 40
38.647981
 10
354.775168
 20
382.538457
 30
0
 10
350.441737
 20
383.349697
 30
0
 10
341.898913
 20
384.948956
 30
0
 10
332.19208
 20
394.97702
 30
0
 10
330.871748
 20
403.567362
 30
0
 10
330.201997
 20
407.924889
 30
0
  0
LINE
  5
91
100
AcDbEntity
  8
Layer_1
  6
ByLayer
 62
    5
370
   -1
100
AcDbLine
 10
355.445489
 20
326.645227
 11
355.445489
 21
326.645227
  0
LINE
  5
92
100
AcDbEntity
  8
Layer_1
  6
ByLayer
 62
    5
370
   -1
100
AcDbLine
 10
355.445489
 20
326.645227
 11
354.387155
 21
326.645227
  0
SPLINE
  5
93
100
AcDbEntity
  8
Layer_1
  6
ByLayer
 62
    5
370
   -1
100
AcDbSpline
210
0
220
0
230
0
 70
    8
 71
    3
 72
   13
 73
    9
 74
    0
 42
1e-07
 43
1e-07
 40
0
 40
0
 40
0
 40
0
 40
5.0687
 40
17.092342
 40
33.451633
 40
49.810925
 40
61.834567
 40
66.903267
 40
66.903267
 40
66.903267
 40
66.903267
 10
355.445489
 20
269.495226
 30
0
 10
356.792114
 20
270.5189
 30
0
 10
361.333116
 20
273.970866
 30
0
 10
368.244326
 20
283.040884
 30
0
 10
372.092357
 20
298.070227
 30
0
 10
368.244326
 20
313.099569
 30
0
 10
361.333116
 20
322.169587
 30
0
 10
356.792114
 20
325.621553
 30
0
 10
355.445489
 20
326.645227
 30
0
  0
LINE
  5
94
100
AcDbEntity
  8
Layer_1
  6
ByLayer
 62
    5
370
   -1
100
AcDbLine
 10
354.387155
 20
269.495226
 11
355.445489
 21
269.495226
  0
SPLINE
  5
95
100
AcDbEntity
  8
Layer_1
  6
ByLayer
 62
    5
370
   -1
100
AcDbSpline
210
0
220
0
230
0
 70
    8
 71
    3
 72
   10
 73
    6
 74
    0
 42
1e-07
 43
1e-07
 40
0
 40
0
 40
0
 40
0
 40
22.483549
 40
43.269191
 40
66.32419899999999
 40
66.32419899999999
 40
66.32419899999999
 40
66.32419899999999
 10
354.387155
 20
326.645227
 30
0
 10
359.882154
 20
321.209396
 30
0
 10
370.457183
 20
310.748235
 30
0
 10
370.54858
 20
285.848148
 30
0
 10
359.95705
 20
275.131119
 30
0
 10
354.387155
 20
269.495226
 30
0
  0
ENDSEC
  0
SECTION
  2
OBJECTS
  0
DICTIONARY
  5
C
330
0
100
AcDbDictionary
281
    1
  3
ACAD_GROUP
350
D
  0
DICTIONARY
  5
D
330
C
100
AcDbDictionary
281
    1
  0
ENDSEC
  0
EOF
