  0
SECTION
  2
HEADER
  9
$ACADVER
  1
AC1014
  9
$HANDSEED
  5
FFFF
  9
$INSUNITS
 70
     4
  9
$MEASUREMENT
 70
     1
  0
ENDSEC
  0
SECTION
  2
TABLES
  0
TABLE
  2
VPORT
  5
8
330
0
100
AcDbSymbolTable
 70
     4
  0
VPORT
  5
2E
330
8
100
AcDbSymbolTableRecord
100
AcDbViewportTableRecord
  2
*ACTIVE
 70
     0
 10
0.0
 20
0.0
 11
1.0
 21
1.0
 12
210.0
 22
148.5
 13
0.0
 23
0.0
 14
10.0
 24
10.0
 15
10.0
 25
10.0
 16
0.0
 26
0.0
 36
1.0
 17
0.0
 27
0.0
 37
0.0
 40
341.0
 41
1.24
 42
50.0
 43
0.0
 44
0.0
 50
0.0
 51
0.0
 71
     0
 72
   100
 73
     1
 74
     3
 75
     0
 76
     0
 77
     0
 78
     0
  0
ENDTAB
  0
TABLE
  2
LTYPE
  5
5
330
0
100
AcDbSymbolTable
 70
     1
  0
LTYPE
  5
14
330
5
100
AcDbSymbolTableRecord
100
AcDbLinetypeTableRecord
  2
BYBLOCK
 70
     0
  3

 72
    65
 73
     0
 40
0.0
  0
LTYPE
  5
15
330
5
100
AcDbSymbolTableRecord
100
AcDbLinetypeTableRecord
  2
BYLAYER
 70
     0
  3

 72
    65
 73
     0
 40
0.0
  0
LTYPE
  5
16
330
5
100
AcDbSymbolTableRecord
100
AcDbLinetypeTableRecord
  2
CONTINUOUS
 70
     0
  3
Solid line
 72
    65
 73
     0
 40
0.0
  0
ENDTAB
  0
TABLE
  2
LAYER
  5
2
100
AcDbSymbolTable
 70
1
  0
LAYER
  5
50
100
AcDbSymbolTableRecord
100
AcDbLayerTableRecord
  2
0
 70
0
  6
CONTINUOUS
  0
ENDTAB
  0
TABLE
  2
STYLE
  5
3
330
0
100
AcDbSymbolTable
 70
     1
  0
STYLE
  5
11
330
3
100
AcDbSymbolTableRecord
100
AcDbTextStyleTableRecord
  2
STANDARD
 70
     0
 40
0.0
 41
1.0
 50
0.0
 71
     0
 42
2.5
  3
txt
  4

  0
ENDTAB
  0
TABLE
  2
VIEW
  5
6
330
0
100
AcDbSymbolTable
 70
     0
  0
ENDTAB
  0
TABLE
  2
UCS
  5
7
330
0
100
AcDbSymbolTable
 70
     0
  0
ENDTAB
  0
TABLE
  2
APPID
  5
9
330
0
100
AcDbSymbolTable
 70
     2
  0
APPID
  5
12
330
9
100
AcDbSymbolTableRecord
100
AcDbRegAppTableRecord
  2
ACAD
 70
     0
  0
ENDTAB
  0
TABLE
  2
DIMSTYLE
  5
A
330
0
100
AcDbSymbolTable
 70
     1
  0
DIMSTYLE
105
27
330
A
100
AcDbSymbolTableRecord
100
AcDbDimStyleTableRecord
  2
ISO-25
 70
     0
  3

  4

  5

  6

  7

 40
1.0
 41
2.5
 42
0.625
 43
3.75
 44
1.25
 45
0.0
 46
0.0
 47
0.0
 48
0.0
140
2.5
141
2.5
142
0.0
143
0.03937007874016
144
1.0
145
0.0
146
1.0
147
0.625
 71
     0
 72
     0
 73
     0
 74
     0
 75
     0
 76
     0
 77
     1
 78
     8
170
     0
171
     3
172
     1
173
     0
174
     0
175
     0
176
     0
177
     0
178
     0
270
     2
271
     2
272
     2
273
     2
274
     3
340
11
275
     0
280
     0
281
     0
282
     0
283
     0
284
     8
285
     0
286
     0
287
     3
288
     0
  0
ENDTAB
  0
TABLE
  2
BLOCK_RECORD
  5
1
330
0
100
AcDbSymbolTable
 70
     1
  0
BLOCK_RECORD
  5
1F
330
1
100
AcDbSymbolTableRecord
100
AcDbBlockTableRecord
  2
*MODEL_SPACE
  0
BLOCK_RECORD
  5
1B
330
1
100
AcDbSymbolTableRecord
100
AcDbBlockTableRecord
  2
*PAPER_SPACE
  0
ENDTAB
  0
ENDSEC
  0
SECTION
  2
BLOCKS
  0
BLOCK
  5
20
330
1F
100
AcDbEntity
  8
0
100
AcDbBlockBegin
  2
*MODEL_SPACE
 70
     0
 10
0.0
 20
0.0
 30
0.0
  3
*MODEL_SPACE
  1

  0
ENDBLK
  5
21
330
1F
100
AcDbEntity
  8
0
100
AcDbBlockEnd
  0
BLOCK
  5
1C
330
1B
100
AcDbEntity
 67
     1
  8
0
100
AcDbBlockBegin
  2
*PAPER_SPACE
  1

  0
ENDBLK
  5
1D
330
1B
100
AcDbEntity
 67
     1
  8
0
100
AcDbBlockEnd
  0
ENDSEC
  0
SECTION
  2
ENTITIES
  0
LINE
  5
100
100
AcDbEntity
  8
0
 62
7
100
AcDbLine
 10
95.264272
 20
78.126299
 30
0.0
 11
103.261758
 21
83.940086
 31
0.0
  0
LINE
  5
101
100
AcDbEntity
  8
0
 62
7
100
AcDbLine
 10
95.264272
 20
38.893816
 30
0.0
 11
95.264272
 21
78.126299
 31
0.0
  0
LINE
  5
102
100
AcDbEntity
  8
0
 62
7
100
AcDbLine
 10
103.261758
 20
33.080028
 30
0.0
 11
95.264272
 21
38.893816
 31
0.0
  0
LINE
  5
103
100
AcDbEntity
  8
0
 62
7
100
AcDbLine
 10
95.264272
 20
132.196640
 30
0.0
 11
103.261758
 21
134.796617
 31
0.0
  0
LINE
  5
104
100
AcDbEntity
  8
0
 62
7
100
AcDbLine
 10
95.264272
 20
89.750346
 30
0.0
 11
95.264272
 21
132.196640
 31
0.0
  0
LINE
  5
105
100
AcDbEntity
  8
0
 62
7
100
AcDbLine
 10
103.261758
 20
83.940086
 30
0.0
 11
95.264272
 21
89.750346
 31
0.0
  0
LINE
  5
106
100
AcDbEntity
  8
0
 62
7
100
AcDbLine
 10
54.892315
 20
201.372951
 30
0.0
 11
103.261758
 21
185.656675
 31
0.0
  0
LINE
  5
107
100
AcDbEntity
  8
0
 62
7
100
AcDbLine
 10
25.001403
 20
160.224882
 30
0.0
 11
54.892315
 21
201.372951
 31
0.0
  0
LINE
  5
108
100
AcDbEntity
  8
0
 62
7
100
AcDbLine
 10
54.892315
 20
119.080340
 30
0.0
 11
25.001403
 21
160.224882
 31
0.0
  0
LINE
  5
109
100
AcDbEntity
  8
0
 62
7
100
AcDbLine
 10
103.261758
 20
134.796617
 30
0.0
 11
54.892315
 21
119.080340
 31
0.0
  0
LINE
  5
10a
100
AcDbEntity
  8
0
 62
7
100
AcDbLine
 10
95.264272
 20
188.253124
 30
0.0
 11
103.261758
 21
185.656675
 31
0.0
  0
LINE
  5
10b
100
AcDbEntity
  8
0
 62
7
100
AcDbLine
 10
95.264272
 20
230.699418
 30
0.0
 11
95.264272
 21
188.253124
 31
0.0
  0
LINE
  5
10c
100
AcDbEntity
  8
0
 62
7
100
AcDbLine
 10
103.261758
 20
236.513205
 30
0.0
 11
95.264272
 21
230.699418
 31
0.0
  0
LINE
  5
10d
100
AcDbEntity
  8
0
 62
7
100
AcDbLine
 10
95.264272
 20
242.326993
 30
0.0
 11
103.261758
 21
236.513205
 31
0.0
  0
LINE
  5
10e
100
AcDbEntity
  8
0
 62
7
100
AcDbLine
 10
95.264272
 20
281.559476
 30
0.0
 11
95.264272
 21
242.326993
 31
0.0
  0
LINE
  5
10f
100
AcDbEntity
  8
0
 62
7
100
AcDbLine
 10
103.261758
 20
287.373263
 30
0.0
 11
95.264272
 21
281.559476
 31
0.0
  0
LINE
  5
110
100
AcDbEntity
  8
0
 62
7
100
AcDbLine
 10
104.672871
 20
25.082542
 30
0.0
 11
103.261758
 21
33.080028
 31
0.0
  0
LINE
  5
111
100
AcDbEntity
  8
0
 62
7
100
AcDbLine
 10
191.851463
 20
25.082542
 30
0.0
 11
104.672871
 21
25.082542
 31
0.0
  0
LINE
  5
112
100
AcDbEntity
  8
0
 62
7
100
AcDbLine
 10
193.262577
 20
33.080028
 30
0.0
 11
191.851463
 21
25.082542
 31
0.0
  0
LINE
  5
113
100
AcDbEntity
  8
0
 62
7
100
AcDbLine
 10
194.673690
 20
25.082542
 30
0.0
 11
193.262577
 21
33.080028
 31
0.0
  0
LINE
  5
114
100
AcDbEntity
  8
0
 62
7
100
AcDbLine
 10
226.850606
 20
25.082542
 30
0.0
 11
194.673690
 21
25.082542
 31
0.0
  0
LINE
  5
115
100
AcDbEntity
  8
0
 62
7
100
AcDbLine
 10
228.261719
 20
33.080028
 30
0.0
 11
226.850606
 21
25.082542
 31
0.0
  0
LINE
  5
116
100
AcDbEntity
  8
0
 62
7
100
AcDbLine
 10
228.261719
 20
287.373263
 30
0.0
 11
228.261719
 21
33.080028
 31
0.0
  0
LINE
  5
117
100
AcDbEntity
  8
0
 62
7
100
AcDbLine
 10
193.262577
 20
287.373263
 30
0.0
 11
228.261719
 21
287.373263
 31
0.0
  0
LINE
  5
118
100
AcDbEntity
  8
0
 62
7
100
AcDbLine
 10
103.261758
 20
287.373263
 30
0.0
 11
193.262577
 21
287.373263
 31
0.0
  0
LINE
  5
119
100
AcDbEntity
  8
0
 62
7
100
AcDbLine
 10
103.261758
 20
82.176194
 30
0.0
 11
103.261758
 21
80.429941
 31
0.0
  0
LINE
  5
11a
100
AcDbEntity
  8
0
 62
7
100
AcDbLine
 10
103.261758
 20
78.666050
 30
0.0
 11
103.261758
 21
76.923324
 31
0.0
  0
LINE
  5
11b
100
AcDbEntity
  8
0
 62
7
100
AcDbLine
 10
103.261758
 20
75.159433
 30
0.0
 11
103.261758
 21
73.413180
 31
0.0
  0
LINE
  5
11c
100
AcDbEntity
  8
0
 62
7
100
AcDbLine
 10
103.261758
 20
71.649288
 30
0.0
 11
103.261758
 21
69.906563
 31
0.0
  0
LINE
  5
11d
100
AcDbEntity
  8
0
 62
7
100
AcDbLine
 10
103.261758
 20
68.142671
 30
0.0
 11
103.261758
 21
66.399946
 31
0.0
  0
LINE
  5
11e
100
AcDbEntity
  8
0
 62
7
100
AcDbLine
 10
103.261758
 20
64.636054
 30
0.0
 11
103.261758
 21
62.889801
 31
0.0
  0
LINE
  5
11f
100
AcDbEntity
  8
0
 62
7
100
AcDbLine
 10
103.261758
 20
61.125909
 30
0.0
 11
103.261758
 21
59.383184
 31
0.0
  0
LINE
  5
120
100
AcDbEntity
  8
0
 62
7
100
AcDbLine
 10
103.261758
 20
57.619292
 30
0.0
 11
103.261758
 21
55.873039
 31
0.0
  0
LINE
  5
121
100
AcDbEntity
  8
0
 62
7
100
AcDbLine
 10
103.261758
 20
54.109147
 30
0.0
 11
103.261758
 21
52.366422
 31
0.0
  0
LINE
  5
122
100
AcDbEntity
  8
0
 62
7
100
AcDbLine
 10
103.261758
 20
50.602530
 30
0.0
 11
103.261758
 21
48.856277
 31
0.0
  0
LINE
  5
123
100
AcDbEntity
  8
0
 62
7
100
AcDbLine
 10
103.261758
 20
47.092385
 30
0.0
 11
103.261758
 21
45.349660
 31
0.0
  0
LINE
  5
124
100
AcDbEntity
  8
0
 62
7
100
AcDbLine
 10
103.261758
 20
43.585768
 30
0.0
 11
103.261758
 21
41.843043
 31
0.0
  0
LINE
  5
125
100
AcDbEntity
  8
0
 62
7
100
AcDbLine
 10
103.261758
 20
40.079151
 30
0.0
 11
103.261758
 21
38.332898
 31
0.0
  0
LINE
  5
126
100
AcDbEntity
  8
0
 62
7
100
AcDbLine
 10
103.261758
 20
36.569006
 30
0.0
 11
103.261758
 21
34.826281
 31
0.0
  0
LINE
  5
127
100
AcDbEntity
  8
0
 62
7
100
AcDbLine
 10
103.261758
 20
133.032725
 30
0.0
 11
103.261758
 21
131.290000
 31
0.0
  0
LINE
  5
128
100
AcDbEntity
  8
0
 62
7
100
AcDbLine
 10
103.261758
 20
129.526108
 30
0.0
 11
103.261758
 21
127.779855
 31
0.0
  0
LINE
  5
129
100
AcDbEntity
  8
0
 62
7
100
AcDbLine
 10
103.261758
 20
126.015963
 30
0.0
 11
103.261758
 21
124.273238
 31
0.0
  0
LINE
  5
12a
100
AcDbEntity
  8
0
 62
7
100
AcDbLine
 10
103.261758
 20
122.509346
 30
0.0
 11
103.261758
 21
120.763093
 31
0.0
  0
LINE
  5
12b
100
AcDbEntity
  8
0
 62
7
100
AcDbLine
 10
103.261758
 20
118.999201
 30
0.0
 11
103.261758
 21
117.256476
 31
0.0
  0
LINE
  5
12c
100
AcDbEntity
  8
0
 62
7
100
AcDbLine
 10
103.261758
 20
115.492584
 30
0.0
 11
103.261758
 21
113.749859
 31
0.0
  0
LINE
  5
12d
100
AcDbEntity
  8
0
 62
7
100
AcDbLine
 10
103.261758
 20
111.985967
 30
0.0
 11
103.261758
 21
110.239714
 31
0.0
  0
LINE
  5
12e
100
AcDbEntity
  8
0
 62
7
100
AcDbLine
 10
103.261758
 20
108.475822
 30
0.0
 11
103.261758
 21
106.733097
 31
0.0
  0
LINE
  5
12f
100
AcDbEntity
  8
0
 62
7
100
AcDbLine
 10
103.261758
 20
104.969205
 30
0.0
 11
103.261758
 21
103.222952
 31
0.0
  0
LINE
  5
130
100
AcDbEntity
  8
0
 62
7
100
AcDbLine
 10
103.261758
 20
101.459060
 30
0.0
 11
103.261758
 21
99.716335
 31
0.0
  0
LINE
  5
131
100
AcDbEntity
  8
0
 62
7
100
AcDbLine
 10
103.261758
 20
97.952443
 30
0.0
 11
103.261758
 21
96.206190
 31
0.0
  0
LINE
  5
132
100
AcDbEntity
  8
0
 62
7
100
AcDbLine
 10
103.261758
 20
94.442298
 30
0.0
 11
103.261758
 21
92.699573
 31
0.0
  0
LINE
  5
133
100
AcDbEntity
  8
0
 62
7
100
AcDbLine
 10
103.261758
 20
90.935681
 30
0.0
 11
103.261758
 21
89.192956
 31
0.0
  0
LINE
  5
134
100
AcDbEntity
  8
0
 62
7
100
AcDbLine
 10
103.261758
 20
87.429064
 30
0.0
 11
103.261758
 21
85.682811
 31
0.0
  0
LINE
  5
135
100
AcDbEntity
  8
0
 62
7
100
AcDbLine
 10
103.261758
 20
187.420567
 30
0.0
 11
103.261758
 21
189.163292
 31
0.0
  0
LINE
  5
136
100
AcDbEntity
  8
0
 62
7
100
AcDbLine
 10
103.261758
 20
190.927184
 30
0.0
 11
103.261758
 21
192.669909
 31
0.0
  0
LINE
  5
137
100
AcDbEntity
  8
0
 62
7
100
AcDbLine
 10
103.261758
 20
194.433801
 30
0.0
 11
103.261758
 21
196.180054
 31
0.0
  0
LINE
  5
138
100
AcDbEntity
  8
0
 62
7
100
AcDbLine
 10
103.261758
 20
197.943946
 30
0.0
 11
103.261758
 21
199.686671
 31
0.0
  0
LINE
  5
139
100
AcDbEntity
  8
0
 62
7
100
AcDbLine
 10
103.261758
 20
201.450563
 30
0.0
 11
103.261758
 21
203.196816
 31
0.0
  0
LINE
  5
13a
100
AcDbEntity
  8
0
 62
7
100
AcDbLine
 10
103.261758
 20
204.960707
 30
0.0
 11
103.261758
 21
206.703433
 31
0.0
  0
LINE
  5
13b
100
AcDbEntity
  8
0
 62
7
100
AcDbLine
 10
103.261758
 20
208.467325
 30
0.0
 11
103.261758
 21
210.213577
 31
0.0
  0
LINE
  5
13c
100
AcDbEntity
  8
0
 62
7
100
AcDbLine
 10
103.261758
 20
211.977469
 30
0.0
 11
103.261758
 21
213.720195
 31
0.0
  0
LINE
  5
13d
100
AcDbEntity
  8
0
 62
7
100
AcDbLine
 10
103.261758
 20
215.484086
 30
0.0
 11
103.261758
 21
217.226812
 31
0.0
  0
LINE
  5
13e
100
AcDbEntity
  8
0
 62
7
100
AcDbLine
 10
103.261758
 20
218.990703
 30
0.0
 11
103.261758
 21
220.736956
 31
0.0
  0
LINE
  5
13f
100
AcDbEntity
  8
0
 62
7
100
AcDbLine
 10
103.261758
 20
222.500848
 30
0.0
 11
103.261758
 21
224.243573
 31
0.0
  0
LINE
  5
140
100
AcDbEntity
  8
0
 62
7
100
AcDbLine
 10
103.261758
 20
226.007465
 30
0.0
 11
103.261758
 21
227.753718
 31
0.0
  0
LINE
  5
141
100
AcDbEntity
  8
0
 62
7
100
AcDbLine
 10
103.261758
 20
229.517610
 30
0.0
 11
103.261758
 21
231.260335
 31
0.0
  0
LINE
  5
142
100
AcDbEntity
  8
0
 62
7
100
AcDbLine
 10
103.261758
 20
233.024227
 30
0.0
 11
103.261758
 21
234.770480
 31
0.0
  0
LINE
  5
143
100
AcDbEntity
  8
0
 62
7
100
AcDbLine
 10
103.261758
 20
238.277097
 30
0.0
 11
103.261758
 21
240.019822
 31
0.0
  0
LINE
  5
144
100
AcDbEntity
  8
0
 62
7
100
AcDbLine
 10
103.261758
 20
241.783714
 30
0.0
 11
103.261758
 21
243.529967
 31
0.0
  0
LINE
  5
145
100
AcDbEntity
  8
0
 62
7
100
AcDbLine
 10
103.261758
 20
245.293859
 30
0.0
 11
103.261758
 21
247.036584
 31
0.0
  0
LINE
  5
146
100
AcDbEntity
  8
0
 62
7
100
AcDbLine
 10
103.261758
 20
248.800476
 30
0.0
 11
103.261758
 21
250.546729
 31
0.0
  0
LINE
  5
147
100
AcDbEntity
  8
0
 62
7
100
AcDbLine
 10
103.261758
 20
252.310621
 30
0.0
 11
103.261758
 21
254.053346
 31
0.0
  0
LINE
  5
148
100
AcDbEntity
  8
0
 62
7
100
AcDbLine
 10
103.261758
 20
255.817238
 30
0.0
 11
103.261758
 21
257.563491
 31
0.0
  0
LINE
  5
149
100
AcDbEntity
  8
0
 62
7
100
AcDbLine
 10
103.261758
 20
259.327383
 30
0.0
 11
103.261758
 21
261.070108
 31
0.0
  0
LINE
  5
14a
100
AcDbEntity
  8
0
 62
7
100
AcDbLine
 10
103.261758
 20
262.834000
 30
0.0
 11
103.261758
 21
264.580253
 31
0.0
  0
LINE
  5
14b
100
AcDbEntity
  8
0
 62
7
100
AcDbLine
 10
103.261758
 20
266.344145
 30
0.0
 11
103.261758
 21
268.086870
 31
0.0
  0
LINE
  5
14c
100
AcDbEntity
  8
0
 62
7
100
AcDbLine
 10
103.261758
 20
269.850762
 30
0.0
 11
103.261758
 21
271.593487
 31
0.0
  0
LINE
  5
14d
100
AcDbEntity
  8
0
 62
7
100
AcDbLine
 10
103.261758
 20
273.357379
 30
0.0
 11
103.261758
 21
275.103632
 31
0.0
  0
LINE
  5
14e
100
AcDbEntity
  8
0
 62
7
100
AcDbLine
 10
103.261758
 20
276.867523
 30
0.0
 11
103.261758
 21
278.610249
 31
0.0
  0
LINE
  5
14f
100
AcDbEntity
  8
0
 62
7
100
AcDbLine
 10
103.261758
 20
280.374141
 30
0.0
 11
103.261758
 21
282.120393
 31
0.0
  0
LINE
  5
150
100
AcDbEntity
  8
0
 62
7
100
AcDbLine
 10
103.261758
 20
283.884285
 30
0.0
 11
103.261758
 21
285.627010
 31
0.0
  0
LINE
  5
151
100
AcDbEntity
  8
0
 62
7
100
AcDbLine
 10
105.025650
 20
33.080028
 30
0.0
 11
106.662541
 21
33.080028
 31
0.0
  0
LINE
  5
152
100
AcDbEntity
  8
0
 62
7
100
AcDbLine
 10
108.426433
 20
33.080028
 30
0.0
 11
110.059797
 21
33.080028
 31
0.0
  0
LINE
  5
153
100
AcDbEntity
  8
0
 62
7
100
AcDbLine
 10
111.823689
 20
33.080028
 30
0.0
 11
113.457053
 21
33.080028
 31
0.0
  0
LINE
  5
154
100
AcDbEntity
  8
0
 62
7
100
AcDbLine
 10
115.220945
 20
33.080028
 30
0.0
 11
116.857836
 21
33.080028
 31
0.0
  0
LINE
  5
155
100
AcDbEntity
  8
0
 62
7
100
AcDbLine
 10
118.621728
 20
33.080028
 30
0.0
 11
120.255092
 21
33.080028
 31
0.0
  0
LINE
  5
156
100
AcDbEntity
  8
0
 62
7
100
AcDbLine
 10
122.018984
 20
33.080028
 30
0.0
 11
123.655876
 21
33.080028
 31
0.0
  0
LINE
  5
157
100
AcDbEntity
  8
0
 62
7
100
AcDbLine
 10
125.419768
 20
33.080028
 30
0.0
 11
127.053131
 21
33.080028
 31
0.0
  0
LINE
  5
158
100
AcDbEntity
  8
0
 62
7
100
AcDbLine
 10
128.817023
 20
33.080028
 30
0.0
 11
130.450387
 21
33.080028
 31
0.0
  0
LINE
  5
159
100
AcDbEntity
  8
0
 62
7
100
AcDbLine
 10
132.214279
 20
33.080028
 30
0.0
 11
133.851171
 21
33.080028
 31
0.0
  0
LINE
  5
15a
100
AcDbEntity
  8
0
 62
7
100
AcDbLine
 10
135.615063
 20
33.080028
 30
0.0
 11
137.248426
 21
33.080028
 31
0.0
  0
LINE
  5
15b
100
AcDbEntity
  8
0
 62
7
100
AcDbLine
 10
139.012318
 20
33.080028
 30
0.0
 11
140.649210
 21
33.080028
 31
0.0
  0
LINE
  5
15c
100
AcDbEntity
  8
0
 62
7
100
AcDbLine
 10
142.413102
 20
33.080028
 30
0.0
 11
144.046466
 21
33.080028
 31
0.0
  0
LINE
  5
15d
100
AcDbEntity
  8
0
 62
7
100
AcDbLine
 10
145.810358
 20
33.080028
 30
0.0
 11
147.443721
 21
33.080028
 31
0.0
  0
LINE
  5
15e
100
AcDbEntity
  8
0
 62
7
100
AcDbLine
 10
149.207613
 20
33.080028
 30
0.0
 11
150.844505
 21
33.080028
 31
0.0
  0
LINE
  5
15f
100
AcDbEntity
  8
0
 62
7
100
AcDbLine
 10
152.608397
 20
33.080028
 30
0.0
 11
154.241761
 21
33.080028
 31
0.0
  0
LINE
  5
160
100
AcDbEntity
  8
0
 62
7
100
AcDbLine
 10
156.005653
 20
33.080028
 30
0.0
 11
157.642544
 21
33.080028
 31
0.0
  0
LINE
  5
161
100
AcDbEntity
  8
0
 62
7
100
AcDbLine
 10
159.406436
 20
33.080028
 30
0.0
 11
161.039800
 21
33.080028
 31
0.0
  0
LINE
  5
162
100
AcDbEntity
  8
0
 62
7
100
AcDbLine
 10
162.803692
 20
33.080028
 30
0.0
 11
164.437056
 21
33.080028
 31
0.0
  0
LINE
  5
163
100
AcDbEntity
  8
0
 62
7
100
AcDbLine
 10
166.200948
 20
33.080028
 30
0.0
 11
167.837839
 21
33.080028
 31
0.0
  0
LINE
  5
164
100
AcDbEntity
  8
0
 62
7
100
AcDbLine
 10
169.601731
 20
33.080028
 30
0.0
 11
171.235095
 21
33.080028
 31
0.0
  0
LINE
  5
165
100
AcDbEntity
  8
0
 62
7
100
AcDbLine
 10
172.998987
 20
33.080028
 30
0.0
 11
174.635878
 21
33.080028
 31
0.0
  0
LINE
  5
166
100
AcDbEntity
  8
0
 62
7
100
AcDbLine
 10
176.399770
 20
33.080028
 30
0.0
 11
178.033134
 21
33.080028
 31
0.0
  0
LINE
  5
167
100
AcDbEntity
  8
0
 62
7
100
AcDbLine
 10
179.797026
 20
33.080028
 30
0.0
 11
181.430390
 21
33.080028
 31
0.0
  0
LINE
  5
168
100
AcDbEntity
  8
0
 62
7
100
AcDbLine
 10
183.194282
 20
33.080028
 30
0.0
 11
184.831173
 21
33.080028
 31
0.0
  0
LINE
  5
169
100
AcDbEntity
  8
0
 62
7
100
AcDbLine
 10
186.595065
 20
33.080028
 30
0.0
 11
188.228429
 21
33.080028
 31
0.0
  0
LINE
  5
16a
100
AcDbEntity
  8
0
 62
7
100
AcDbLine
 10
189.992321
 20
33.080028
 30
0.0
 11
191.629213
 21
33.080028
 31
0.0
  0
LINE
  5
16b
100
AcDbEntity
  8
0
 62
7
100
AcDbLine
 10
195.026468
 20
33.080028
 30
0.0
 11
196.603388
 21
33.080028
 31
0.0
  0
LINE
  5
16c
100
AcDbEntity
  8
0
 62
7
100
AcDbLine
 10
198.367280
 20
33.080028
 30
0.0
 11
199.947727
 21
33.080028
 31
0.0
  0
LINE
  5
16d
100
AcDbEntity
  8
0
 62
7
100
AcDbLine
 10
201.711619
 20
33.080028
 30
0.0
 11
203.288538
 21
33.080028
 31
0.0
  0
LINE
  5
16e
100
AcDbEntity
  8
0
 62
7
100
AcDbLine
 10
205.052430
 20
33.080028
 30
0.0
 11
206.632877
 21
33.080028
 31
0.0
  0
LINE
  5
16f
100
AcDbEntity
  8
0
 62
7
100
AcDbLine
 10
208.396769
 20
33.080028
 30
0.0
 11
209.973688
 21
33.080028
 31
0.0
  0
LINE
  5
170
100
AcDbEntity
  8
0
 62
7
100
AcDbLine
 10
211.737580
 20
33.080028
 30
0.0
 11
213.314499
 21
33.080028
 31
0.0
  0
LINE
  5
171
100
AcDbEntity
  8
0
 62
7
100
AcDbLine
 10
215.078391
 20
33.080028
 30
0.0
 11
216.658838
 21
33.080028
 31
0.0
  0
LINE
  5
172
100
AcDbEntity
  8
0
 62
7
100
AcDbLine
 10
218.422730
 20
33.080028
 30
0.0
 11
219.999650
 21
33.080028
 31
0.0
  0
LINE
  5
173
100
AcDbEntity
  8
0
 62
7
100
AcDbLine
 10
221.763541
 20
33.080028
 30
0.0
 11
223.343989
 21
33.080028
 31
0.0
  0
LINE
  5
174
100
AcDbEntity
  8
0
 62
7
100
AcDbLine
 10
225.107880
 20
33.080028
 30
0.0
 11
226.684800
 21
33.080028
 31
0.0
  0
LINE
  5
175
100
AcDbEntity
  8
0
 62
7
100
AcDbLine
 10
103.261758
 20
136.560509
 30
0.0
 11
103.261758
 21
138.306762
 31
0.0
  0
LINE
  5
176
100
AcDbEntity
  8
0
 62
7
100
AcDbLine
 10
103.261758
 20
140.070653
 30
0.0
 11
103.261758
 21
141.813379
 31
0.0
  0
LINE
  5
177
100
AcDbEntity
  8
0
 62
7
100
AcDbLine
 10
103.261758
 20
143.577270
 30
0.0
 11
103.261758
 21
145.319996
 31
0.0
  0
LINE
  5
178
100
AcDbEntity
  8
0
 62
7
100
AcDbLine
 10
103.261758
 20
147.083887
 30
0.0
 11
103.261758
 21
148.830140
 31
0.0
  0
LINE
  5
179
100
AcDbEntity
  8
0
 62
7
100
AcDbLine
 10
103.261758
 20
150.594032
 30
0.0
 11
103.261758
 21
152.336757
 31
0.0
  0
LINE
  5
17a
100
AcDbEntity
  8
0
 62
7
100
AcDbLine
 10
103.261758
 20
154.100649
 30
0.0
 11
103.261758
 21
155.846902
 31
0.0
  0
LINE
  5
17b
100
AcDbEntity
  8
0
 62
7
100
AcDbLine
 10
103.261758
 20
157.610794
 30
0.0
 11
103.261758
 21
159.353519
 31
0.0
  0
LINE
  5
17c
100
AcDbEntity
  8
0
 62
7
100
AcDbLine
 10
103.261758
 20
161.117411
 30
0.0
 11
103.261758
 21
162.863664
 31
0.0
  0
LINE
  5
17d
100
AcDbEntity
  8
0
 62
7
100
AcDbLine
 10
103.261758
 20
164.627556
 30
0.0
 11
103.261758
 21
166.370281
 31
0.0
  0
LINE
  5
17e
100
AcDbEntity
  8
0
 62
7
100
AcDbLine
 10
103.261758
 20
168.134173
 30
0.0
 11
103.261758
 21
169.876898
 31
0.0
  0
LINE
  5
17f
100
AcDbEntity
  8
0
 62
7
100
AcDbLine
 10
103.261758
 20
171.640790
 30
0.0
 11
103.261758
 21
173.387043
 31
0.0
  0
LINE
  5
180
100
AcDbEntity
  8
0
 62
7
100
AcDbLine
 10
103.261758
 20
175.150935
 30
0.0
 11
103.261758
 21
176.893660
 31
0.0
  0
LINE
  5
181
100
AcDbEntity
  8
0
 62
7
100
AcDbLine
 10
103.261758
 20
178.657552
 30
0.0
 11
103.261758
 21
180.403805
 31
0.0
  0
LINE
  5
182
100
AcDbEntity
  8
0
 62
7
100
AcDbLine
 10
103.261758
 20
182.167697
 30
0.0
 11
103.261758
 21
183.910422
 31
0.0
  0
LINE
  5
183
100
AcDbEntity
  8
0
 62
7
100
AcDbLine
 10
105.025650
 20
83.940086
 30
0.0
 11
106.662541
 21
83.940086
 31
0.0
  0
LINE
  5
184
100
AcDbEntity
  8
0
 62
7
100
AcDbLine
 10
108.426433
 20
83.940086
 30
0.0
 11
110.059797
 21
83.940086
 31
0.0
  0
LINE
  5
185
100
AcDbEntity
  8
0
 62
7
100
AcDbLine
 10
111.823689
 20
83.940086
 30
0.0
 11
113.457053
 21
83.940086
 31
0.0
  0
LINE
  5
186
100
AcDbEntity
  8
0
 62
7
100
AcDbLine
 10
115.220945
 20
83.940086
 30
0.0
 11
116.857836
 21
83.940086
 31
0.0
  0
LINE
  5
187
100
AcDbEntity
  8
0
 62
7
100
AcDbLine
 10
118.621728
 20
83.940086
 30
0.0
 11
120.255092
 21
83.940086
 31
0.0
  0
LINE
  5
188
100
AcDbEntity
  8
0
 62
7
100
AcDbLine
 10
122.018984
 20
83.940086
 30
0.0
 11
123.655876
 21
83.940086
 31
0.0
  0
LINE
  5
189
100
AcDbEntity
  8
0
 62
7
100
AcDbLine
 10
125.419768
 20
83.940086
 30
0.0
 11
127.053131
 21
83.940086
 31
0.0
  0
LINE
  5
18a
100
AcDbEntity
  8
0
 62
7
100
AcDbLine
 10
128.817023
 20
83.940086
 30
0.0
 11
130.450387
 21
83.940086
 31
0.0
  0
LINE
  5
18b
100
AcDbEntity
  8
0
 62
7
100
AcDbLine
 10
132.214279
 20
83.940086
 30
0.0
 11
133.851171
 21
83.940086
 31
0.0
  0
LINE
  5
18c
100
AcDbEntity
  8
0
 62
7
100
AcDbLine
 10
135.615063
 20
83.940086
 30
0.0
 11
137.248426
 21
83.940086
 31
0.0
  0
LINE
  5
18d
100
AcDbEntity
  8
0
 62
7
100
AcDbLine
 10
139.012318
 20
83.940086
 30
0.0
 11
140.649210
 21
83.940086
 31
0.0
  0
LINE
  5
18e
100
AcDbEntity
  8
0
 62
7
100
AcDbLine
 10
142.413102
 20
83.940086
 30
0.0
 11
144.046466
 21
83.940086
 31
0.0
  0
LINE
  5
18f
100
AcDbEntity
  8
0
 62
7
100
AcDbLine
 10
145.810358
 20
83.940086
 30
0.0
 11
147.443721
 21
83.940086
 31
0.0
  0
LINE
  5
190
100
AcDbEntity
  8
0
 62
7
100
AcDbLine
 10
149.207613
 20
83.940086
 30
0.0
 11
150.844505
 21
83.940086
 31
0.0
  0
LINE
  5
191
100
AcDbEntity
  8
0
 62
7
100
AcDbLine
 10
152.608397
 20
83.940086
 30
0.0
 11
154.241761
 21
83.940086
 31
0.0
  0
LINE
  5
192
100
AcDbEntity
  8
0
 62
7
100
AcDbLine
 10
156.005653
 20
83.940086
 30
0.0
 11
157.642544
 21
83.940086
 31
0.0
  0
LINE
  5
193
100
AcDbEntity
  8
0
 62
7
100
AcDbLine
 10
159.406436
 20
83.940086
 30
0.0
 11
161.039800
 21
83.940086
 31
0.0
  0
LINE
  5
194
100
AcDbEntity
  8
0
 62
7
100
AcDbLine
 10
162.803692
 20
83.940086
 30
0.0
 11
164.437056
 21
83.940086
 31
0.0
  0
LINE
  5
195
100
AcDbEntity
  8
0
 62
7
100
AcDbLine
 10
166.200948
 20
83.940086
 30
0.0
 11
167.837839
 21
83.940086
 31
0.0
  0
LINE
  5
196
100
AcDbEntity
  8
0
 62
7
100
AcDbLine
 10
169.601731
 20
83.940086
 30
0.0
 11
171.235095
 21
83.940086
 31
0.0
  0
LINE
  5
197
100
AcDbEntity
  8
0
 62
7
100
AcDbLine
 10
172.998987
 20
83.940086
 30
0.0
 11
174.635878
 21
83.940086
 31
0.0
  0
LINE
  5
198
100
AcDbEntity
  8
0
 62
7
100
AcDbLine
 10
176.399770
 20
83.940086
 30
0.0
 11
178.033134
 21
83.940086
 31
0.0
  0
LINE
  5
199
100
AcDbEntity
  8
0
 62
7
100
AcDbLine
 10
179.797026
 20
83.940086
 30
0.0
 11
181.430390
 21
83.940086
 31
0.0
  0
LINE
  5
19a
100
AcDbEntity
  8
0
 62
7
100
AcDbLine
 10
183.194282
 20
83.940086
 30
0.0
 11
184.831173
 21
83.940086
 31
0.0
  0
LINE
  5
19b
100
AcDbEntity
  8
0
 62
7
100
AcDbLine
 10
186.595065
 20
83.940086
 30
0.0
 11
188.228429
 21
83.940086
 31
0.0
  0
LINE
  5
19c
100
AcDbEntity
  8
0
 62
7
100
AcDbLine
 10
189.992321
 20
83.940086
 30
0.0
 11
191.629213
 21
83.940086
 31
0.0
  0
LINE
  5
19d
100
AcDbEntity
  8
0
 62
7
100
AcDbLine
 10
105.025650
 20
134.796617
 30
0.0
 11
106.662541
 21
134.796617
 31
0.0
  0
LINE
  5
19e
100
AcDbEntity
  8
0
 62
7
100
AcDbLine
 10
108.426433
 20
134.796617
 30
0.0
 11
110.059797
 21
134.796617
 31
0.0
  0
LINE
  5
19f
100
AcDbEntity
  8
0
 62
7
100
AcDbLine
 10
111.823689
 20
134.796617
 30
0.0
 11
113.457053
 21
134.796617
 31
0.0
  0
LINE
  5
1a0
100
AcDbEntity
  8
0
 62
7
100
AcDbLine
 10
115.220945
 20
134.796617
 30
0.0
 11
116.857836
 21
134.796617
 31
0.0
  0
LINE
  5
1a1
100
AcDbEntity
  8
0
 62
7
100
AcDbLine
 10
118.621728
 20
134.796617
 30
0.0
 11
120.255092
 21
134.796617
 31
0.0
  0
LINE
  5
1a2
100
AcDbEntity
  8
0
 62
7
100
AcDbLine
 10
122.018984
 20
134.796617
 30
0.0
 11
123.655876
 21
134.796617
 31
0.0
  0
LINE
  5
1a3
100
AcDbEntity
  8
0
 62
7
100
AcDbLine
 10
125.419768
 20
134.796617
 30
0.0
 11
127.053131
 21
134.796617
 31
0.0
  0
LINE
  5
1a4
100
AcDbEntity
  8
0
 62
7
100
AcDbLine
 10
128.817023
 20
134.796617
 30
0.0
 11
130.450387
 21
134.796617
 31
0.0
  0
LINE
  5
1a5
100
AcDbEntity
  8
0
 62
7
100
AcDbLine
 10
132.214279
 20
134.796617
 30
0.0
 11
133.851171
 21
134.796617
 31
0.0
  0
LINE
  5
1a6
100
AcDbEntity
  8
0
 62
7
100
AcDbLine
 10
135.615063
 20
134.796617
 30
0.0
 11
137.248426
 21
134.796617
 31
0.0
  0
LINE
  5
1a7
100
AcDbEntity
  8
0
 62
7
100
AcDbLine
 10
139.012318
 20
134.796617
 30
0.0
 11
140.649210
 21
134.796617
 31
0.0
  0
LINE
  5
1a8
100
AcDbEntity
  8
0
 62
7
100
AcDbLine
 10
142.413102
 20
134.796617
 30
0.0
 11
144.046466
 21
134.796617
 31
0.0
  0
LINE
  5
1a9
100
AcDbEntity
  8
0
 62
7
100
AcDbLine
 10
145.810358
 20
134.796617
 30
0.0
 11
147.443721
 21
134.796617
 31
0.0
  0
LINE
  5
1aa
100
AcDbEntity
  8
0
 62
7
100
AcDbLine
 10
149.207613
 20
134.796617
 30
0.0
 11
150.844505
 21
134.796617
 31
0.0
  0
LINE
  5
1ab
100
AcDbEntity
  8
0
 62
7
100
AcDbLine
 10
152.608397
 20
134.796617
 30
0.0
 11
154.241761
 21
134.796617
 31
0.0
  0
LINE
  5
1ac
100
AcDbEntity
  8
0
 62
7
100
AcDbLine
 10
156.005653
 20
134.796617
 30
0.0
 11
157.642544
 21
134.796617
 31
0.0
  0
LINE
  5
1ad
100
AcDbEntity
  8
0
 62
7
100
AcDbLine
 10
159.406436
 20
134.796617
 30
0.0
 11
161.039800
 21
134.796617
 31
0.0
  0
LINE
  5
1ae
100
AcDbEntity
  8
0
 62
7
100
AcDbLine
 10
162.803692
 20
134.796617
 30
0.0
 11
164.437056
 21
134.796617
 31
0.0
  0
LINE
  5
1af
100
AcDbEntity
  8
0
 62
7
100
AcDbLine
 10
166.200948
 20
134.796617
 30
0.0
 11
167.837839
 21
134.796617
 31
0.0
  0
LINE
  5
1b0
100
AcDbEntity
  8
0
 62
7
100
AcDbLine
 10
169.601731
 20
134.796617
 30
0.0
 11
171.235095
 21
134.796617
 31
0.0
  0
LINE
  5
1b1
100
AcDbEntity
  8
0
 62
7
100
AcDbLine
 10
172.998987
 20
134.796617
 30
0.0
 11
174.635878
 21
134.796617
 31
0.0
  0
LINE
  5
1b2
100
AcDbEntity
  8
0
 62
7
100
AcDbLine
 10
176.399770
 20
134.796617
 30
0.0
 11
178.033134
 21
134.796617
 31
0.0
  0
LINE
  5
1b3
100
AcDbEntity
  8
0
 62
7
100
AcDbLine
 10
179.797026
 20
134.796617
 30
0.0
 11
181.430390
 21
134.796617
 31
0.0
  0
LINE
  5
1b4
100
AcDbEntity
  8
0
 62
7
100
AcDbLine
 10
183.194282
 20
134.796617
 30
0.0
 11
184.831173
 21
134.796617
 31
0.0
  0
LINE
  5
1b5
100
AcDbEntity
  8
0
 62
7
100
AcDbLine
 10
186.595065
 20
134.796617
 30
0.0
 11
188.228429
 21
134.796617
 31
0.0
  0
LINE
  5
1b6
100
AcDbEntity
  8
0
 62
7
100
AcDbLine
 10
189.992321
 20
134.796617
 30
0.0
 11
191.629213
 21
134.796617
 31
0.0
  0
LINE
  5
1b7
100
AcDbEntity
  8
0
 62
7
100
AcDbLine
 10
105.025650
 20
185.656675
 30
0.0
 11
106.662541
 21
185.656675
 31
0.0
  0
LINE
  5
1b8
100
AcDbEntity
  8
0
 62
7
100
AcDbLine
 10
108.426433
 20
185.656675
 30
0.0
 11
110.059797
 21
185.656675
 31
0.0
  0
LINE
  5
1b9
100
AcDbEntity
  8
0
 62
7
100
AcDbLine
 10
111.823689
 20
185.656675
 30
0.0
 11
113.457053
 21
185.656675
 31
0.0
  0
LINE
  5
1ba
100
AcDbEntity
  8
0
 62
7
100
AcDbLine
 10
115.220945
 20
185.656675
 30
0.0
 11
116.857836
 21
185.656675
 31
0.0
  0
LINE
  5
1bb
100
AcDbEntity
  8
0
 62
7
100
AcDbLine
 10
118.621728
 20
185.656675
 30
0.0
 11
120.255092
 21
185.656675
 31
0.0
  0
LINE
  5
1bc
100
AcDbEntity
  8
0
 62
7
100
AcDbLine
 10
122.018984
 20
185.656675
 30
0.0
 11
123.655876
 21
185.656675
 31
0.0
  0
LINE
  5
1bd
100
AcDbEntity
  8
0
 62
7
100
AcDbLine
 10
125.419768
 20
185.656675
 30
0.0
 11
127.053131
 21
185.656675
 31
0.0
  0
LINE
  5
1be
100
AcDbEntity
  8
0
 62
7
100
AcDbLine
 10
128.817023
 20
185.656675
 30
0.0
 11
130.450387
 21
185.656675
 31
0.0
  0
LINE
  5
1bf
100
AcDbEntity
  8
0
 62
7
100
AcDbLine
 10
132.214279
 20
185.656675
 30
0.0
 11
133.851171
 21
185.656675
 31
0.0
  0
LINE
  5
1c0
100
AcDbEntity
  8
0
 62
7
100
AcDbLine
 10
135.615063
 20
185.656675
 30
0.0
 11
137.248426
 21
185.656675
 31
0.0
  0
LINE
  5
1c1
100
AcDbEntity
  8
0
 62
7
100
AcDbLine
 10
139.012318
 20
185.656675
 30
0.0
 11
140.649210
 21
185.656675
 31
0.0
  0
LINE
  5
1c2
100
AcDbEntity
  8
0
 62
7
100
AcDbLine
 10
142.413102
 20
185.656675
 30
0.0
 11
144.046466
 21
185.656675
 31
0.0
  0
LINE
  5
1c3
100
AcDbEntity
  8
0
 62
7
100
AcDbLine
 10
145.810358
 20
185.656675
 30
0.0
 11
147.443721
 21
185.656675
 31
0.0
  0
LINE
  5
1c4
100
AcDbEntity
  8
0
 62
7
100
AcDbLine
 10
149.207613
 20
185.656675
 30
0.0
 11
150.844505
 21
185.656675
 31
0.0
  0
LINE
  5
1c5
100
AcDbEntity
  8
0
 62
7
100
AcDbLine
 10
152.608397
 20
185.656675
 30
0.0
 11
154.241761
 21
185.656675
 31
0.0
  0
LINE
  5
1c6
100
AcDbEntity
  8
0
 62
7
100
AcDbLine
 10
156.005653
 20
185.656675
 30
0.0
 11
157.642544
 21
185.656675
 31
0.0
  0
LINE
  5
1c7
100
AcDbEntity
  8
0
 62
7
100
AcDbLine
 10
159.406436
 20
185.656675
 30
0.0
 11
161.039800
 21
185.656675
 31
0.0
  0
LINE
  5
1c8
100
AcDbEntity
  8
0
 62
7
100
AcDbLine
 10
162.803692
 20
185.656675
 30
0.0
 11
164.437056
 21
185.656675
 31
0.0
  0
LINE
  5
1c9
100
AcDbEntity
  8
0
 62
7
100
AcDbLine
 10
166.200948
 20
185.656675
 30
0.0
 11
167.837839
 21
185.656675
 31
0.0
  0
LINE
  5
1ca
100
AcDbEntity
  8
0
 62
7
100
AcDbLine
 10
169.601731
 20
185.656675
 30
0.0
 11
171.235095
 21
185.656675
 31
0.0
  0
LINE
  5
1cb
100
AcDbEntity
  8
0
 62
7
100
AcDbLine
 10
172.998987
 20
185.656675
 30
0.0
 11
174.635878
 21
185.656675
 31
0.0
  0
LINE
  5
1cc
100
AcDbEntity
  8
0
 62
7
100
AcDbLine
 10
176.399770
 20
185.656675
 30
0.0
 11
178.033134
 21
185.656675
 31
0.0
  0
LINE
  5
1cd
100
AcDbEntity
  8
0
 62
7
100
AcDbLine
 10
179.797026
 20
185.656675
 30
0.0
 11
181.430390
 21
185.656675
 31
0.0
  0
LINE
  5
1ce
100
AcDbEntity
  8
0
 62
7
100
AcDbLine
 10
183.194282
 20
185.656675
 30
0.0
 11
184.831173
 21
185.656675
 31
0.0
  0
LINE
  5
1cf
100
AcDbEntity
  8
0
 62
7
100
AcDbLine
 10
186.595065
 20
185.656675
 30
0.0
 11
188.228429
 21
185.656675
 31
0.0
  0
LINE
  5
1d0
100
AcDbEntity
  8
0
 62
7
100
AcDbLine
 10
189.992321
 20
185.656675
 30
0.0
 11
191.629213
 21
185.656675
 31
0.0
  0
LINE
  5
1d1
100
AcDbEntity
  8
0
 62
7
100
AcDbLine
 10
105.025650
 20
236.513205
 30
0.0
 11
106.662541
 21
236.513205
 31
0.0
  0
LINE
  5
1d2
100
AcDbEntity
  8
0
 62
7
100
AcDbLine
 10
108.426433
 20
236.513205
 30
0.0
 11
110.059797
 21
236.513205
 31
0.0
  0
LINE
  5
1d3
100
AcDbEntity
  8
0
 62
7
100
AcDbLine
 10
111.823689
 20
236.513205
 30
0.0
 11
113.457053
 21
236.513205
 31
0.0
  0
LINE
  5
1d4
100
AcDbEntity
  8
0
 62
7
100
AcDbLine
 10
115.220945
 20
236.513205
 30
0.0
 11
116.857836
 21
236.513205
 31
0.0
  0
LINE
  5
1d5
100
AcDbEntity
  8
0
 62
7
100
AcDbLine
 10
118.621728
 20
236.513205
 30
0.0
 11
120.255092
 21
236.513205
 31
0.0
  0
LINE
  5
1d6
100
AcDbEntity
  8
0
 62
7
100
AcDbLine
 10
122.018984
 20
236.513205
 30
0.0
 11
123.655876
 21
236.513205
 31
0.0
  0
LINE
  5
1d7
100
AcDbEntity
  8
0
 62
7
100
AcDbLine
 10
125.419768
 20
236.513205
 30
0.0
 11
127.053131
 21
236.513205
 31
0.0
  0
LINE
  5
1d8
100
AcDbEntity
  8
0
 62
7
100
AcDbLine
 10
128.817023
 20
236.513205
 30
0.0
 11
130.450387
 21
236.513205
 31
0.0
  0
LINE
  5
1d9
100
AcDbEntity
  8
0
 62
7
100
AcDbLine
 10
132.214279
 20
236.513205
 30
0.0
 11
133.851171
 21
236.513205
 31
0.0
  0
LINE
  5
1da
100
AcDbEntity
  8
0
 62
7
100
AcDbLine
 10
135.615063
 20
236.513205
 30
0.0
 11
137.248426
 21
236.513205
 31
0.0
  0
LINE
  5
1db
100
AcDbEntity
  8
0
 62
7
100
AcDbLine
 10
139.012318
 20
236.513205
 30
0.0
 11
140.649210
 21
236.513205
 31
0.0
  0
LINE
  5
1dc
100
AcDbEntity
  8
0
 62
7
100
AcDbLine
 10
142.413102
 20
236.513205
 30
0.0
 11
144.046466
 21
236.513205
 31
0.0
  0
LINE
  5
1dd
100
AcDbEntity
  8
0
 62
7
100
AcDbLine
 10
145.810358
 20
236.513205
 30
0.0
 11
147.443721
 21
236.513205
 31
0.0
  0
LINE
  5
1de
100
AcDbEntity
  8
0
 62
7
100
AcDbLine
 10
149.207613
 20
236.513205
 30
0.0
 11
150.844505
 21
236.513205
 31
0.0
  0
LINE
  5
1df
100
AcDbEntity
  8
0
 62
7
100
AcDbLine
 10
152.608397
 20
236.513205
 30
0.0
 11
154.241761
 21
236.513205
 31
0.0
  0
LINE
  5
1e0
100
AcDbEntity
  8
0
 62
7
100
AcDbLine
 10
156.005653
 20
236.513205
 30
0.0
 11
157.642544
 21
236.513205
 31
0.0
  0
LINE
  5
1e1
100
AcDbEntity
  8
0
 62
7
100
AcDbLine
 10
159.406436
 20
236.513205
 30
0.0
 11
161.039800
 21
236.513205
 31
0.0
  0
LINE
  5
1e2
100
AcDbEntity
  8
0
 62
7
100
AcDbLine
 10
162.803692
 20
236.513205
 30
0.0
 11
164.437056
 21
236.513205
 31
0.0
  0
LINE
  5
1e3
100
AcDbEntity
  8
0
 62
7
100
AcDbLine
 10
166.200948
 20
236.513205
 30
0.0
 11
167.837839
 21
236.513205
 31
0.0
  0
LINE
  5
1e4
100
AcDbEntity
  8
0
 62
7
100
AcDbLine
 10
169.601731
 20
236.513205
 30
0.0
 11
171.235095
 21
236.513205
 31
0.0
  0
LINE
  5
1e5
100
AcDbEntity
  8
0
 62
7
100
AcDbLine
 10
172.998987
 20
236.513205
 30
0.0
 11
174.635878
 21
236.513205
 31
0.0
  0
LINE
  5
1e6
100
AcDbEntity
  8
0
 62
7
100
AcDbLine
 10
176.399770
 20
236.513205
 30
0.0
 11
178.033134
 21
236.513205
 31
0.0
  0
LINE
  5
1e7
100
AcDbEntity
  8
0
 62
7
100
AcDbLine
 10
179.797026
 20
236.513205
 30
0.0
 11
181.430390
 21
236.513205
 31
0.0
  0
LINE
  5
1e8
100
AcDbEntity
  8
0
 62
7
100
AcDbLine
 10
183.194282
 20
236.513205
 30
0.0
 11
184.831173
 21
236.513205
 31
0.0
  0
LINE
  5
1e9
100
AcDbEntity
  8
0
 62
7
100
AcDbLine
 10
186.595065
 20
236.513205
 30
0.0
 11
188.228429
 21
236.513205
 31
0.0
  0
LINE
  5
1ea
100
AcDbEntity
  8
0
 62
7
100
AcDbLine
 10
189.992321
 20
236.513205
 30
0.0
 11
191.629213
 21
236.513205
 31
0.0
  0
LINE
  5
1eb
100
AcDbEntity
  8
0
 62
7
100
AcDbLine
 10
193.262577
 20
35.623560
 30
0.0
 11
193.262577
 21
38.117703
 31
0.0
  0
LINE
  5
1ec
100
AcDbEntity
  8
0
 62
7
100
AcDbLine
 10
193.262577
 20
40.661235
 30
0.0
 11
193.262577
 21
43.151851
 31
0.0
  0
LINE
  5
1ed
100
AcDbEntity
  8
0
 62
7
100
AcDbLine
 10
193.262577
 20
45.695383
 30
0.0
 11
193.262577
 21
48.189526
 31
0.0
  0
LINE
  5
1ee
100
AcDbEntity
  8
0
 62
7
100
AcDbLine
 10
193.262577
 20
50.733058
 30
0.0
 11
193.262577
 21
53.223673
 31
0.0
  0
LINE
  5
1ef
100
AcDbEntity
  8
0
 62
7
100
AcDbLine
 10
193.262577
 20
55.767205
 30
0.0
 11
193.262577
 21
58.261348
 31
0.0
  0
LINE
  5
1f0
100
AcDbEntity
  8
0
 62
7
100
AcDbLine
 10
193.262577
 20
60.804881
 30
0.0
 11
193.262577
 21
63.295496
 31
0.0
  0
LINE
  5
1f1
100
AcDbEntity
  8
0
 62
7
100
AcDbLine
 10
193.262577
 20
65.839028
 30
0.0
 11
193.262577
 21
68.333171
 31
0.0
  0
LINE
  5
1f2
100
AcDbEntity
  8
0
 62
7
100
AcDbLine
 10
193.262577
 20
70.876703
 30
0.0
 11
193.262577
 21
73.367318
 31
0.0
  0
LINE
  5
1f3
100
AcDbEntity
  8
0
 62
7
100
AcDbLine
 10
193.262577
 20
75.910851
 30
0.0
 11
193.262577
 21
78.404994
 31
0.0
  0
LINE
  5
1f4
100
AcDbEntity
  8
0
 62
7
100
AcDbLine
 10
193.262577
 20
80.948526
 30
0.0
 11
193.262577
 21
83.439141
 31
0.0
  0
LINE
  5
1f5
100
AcDbEntity
  8
0
 62
7
100
AcDbLine
 10
193.262577
 20
85.982673
 30
0.0
 11
193.262577
 21
88.476816
 31
0.0
  0
LINE
  5
1f6
100
AcDbEntity
  8
0
 62
7
100
AcDbLine
 10
193.262577
 20
91.020348
 30
0.0
 11
193.262577
 21
93.510964
 31
0.0
  0
LINE
  5
1f7
100
AcDbEntity
  8
0
 62
7
100
AcDbLine
 10
193.262577
 20
96.054496
 30
0.0
 11
193.262577
 21
98.548639
 31
0.0
  0
LINE
  5
1f8
100
AcDbEntity
  8
0
 62
7
100
AcDbLine
 10
193.262577
 20
101.092171
 30
0.0
 11
193.262577
 21
103.582786
 31
0.0
  0
LINE
  5
1f9
100
AcDbEntity
  8
0
 62
7
100
AcDbLine
 10
193.262577
 20
106.126318
 30
0.0
 11
193.262577
 21
108.620461
 31
0.0
  0
LINE
  5
1fa
100
AcDbEntity
  8
0
 62
7
100
AcDbLine
 10
193.262577
 20
111.163993
 30
0.0
 11
193.262577
 21
113.654609
 31
0.0
  0
LINE
  5
1fb
100
AcDbEntity
  8
0
 62
7
100
AcDbLine
 10
193.262577
 20
116.198141
 30
0.0
 11
193.262577
 21
118.692284
 31
0.0
  0
LINE
  5
1fc
100
AcDbEntity
  8
0
 62
7
100
AcDbLine
 10
193.262577
 20
121.235816
 30
0.0
 11
193.262577
 21
123.729959
 31
0.0
  0
LINE
  5
1fd
100
AcDbEntity
  8
0
 62
7
100
AcDbLine
 10
193.262577
 20
126.269963
 30
0.0
 11
193.262577
 21
128.764107
 31
0.0
  0
LINE
  5
1fe
100
AcDbEntity
  8
0
 62
7
100
AcDbLine
 10
193.262577
 20
131.307639
 30
0.0
 11
193.262577
 21
133.801782
 31
0.0
  0
LINE
  5
1ff
100
AcDbEntity
  8
0
 62
7
100
AcDbLine
 10
193.262577
 20
136.341786
 30
0.0
 11
193.262577
 21
138.835929
 31
0.0
  0
LINE
  5
200
100
AcDbEntity
  8
0
 62
7
100
AcDbLine
 10
193.262577
 20
141.379461
 30
0.0
 11
193.262577
 21
143.873604
 31
0.0
  0
LINE
  5
201
100
AcDbEntity
  8
0
 62
7
100
AcDbLine
 10
193.262577
 20
146.413609
 30
0.0
 11
193.262577
 21
148.907752
 31
0.0
  0
LINE
  5
202
100
AcDbEntity
  8
0
 62
7
100
AcDbLine
 10
193.262577
 20
151.451284
 30
0.0
 11
193.262577
 21
153.945427
 31
0.0
  0
LINE
  5
203
100
AcDbEntity
  8
0
 62
7
100
AcDbLine
 10
193.262577
 20
156.485431
 30
0.0
 11
193.262577
 21
158.979574
 31
0.0
  0
LINE
  5
204
100
AcDbEntity
  8
0
 62
7
100
AcDbLine
 10
193.262577
 20
161.523106
 30
0.0
 11
193.262577
 21
164.017249
 31
0.0
  0
LINE
  5
205
100
AcDbEntity
  8
0
 62
7
100
AcDbLine
 10
193.262577
 20
166.557254
 30
0.0
 11
193.262577
 21
169.051397
 31
0.0
  0
LINE
  5
206
100
AcDbEntity
  8
0
 62
7
100
AcDbLine
 10
193.262577
 20
171.594929
 30
0.0
 11
193.262577
 21
174.089072
 31
0.0
  0
LINE
  5
207
100
AcDbEntity
  8
0
 62
7
100
AcDbLine
 10
193.262577
 20
176.629076
 30
0.0
 11
193.262577
 21
179.123219
 31
0.0
  0
LINE
  5
208
100
AcDbEntity
  8
0
 62
7
100
AcDbLine
 10
193.262577
 20
181.666751
 30
0.0
 11
193.262577
 21
184.160895
 31
0.0
  0
LINE
  5
209
100
AcDbEntity
  8
0
 62
7
100
AcDbLine
 10
193.262577
 20
186.700899
 30
0.0
 11
193.262577
 21
189.195042
 31
0.0
  0
LINE
  5
20a
100
AcDbEntity
  8
0
 62
7
100
AcDbLine
 10
193.262577
 20
191.738574
 30
0.0
 11
193.262577
 21
194.232717
 31
0.0
  0
LINE
  5
20b
100
AcDbEntity
  8
0
 62
7
100
AcDbLine
 10
193.262577
 20
196.772721
 30
0.0
 11
193.262577
 21
199.266865
 31
0.0
  0
LINE
  5
20c
100
AcDbEntity
  8
0
 62
7
100
AcDbLine
 10
193.262577
 20
201.810397
 30
0.0
 11
193.262577
 21
204.304540
 31
0.0
  0
LINE
  5
20d
100
AcDbEntity
  8
0
 62
7
100
AcDbLine
 10
193.262577
 20
206.844544
 30
0.0
 11
193.262577
 21
209.338687
 31
0.0
  0
LINE
  5
20e
100
AcDbEntity
  8
0
 62
7
100
AcDbLine
 10
193.262577
 20
211.882219
 30
0.0
 11
193.262577
 21
214.376362
 31
0.0
  0
LINE
  5
20f
100
AcDbEntity
  8
0
 62
7
100
AcDbLine
 10
193.262577
 20
216.919894
 30
0.0
 11
193.262577
 21
219.410510
 31
0.0
  0
LINE
  5
210
100
AcDbEntity
  8
0
 62
7
100
AcDbLine
 10
193.262577
 20
221.954042
 30
0.0
 11
193.262577
 21
224.448185
 31
0.0
  0
LINE
  5
211
100
AcDbEntity
  8
0
 62
7
100
AcDbLine
 10
193.262577
 20
226.991717
 30
0.0
 11
193.262577
 21
229.482332
 31
0.0
  0
LINE
  5
212
100
AcDbEntity
  8
0
 62
7
100
AcDbLine
 10
193.262577
 20
232.025864
 30
0.0
 11
193.262577
 21
234.520007
 31
0.0
  0
LINE
  5
213
100
AcDbEntity
  8
0
 62
7
100
AcDbLine
 10
193.262577
 20
237.063540
 30
0.0
 11
193.262577
 21
239.554155
 31
0.0
  0
LINE
  5
214
100
AcDbEntity
  8
0
 62
7
100
AcDbLine
 10
193.262577
 20
242.097687
 30
0.0
 11
193.262577
 21
244.591830
 31
0.0
  0
LINE
  5
215
100
AcDbEntity
  8
0
 62
7
100
AcDbLine
 10
193.262577
 20
247.135362
 30
0.0
 11
193.262577
 21
249.625977
 31
0.0
  0
LINE
  5
216
100
AcDbEntity
  8
0
 62
7
100
AcDbLine
 10
193.262577
 20
252.169510
 30
0.0
 11
193.262577
 21
254.663653
 31
0.0
  0
LINE
  5
217
100
AcDbEntity
  8
0
 62
7
100
AcDbLine
 10
193.262577
 20
257.207185
 30
0.0
 11
193.262577
 21
259.697800
 31
0.0
  0
LINE
  5
218
100
AcDbEntity
  8
0
 62
7
100
AcDbLine
 10
193.262577
 20
262.241332
 30
0.0
 11
193.262577
 21
264.735475
 31
0.0
  0
LINE
  5
219
100
AcDbEntity
  8
0
 62
7
100
AcDbLine
 10
193.262577
 20
267.279007
 30
0.0
 11
193.262577
 21
269.769623
 31
0.0
  0
LINE
  5
21a
100
AcDbEntity
  8
0
 62
7
100
AcDbLine
 10
193.262577
 20
272.313155
 30
0.0
 11
193.262577
 21
274.807298
 31
0.0
  0
LINE
  5
21b
100
AcDbEntity
  8
0
 62
7
100
AcDbLine
 10
193.262577
 20
277.350830
 30
0.0
 11
193.262577
 21
279.841445
 31
0.0
  0
LINE
  5
21c
100
AcDbEntity
  8
0
 62
7
100
AcDbLine
 10
193.262577
 20
282.384977
 30
0.0
 11
193.262577
 21
284.879120
 31
0.0
  0
LINE
  5
21d
100
AcDbEntity
  8
0
 62
7
100
AcDbLine
 10
194.691329
 20
34.117197
 30
0.0
 11
196.063637
 21
35.115559
 31
0.0
  0
LINE
  5
21e
100
AcDbEntity
  8
0
 62
7
100
AcDbLine
 10
197.492389
 20
36.152728
 30
0.0
 11
198.868225
 21
37.154618
 31
0.0
  0
LINE
  5
21f
100
AcDbEntity
  8
0
 62
7
100
AcDbLine
 10
200.293450
 20
38.188259
 30
0.0
 11
201.669285
 21
39.190150
 31
0.0
  0
LINE
  5
220
100
AcDbEntity
  8
0
 62
7
100
AcDbLine
 10
203.094510
 20
40.223790
 30
0.0
 11
204.470346
 21
41.225681
 31
0.0
  0
LINE
  5
221
100
AcDbEntity
  8
0
 62
7
100
AcDbLine
 10
205.899098
 20
42.262849
 30
0.0
 11
207.271406
 21
43.261212
 31
0.0
  0
LINE
  5
222
100
AcDbEntity
  8
0
 62
7
100
AcDbLine
 10
208.700158
 20
44.298380
 30
0.0
 11
210.075994
 21
45.296743
 31
0.0
  0
LINE
  5
223
100
AcDbEntity
  8
0
 62
7
100
AcDbLine
 10
211.501219
 20
46.333912
 30
0.0
 11
212.877054
 21
47.332274
 31
0.0
  0
LINE
  5
224
100
AcDbEntity
  8
0
 62
7
100
AcDbLine
 10
214.305807
 20
48.369443
 30
0.0
 11
215.678115
 21
49.367806
 31
0.0
  0
LINE
  5
225
100
AcDbEntity
  8
0
 62
7
100
AcDbLine
 10
217.106867
 20
50.404974
 30
0.0
 11
218.482703
 21
51.403337
 31
0.0
  0
LINE
  5
226
100
AcDbEntity
  8
0
 62
7
100
AcDbLine
 10
219.907927
 20
52.440505
 30
0.0
 11
221.283763
 21
53.438868
 31
0.0
  0
LINE
  5
227
100
AcDbEntity
  8
0
 62
7
100
AcDbLine
 10
222.708987
 20
54.476037
 30
0.0
 11
224.084823
 21
55.474399
 31
0.0
  0
LINE
  5
228
100
AcDbEntity
  8
0
 62
7
100
AcDbLine
 10
225.513576
 20
56.511568
 30
0.0
 11
226.889411
 21
57.509931
 31
0.0
  0
LINE
  5
229
100
AcDbEntity
  8
0
 62
7
100
AcDbLine
 10
194.691329
 20
84.977255
 30
0.0
 11
196.063637
 21
85.975618
 31
0.0
  0
LINE
  5
22a
100
AcDbEntity
  8
0
 62
7
100
AcDbLine
 10
197.492389
 20
87.012786
 30
0.0
 11
198.868225
 21
88.011149
 31
0.0
  0
LINE
  5
22b
100
AcDbEntity
  8
0
 62
7
100
AcDbLine
 10
200.293450
 20
89.048317
 30
0.0
 11
201.669285
 21
90.046680
 31
0.0
  0
LINE
  5
22c
100
AcDbEntity
  8
0
 62
7
100
AcDbLine
 10
203.094510
 20
91.083848
 30
0.0
 11
204.470346
 21
92.082211
 31
0.0
  0
LINE
  5
22d
100
AcDbEntity
  8
0
 62
7
100
AcDbLine
 10
205.899098
 20
93.119380
 30
0.0
 11
207.271406
 21
94.117742
 31
0.0
  0
LINE
  5
22e
100
AcDbEntity
  8
0
 62
7
100
AcDbLine
 10
208.700158
 20
95.154911
 30
0.0
 11
210.075994
 21
96.153274
 31
0.0
  0
LINE
  5
22f
100
AcDbEntity
  8
0
 62
7
100
AcDbLine
 10
211.501219
 20
97.190442
 30
0.0
 11
212.877054
 21
98.188805
 31
0.0
  0
LINE
  5
230
100
AcDbEntity
  8
0
 62
7
100
AcDbLine
 10
214.305807
 20
99.225973
 30
0.0
 11
215.678115
 21
100.224336
 31
0.0
  0
LINE
  5
231
100
AcDbEntity
  8
0
 62
7
100
AcDbLine
 10
217.106867
 20
101.261504
 30
0.0
 11
218.482703
 21
102.263395
 31
0.0
  0
LINE
  5
232
100
AcDbEntity
  8
0
 62
7
100
AcDbLine
 10
219.907927
 20
103.297036
 30
0.0
 11
221.283763
 21
104.298926
 31
0.0
  0
LINE
  5
233
100
AcDbEntity
  8
0
 62
7
100
AcDbLine
 10
222.708987
 20
105.336095
 30
0.0
 11
224.084823
 21
106.334457
 31
0.0
  0
LINE
  5
234
100
AcDbEntity
  8
0
 62
7
100
AcDbLine
 10
225.513576
 20
107.371626
 30
0.0
 11
226.889411
 21
108.369989
 31
0.0
  0
LINE
  5
235
100
AcDbEntity
  8
0
 62
7
100
AcDbLine
 10
194.691329
 20
135.833785
 30
0.0
 11
196.063637
 21
136.832148
 31
0.0
  0
LINE
  5
236
100
AcDbEntity
  8
0
 62
7
100
AcDbLine
 10
197.492389
 20
137.869316
 30
0.0
 11
198.868225
 21
138.867679
 31
0.0
  0
LINE
  5
237
100
AcDbEntity
  8
0
 62
7
100
AcDbLine
 10
200.293450
 20
139.904848
 30
0.0
 11
201.669285
 21
140.903210
 31
0.0
  0
LINE
  5
238
100
AcDbEntity
  8
0
 62
7
100
AcDbLine
 10
203.094510
 20
141.940379
 30
0.0
 11
204.470346
 21
142.942269
 31
0.0
  0
LINE
  5
239
100
AcDbEntity
  8
0
 62
7
100
AcDbLine
 10
205.899098
 20
143.975910
 30
0.0
 11
207.271406
 21
144.977801
 31
0.0
  0
LINE
  5
23a
100
AcDbEntity
  8
0
 62
7
100
AcDbLine
 10
208.700158
 20
146.014969
 30
0.0
 11
210.075994
 21
147.013332
 31
0.0
  0
LINE
  5
23b
100
AcDbEntity
  8
0
 62
7
100
AcDbLine
 10
211.501219
 20
148.050500
 30
0.0
 11
212.877054
 21
149.048863
 31
0.0
  0
LINE
  5
23c
100
AcDbEntity
  8
0
 62
7
100
AcDbLine
 10
214.305807
 20
150.086031
 30
0.0
 11
215.678115
 21
151.084394
 31
0.0
  0
LINE
  5
23d
100
AcDbEntity
  8
0
 62
7
100
AcDbLine
 10
217.106867
 20
152.121563
 30
0.0
 11
218.482703
 21
153.119925
 31
0.0
  0
LINE
  5
23e
100
AcDbEntity
  8
0
 62
7
100
AcDbLine
 10
219.907927
 20
154.157094
 30
0.0
 11
221.283763
 21
155.155457
 31
0.0
  0
LINE
  5
23f
100
AcDbEntity
  8
0
 62
7
100
AcDbLine
 10
222.708987
 20
156.192625
 30
0.0
 11
224.084823
 21
157.190988
 31
0.0
  0
LINE
  5
240
100
AcDbEntity
  8
0
 62
7
100
AcDbLine
 10
225.513576
 20
158.228156
 30
0.0
 11
226.889411
 21
159.226519
 31
0.0
  0
LINE
  5
241
100
AcDbEntity
  8
0
 62
7
100
AcDbLine
 10
194.691329
 20
186.693843
 30
0.0
 11
196.063637
 21
187.692206
 31
0.0
  0
LINE
  5
242
100
AcDbEntity
  8
0
 62
7
100
AcDbLine
 10
197.492389
 20
188.729375
 30
0.0
 11
198.868225
 21
189.727737
 31
0.0
  0
LINE
  5
243
100
AcDbEntity
  8
0
 62
7
100
AcDbLine
 10
200.293450
 20
190.764906
 30
0.0
 11
201.669285
 21
191.763269
 31
0.0
  0
LINE
  5
244
100
AcDbEntity
  8
0
 62
7
100
AcDbLine
 10
203.094510
 20
192.800437
 30
0.0
 11
204.470346
 21
193.798800
 31
0.0
  0
LINE
  5
245
100
AcDbEntity
  8
0
 62
7
100
AcDbLine
 10
205.899098
 20
194.835968
 30
0.0
 11
207.271406
 21
195.834331
 31
0.0
  0
LINE
  5
246
100
AcDbEntity
  8
0
 62
7
100
AcDbLine
 10
208.700158
 20
196.871499
 30
0.0
 11
210.075994
 21
197.869862
 31
0.0
  0
LINE
  5
247
100
AcDbEntity
  8
0
 62
7
100
AcDbLine
 10
211.501219
 20
198.907031
 30
0.0
 11
212.877054
 21
199.905393
 31
0.0
  0
LINE
  5
248
100
AcDbEntity
  8
0
 62
7
100
AcDbLine
 10
214.305807
 20
200.942562
 30
0.0
 11
215.678115
 21
201.940925
 31
0.0
  0
LINE
  5
249
100
AcDbEntity
  8
0
 62
7
100
AcDbLine
 10
217.106867
 20
202.978093
 30
0.0
 11
218.482703
 21
203.976456
 31
0.0
  0
LINE
  5
24a
100
AcDbEntity
  8
0
 62
7
100
AcDbLine
 10
219.907927
 20
205.013624
 30
0.0
 11
221.283763
 21
206.011987
 31
0.0
  0
LINE
  5
24b
100
AcDbEntity
  8
0
 62
7
100
AcDbLine
 10
222.708987
 20
207.049155
 30
0.0
 11
224.084823
 21
208.051046
 31
0.0
  0
LINE
  5
24c
100
AcDbEntity
  8
0
 62
7
100
AcDbLine
 10
225.513576
 20
209.084687
 30
0.0
 11
226.889411
 21
210.086577
 31
0.0
  0
LINE
  5
24d
100
AcDbEntity
  8
0
 62
7
100
AcDbLine
 10
194.691329
 20
237.550374
 30
0.0
 11
196.063637
 21
238.548736
 31
0.0
  0
LINE
  5
24e
100
AcDbEntity
  8
0
 62
7
100
AcDbLine
 10
197.492389
 20
239.585905
 30
0.0
 11
198.868225
 21
240.584268
 31
0.0
  0
LINE
  5
24f
100
AcDbEntity
  8
0
 62
7
100
AcDbLine
 10
200.293450
 20
241.621436
 30
0.0
 11
201.669285
 21
242.619799
 31
0.0
  0
LINE
  5
250
100
AcDbEntity
  8
0
 62
7
100
AcDbLine
 10
203.094510
 20
243.656967
 30
0.0
 11
204.470346
 21
244.655330
 31
0.0
  0
LINE
  5
251
100
AcDbEntity
  8
0
 62
7
100
AcDbLine
 10
205.899098
 20
245.692499
 30
0.0
 11
207.271406
 21
246.690861
 31
0.0
  0
LINE
  5
252
100
AcDbEntity
  8
0
 62
7
100
AcDbLine
 10
208.700158
 20
247.728030
 30
0.0
 11
210.075994
 21
248.729920
 31
0.0
  0
LINE
  5
253
100
AcDbEntity
  8
0
 62
7
100
AcDbLine
 10
211.501219
 20
249.763561
 30
0.0
 11
212.877054
 21
250.765452
 31
0.0
  0
LINE
  5
254
100
AcDbEntity
  8
0
 62
7
100
AcDbLine
 10
214.305807
 20
251.802620
 30
0.0
 11
215.678115
 21
252.800983
 31
0.0
  0
LINE
  5
255
100
AcDbEntity
  8
0
 62
7
100
AcDbLine
 10
217.106867
 20
253.838151
 30
0.0
 11
218.482703
 21
254.836514
 31
0.0
  0
LINE
  5
256
100
AcDbEntity
  8
0
 62
7
100
AcDbLine
 10
219.907927
 20
255.873682
 30
0.0
 11
221.283763
 21
256.872045
 31
0.0
  0
LINE
  5
257
100
AcDbEntity
  8
0
 62
7
100
AcDbLine
 10
222.708987
 20
257.909214
 30
0.0
 11
224.084823
 21
258.907576
 31
0.0
  0
LINE
  5
258
100
AcDbEntity
  8
0
 62
7
100
AcDbLine
 10
225.513576
 20
259.944745
 30
0.0
 11
226.889411
 21
260.943108
 31
0.0
  0
LINE
  5
259
100
AcDbEntity
  8
0
 62
7
100
AcDbLine
 10
195.026468
 20
83.940086
 30
0.0
 11
196.603388
 21
83.940086
 31
0.0
  0
LINE
  5
25a
100
AcDbEntity
  8
0
 62
7
100
AcDbLine
 10
198.367280
 20
83.940086
 30
0.0
 11
199.947727
 21
83.940086
 31
0.0
  0
LINE
  5
25b
100
AcDbEntity
  8
0
 62
7
100
AcDbLine
 10
201.711619
 20
83.940086
 30
0.0
 11
203.288538
 21
83.940086
 31
0.0
  0
LINE
  5
25c
100
AcDbEntity
  8
0
 62
7
100
AcDbLine
 10
205.052430
 20
83.940086
 30
0.0
 11
206.632877
 21
83.940086
 31
0.0
  0
LINE
  5
25d
100
AcDbEntity
  8
0
 62
7
100
AcDbLine
 10
208.396769
 20
83.940086
 30
0.0
 11
209.973688
 21
83.940086
 31
0.0
  0
LINE
  5
25e
100
AcDbEntity
  8
0
 62
7
100
AcDbLine
 10
211.737580
 20
83.940086
 30
0.0
 11
213.314499
 21
83.940086
 31
0.0
  0
LINE
  5
25f
100
AcDbEntity
  8
0
 62
7
100
AcDbLine
 10
215.078391
 20
83.940086
 30
0.0
 11
216.658838
 21
83.940086
 31
0.0
  0
LINE
  5
260
100
AcDbEntity
  8
0
 62
7
100
AcDbLine
 10
218.422730
 20
83.940086
 30
0.0
 11
219.999650
 21
83.940086
 31
0.0
  0
LINE
  5
261
100
AcDbEntity
  8
0
 62
7
100
AcDbLine
 10
221.763541
 20
83.940086
 30
0.0
 11
223.343989
 21
83.940086
 31
0.0
  0
LINE
  5
262
100
AcDbEntity
  8
0
 62
7
100
AcDbLine
 10
225.107880
 20
83.940086
 30
0.0
 11
226.684800
 21
83.940086
 31
0.0
  0
LINE
  5
263
100
AcDbEntity
  8
0
 62
7
100
AcDbLine
 10
195.026468
 20
134.796617
 30
0.0
 11
196.603388
 21
134.796617
 31
0.0
  0
LINE
  5
264
100
AcDbEntity
  8
0
 62
7
100
AcDbLine
 10
198.367280
 20
134.796617
 30
0.0
 11
199.947727
 21
134.796617
 31
0.0
  0
LINE
  5
265
100
AcDbEntity
  8
0
 62
7
100
AcDbLine
 10
201.711619
 20
134.796617
 30
0.0
 11
203.288538
 21
134.796617
 31
0.0
  0
LINE
  5
266
100
AcDbEntity
  8
0
 62
7
100
AcDbLine
 10
205.052430
 20
134.796617
 30
0.0
 11
206.632877
 21
134.796617
 31
0.0
  0
LINE
  5
267
100
AcDbEntity
  8
0
 62
7
100
AcDbLine
 10
208.396769
 20
134.796617
 30
0.0
 11
209.973688
 21
134.796617
 31
0.0
  0
LINE
  5
268
100
AcDbEntity
  8
0
 62
7
100
AcDbLine
 10
211.737580
 20
134.796617
 30
0.0
 11
213.314499
 21
134.796617
 31
0.0
  0
LINE
  5
269
100
AcDbEntity
  8
0
 62
7
100
AcDbLine
 10
215.078391
 20
134.796617
 30
0.0
 11
216.658838
 21
134.796617
 31
0.0
  0
LINE
  5
26a
100
AcDbEntity
  8
0
 62
7
100
AcDbLine
 10
218.422730
 20
134.796617
 30
0.0
 11
219.999650
 21
134.796617
 31
0.0
  0
LINE
  5
26b
100
AcDbEntity
  8
0
 62
7
100
AcDbLine
 10
221.763541
 20
134.796617
 30
0.0
 11
223.343989
 21
134.796617
 31
0.0
  0
LINE
  5
26c
100
AcDbEntity
  8
0
 62
7
100
AcDbLine
 10
225.107880
 20
134.796617
 30
0.0
 11
226.684800
 21
134.796617
 31
0.0
  0
LINE
  5
26d
100
AcDbEntity
  8
0
 62
7
100
AcDbLine
 10
195.026468
 20
185.656675
 30
0.0
 11
196.603388
 21
185.656675
 31
0.0
  0
LINE
  5
26e
100
AcDbEntity
  8
0
 62
7
100
AcDbLine
 10
198.367280
 20
185.656675
 30
0.0
 11
199.947727
 21
185.656675
 31
0.0
  0
LINE
  5
26f
100
AcDbEntity
  8
0
 62
7
100
AcDbLine
 10
201.711619
 20
185.656675
 30
0.0
 11
203.288538
 21
185.656675
 31
0.0
  0
LINE
  5
270
100
AcDbEntity
  8
0
 62
7
100
AcDbLine
 10
205.052430
 20
185.656675
 30
0.0
 11
206.632877
 21
185.656675
 31
0.0
  0
LINE
  5
271
100
AcDbEntity
  8
0
 62
7
100
AcDbLine
 10
208.396769
 20
185.656675
 30
0.0
 11
209.973688
 21
185.656675
 31
0.0
  0
LINE
  5
272
100
AcDbEntity
  8
0
 62
7
100
AcDbLine
 10
211.737580
 20
185.656675
 30
0.0
 11
213.314499
 21
185.656675
 31
0.0
  0
LINE
  5
273
100
AcDbEntity
  8
0
 62
7
100
AcDbLine
 10
215.078391
 20
185.656675
 30
0.0
 11
216.658838
 21
185.656675
 31
0.0
  0
LINE
  5
274
100
AcDbEntity
  8
0
 62
7
100
AcDbLine
 10
218.422730
 20
185.656675
 30
0.0
 11
219.999650
 21
185.656675
 31
0.0
  0
LINE
  5
275
100
AcDbEntity
  8
0
 62
7
100
AcDbLine
 10
221.763541
 20
185.656675
 30
0.0
 11
223.343989
 21
185.656675
 31
0.0
  0
LINE
  5
276
100
AcDbEntity
  8
0
 62
7
100
AcDbLine
 10
225.107880
 20
185.656675
 30
0.0
 11
226.684800
 21
185.656675
 31
0.0
  0
LINE
  5
277
100
AcDbEntity
  8
0
 62
7
100
AcDbLine
 10
195.026468
 20
236.513205
 30
0.0
 11
196.603388
 21
236.513205
 31
0.0
  0
LINE
  5
278
100
AcDbEntity
  8
0
 62
7
100
AcDbLine
 10
198.367280
 20
236.513205
 30
0.0
 11
199.947727
 21
236.513205
 31
0.0
  0
LINE
  5
279
100
AcDbEntity
  8
0
 62
7
100
AcDbLine
 10
201.711619
 20
236.513205
 30
0.0
 11
203.288538
 21
236.513205
 31
0.0
  0
LINE
  5
27a
100
AcDbEntity
  8
0
 62
7
100
AcDbLine
 10
205.052430
 20
236.513205
 30
0.0
 11
206.632877
 21
236.513205
 31
0.0
  0
LINE
  5
27b
100
AcDbEntity
  8
0
 62
7
100
AcDbLine
 10
208.396769
 20
236.513205
 30
0.0
 11
209.973688
 21
236.513205
 31
0.0
  0
LINE
  5
27c
100
AcDbEntity
  8
0
 62
7
100
AcDbLine
 10
211.737580
 20
236.513205
 30
0.0
 11
213.314499
 21
236.513205
 31
0.0
  0
LINE
  5
27d
100
AcDbEntity
  8
0
 62
7
100
AcDbLine
 10
215.078391
 20
236.513205
 30
0.0
 11
216.658838
 21
236.513205
 31
0.0
  0
LINE
  5
27e
100
AcDbEntity
  8
0
 62
7
100
AcDbLine
 10
218.422730
 20
236.513205
 30
0.0
 11
219.999650
 21
236.513205
 31
0.0
  0
LINE
  5
27f
100
AcDbEntity
  8
0
 62
7
100
AcDbLine
 10
221.763541
 20
236.513205
 30
0.0
 11
223.343989
 21
236.513205
 31
0.0
  0
LINE
  5
280
100
AcDbEntity
  8
0
 62
7
100
AcDbLine
 10
225.107880
 20
236.513205
 30
0.0
 11
226.684800
 21
236.513205
 31
0.0
  0
ENDSEC
  0
SECTION
  2
OBJECTS
  0
DICTIONARY
  5
C
330
0
100
AcDbDictionary
  3
ACAD_GROUP
350
D
  3
ACAD_MLINESTYLE
350
17
  0
DICTIONARY
  5
D
330
C
100
AcDbDictionary
  0
DICTIONARY
  5
1A
330
C
100
AcDbDictionary
  0
DICTIONARY
  5
17
330
C
100
AcDbDictionary
  3
STANDARD
350
18
  0
DICTIONARY
  5
19
330
C
100
AcDbDictionary
  0
ENDSEC
  0
EOF
