<?xml version="1.0" encoding="UTF-8" standalone="no"?>
<svg baseProfile='full' viewBox="0 0 717.91 885.23" id="templatemaker-polygon" xmlns="http://www.w3.org/2000/svg" width="253.262mm" height="312.29mm">
<title>Polygonal Box</title>
<g stroke="black" fill="none" >
	<line x1="270.04" y1="663.77" x2="292.71" y2="647.29" />
	<line x1="270.04" y1="774.98" x2="270.04" y2="663.77" />
	<line x1="292.71" y1="791.46" x2="270.04" y2="774.98" />
	<line x1="270.04" y1="510.5" x2="292.71" y2="503.13" />
	<line x1="270.04" y1="630.82" x2="270.04" y2="510.5" />
	<line x1="292.71" y1="647.29" x2="270.04" y2="630.82" />
	<line x1="155.6" y1="314.41" x2="292.71" y2="358.96" />
	<line x1="70.87" y1="431.05" x2="155.6" y2="314.41" />
	<line x1="155.6" y1="547.68" x2="70.87" y2="431.05" />
	<line x1="292.71" y1="503.13" x2="155.6" y2="547.68" />
	<line x1="270.04" y1="351.6" x2="292.71" y2="358.96" />
	<line x1="270.04" y1="231.28" x2="270.04" y2="351.6" />
	<line x1="292.71" y1="214.8" x2="270.04" y2="231.28" />
	<line x1="270.04" y1="198.32" x2="292.71" y2="214.8" />
	<line x1="270.04" y1="87.11" x2="270.04" y2="198.32" />
	<line x1="292.71" y1="70.63" x2="270.04" y2="87.11" />
	<line x1="296.71" y1="814.13" x2="292.71" y2="791.46" />
	<line x1="543.83" y1="814.13" x2="296.71" y2="814.13" />
	<line x1="547.83" y1="791.46" x2="543.83" y2="814.13" />
	<line x1="551.83" y1="814.13" x2="547.83" y2="791.46" />
	<line x1="643.04" y1="814.13" x2="551.83" y2="814.13" />
	<line x1="647.04" y1="791.46" x2="643.04" y2="814.13" />
	<line x1="647.04" y1="70.63" x2="647.04" y2="791.46" />
	<line x1="547.83" y1="70.63" x2="647.04" y2="70.63" />
	<line x1="292.71" y1="70.63" x2="547.83" y2="70.63" />
	<path d=" M 292.71 652.29 L 292.71 657.24 M 292.71 662.24 L 292.71 667.18 M 292.71 672.18 L 292.71 677.13 M 292.71 682.13 L 292.71 687.07 M 292.71 692.07 L 292.71 697.01 M 292.71 702.01 L 292.71 706.96 M 292.71 711.96 L 292.71 716.9 M 292.71 721.9 L 292.71 726.85 M 292.71 731.85 L 292.71 736.79 M 292.71 741.79 L 292.71 746.74 M 292.71 751.74 L 292.71 756.68 M 292.71 761.68 L 292.71 766.62 M 292.71 771.62 L 292.71 776.57 M 292.71 781.57 L 292.71 786.51" />
	<path d=" M 292.71 508.13 L 292.71 513.07 M 292.71 518.07 L 292.71 523.02 M 292.71 528.02 L 292.71 532.96 M 292.71 537.96 L 292.71 542.91 M 292.71 547.91 L 292.71 552.85 M 292.71 557.85 L 292.71 562.79 M 292.71 567.79 L 292.71 572.74 M 292.71 577.74 L 292.71 582.68 M 292.71 587.68 L 292.71 592.63 M 292.71 597.63 L 292.71 602.57 M 292.71 607.57 L 292.71 612.52 M 292.71 617.52 L 292.71 622.46 M 292.71 627.46 L 292.71 632.4 M 292.71 637.4 L 292.71 642.35" />
	<path d=" M 292.71 353.96 L 292.71 349.02 M 292.71 344.02 L 292.71 339.08 M 292.71 334.08 L 292.71 329.13 M 292.71 324.13 L 292.71 319.19 M 292.71 314.19 L 292.71 309.24 M 292.71 304.24 L 292.71 299.3 M 292.71 294.3 L 292.71 289.35 M 292.71 284.35 L 292.71 279.41 M 292.71 274.41 L 292.71 269.47 M 292.71 264.47 L 292.71 259.52 M 292.71 254.52 L 292.71 249.58 M 292.71 244.58 L 292.71 239.63 M 292.71 234.63 L 292.71 229.69 M 292.71 224.69 L 292.71 219.74" />
	<path d=" M 292.71 209.8 L 292.71 204.86 M 292.71 199.86 L 292.71 194.91 M 292.71 189.91 L 292.71 184.97 M 292.71 179.97 L 292.71 175.02 M 292.71 170.02 L 292.71 165.08 M 292.71 160.08 L 292.71 155.13 M 292.71 150.13 L 292.71 145.19 M 292.71 140.19 L 292.71 135.24 M 292.71 130.24 L 292.71 125.3 M 292.71 120.3 L 292.71 115.36 M 292.71 110.36 L 292.71 105.41 M 292.71 100.41 L 292.71 95.47 M 292.71 90.47 L 292.71 85.52 M 292.71 80.52 L 292.71 75.58" />
	<path d=" M 297.71 791.46 L 302.35 791.46 M 307.35 791.46 L 311.98 791.46 M 316.98 791.46 L 321.61 791.46 M 326.61 791.46 L 331.25 791.46 M 336.25 791.46 L 340.88 791.46 M 345.88 791.46 L 350.52 791.46 M 355.52 791.46 L 360.15 791.46 M 365.15 791.46 L 369.78 791.46 M 374.78 791.46 L 379.42 791.46 M 384.42 791.46 L 389.05 791.46 M 394.05 791.46 L 398.69 791.46 M 403.69 791.46 L 408.32 791.46 M 413.32 791.46 L 417.95 791.46 M 422.95 791.46 L 427.59 791.46 M 432.59 791.46 L 437.22 791.46 M 442.22 791.46 L 446.86 791.46 M 451.86 791.46 L 456.49 791.46 M 461.49 791.46 L 466.12 791.46 M 471.12 791.46 L 475.76 791.46 M 480.76 791.46 L 485.39 791.46 M 490.39 791.46 L 495.03 791.46 M 500.03 791.46 L 504.66 791.46 M 509.66 791.46 L 514.29 791.46 M 519.29 791.46 L 523.93 791.46 M 528.93 791.46 L 533.56 791.46 M 538.56 791.46 L 543.2 791.46" />
	<path d=" M 552.83 791.46 L 557.3 791.46 M 562.3 791.46 L 566.78 791.46 M 571.78 791.46 L 576.25 791.46 M 581.25 791.46 L 585.73 791.46 M 590.73 791.46 L 595.2 791.46 M 600.2 791.46 L 604.67 791.46 M 609.67 791.46 L 614.15 791.46 M 619.15 791.46 L 623.62 791.46 M 628.62 791.46 L 633.1 791.46 M 638.1 791.46 L 642.57 791.46" />
	<path d=" M 292.71 498.13 L 292.71 493.18 M 292.71 488.18 L 292.71 483.24 M 292.71 478.24 L 292.71 473.3 M 292.71 468.3 L 292.71 463.35 M 292.71 458.35 L 292.71 453.41 M 292.71 448.41 L 292.71 443.46 M 292.71 438.46 L 292.71 433.52 M 292.71 428.52 L 292.71 423.57 M 292.71 418.57 L 292.71 413.63 M 292.71 408.63 L 292.71 403.69 M 292.71 398.69 L 292.71 393.74 M 292.71 388.74 L 292.71 383.8 M 292.71 378.8 L 292.71 373.85 M 292.71 368.85 L 292.71 363.91" />
	<path d=" M 297.71 647.29 L 302.35 647.29 M 307.35 647.29 L 311.98 647.29 M 316.98 647.29 L 321.61 647.29 M 326.61 647.29 L 331.25 647.29 M 336.25 647.29 L 340.88 647.29 M 345.88 647.29 L 350.52 647.29 M 355.52 647.29 L 360.15 647.29 M 365.15 647.29 L 369.78 647.29 M 374.78 647.29 L 379.42 647.29 M 384.42 647.29 L 389.05 647.29 M 394.05 647.29 L 398.69 647.29 M 403.69 647.29 L 408.32 647.29 M 413.32 647.29 L 417.95 647.29 M 422.95 647.29 L 427.59 647.29 M 432.59 647.29 L 437.22 647.29 M 442.22 647.29 L 446.86 647.29 M 451.86 647.29 L 456.49 647.29 M 461.49 647.29 L 466.12 647.29 M 471.12 647.29 L 475.76 647.29 M 480.76 647.29 L 485.39 647.29 M 490.39 647.29 L 495.03 647.29 M 500.03 647.29 L 504.66 647.29 M 509.66 647.29 L 514.29 647.29 M 519.29 647.29 L 523.93 647.29 M 528.93 647.29 L 533.56 647.29 M 538.56 647.29 L 543.2 647.29" />
	<path d=" M 297.71 503.13 L 302.35 503.13 M 307.35 503.13 L 311.98 503.13 M 316.98 503.13 L 321.61 503.13 M 326.61 503.13 L 331.25 503.13 M 336.25 503.13 L 340.88 503.13 M 345.88 503.13 L 350.52 503.13 M 355.52 503.13 L 360.15 503.13 M 365.15 503.13 L 369.78 503.13 M 374.78 503.13 L 379.42 503.13 M 384.42 503.13 L 389.05 503.13 M 394.05 503.13 L 398.69 503.13 M 403.69 503.13 L 408.32 503.13 M 413.32 503.13 L 417.95 503.13 M 422.95 503.13 L 427.59 503.13 M 432.59 503.13 L 437.22 503.13 M 442.22 503.13 L 446.86 503.13 M 451.86 503.13 L 456.49 503.13 M 461.49 503.13 L 466.12 503.13 M 471.12 503.13 L 475.76 503.13 M 480.76 503.13 L 485.39 503.13 M 490.39 503.13 L 495.03 503.13 M 500.03 503.13 L 504.66 503.13 M 509.66 503.13 L 514.29 503.13 M 519.29 503.13 L 523.93 503.13 M 528.93 503.13 L 533.56 503.13 M 538.56 503.13 L 543.2 503.13" />
	<path d=" M 297.71 358.96 L 302.35 358.96 M 307.35 358.96 L 311.98 358.96 M 316.98 358.96 L 321.61 358.96 M 326.61 358.96 L 331.25 358.96 M 336.25 358.96 L 340.88 358.96 M 345.88 358.96 L 350.52 358.96 M 355.52 358.96 L 360.15 358.96 M 365.15 358.96 L 369.78 358.96 M 374.78 358.96 L 379.42 358.96 M 384.42 358.96 L 389.05 358.96 M 394.05 358.96 L 398.69 358.96 M 403.69 358.96 L 408.32 358.96 M 413.32 358.96 L 417.95 358.96 M 422.95 358.96 L 427.59 358.96 M 432.59 358.96 L 437.22 358.96 M 442.22 358.96 L 446.86 358.96 M 451.86 358.96 L 456.49 358.96 M 461.49 358.96 L 466.12 358.96 M 471.12 358.96 L 475.76 358.96 M 480.76 358.96 L 485.39 358.96 M 490.39 358.96 L 495.03 358.96 M 500.03 358.96 L 504.66 358.96 M 509.66 358.96 L 514.29 358.96 M 519.29 358.96 L 523.93 358.96 M 528.93 358.96 L 533.56 358.96 M 538.56 358.96 L 543.2 358.96" />
	<path d=" M 297.71 214.8 L 302.35 214.8 M 307.35 214.8 L 311.98 214.8 M 316.98 214.8 L 321.61 214.8 M 326.61 214.8 L 331.25 214.8 M 336.25 214.8 L 340.88 214.8 M 345.88 214.8 L 350.52 214.8 M 355.52 214.8 L 360.15 214.8 M 365.15 214.8 L 369.78 214.8 M 374.78 214.8 L 379.42 214.8 M 384.42 214.8 L 389.05 214.8 M 394.05 214.8 L 398.69 214.8 M 403.69 214.8 L 408.32 214.8 M 413.32 214.8 L 417.95 214.8 M 422.95 214.8 L 427.59 214.8 M 432.59 214.8 L 437.22 214.8 M 442.22 214.8 L 446.86 214.8 M 451.86 214.8 L 456.49 214.8 M 461.49 214.8 L 466.12 214.8 M 471.12 214.8 L 475.76 214.8 M 480.76 214.8 L 485.39 214.8 M 490.39 214.8 L 495.03 214.8 M 500.03 214.8 L 504.66 214.8 M 509.66 214.8 L 514.29 214.8 M 519.29 214.8 L 523.93 214.8 M 528.93 214.8 L 533.56 214.8 M 538.56 214.8 L 543.2 214.8" />
	<path d=" M 547.83 784.25 L 547.83 777.18 M 547.83 769.97 L 547.83 762.91 M 547.83 755.7 L 547.83 748.63 M 547.83 741.42 L 547.83 734.36 M 547.83 727.15 L 547.83 720.08 M 547.83 712.87 L 547.83 705.81 M 547.83 698.6 L 547.83 691.53 M 547.83 684.32 L 547.83 677.26 M 547.83 670.05 L 547.83 662.98 M 547.83 655.77 L 547.83 648.71 M 547.83 641.5 L 547.83 634.43 M 547.83 627.22 L 547.83 620.16 M 547.83 612.95 L 547.83 605.88 M 547.83 598.67 L 547.83 591.61 M 547.83 584.4 L 547.83 577.33 M 547.83 570.12 L 547.83 563.06 M 547.83 555.85 L 547.83 548.78 M 547.83 541.57 L 547.83 534.5 M 547.83 527.3 L 547.83 520.23 M 547.83 513.02 L 547.83 505.95 M 547.83 498.75 L 547.83 491.68 M 547.83 484.47 L 547.83 477.4 M 547.83 470.2 L 547.83 463.13 M 547.83 455.92 L 547.83 448.85 M 547.83 441.65 L 547.83 434.58 M 547.83 427.37 L 547.83 420.3 M 547.83 413.1 L 547.83 406.03 M 547.83 398.82 L 547.83 391.75 M 547.83 384.55 L 547.83 377.48 M 547.83 370.27 L 547.83 363.2 M 547.83 356.0 L 547.83 348.93 M 547.83 341.72 L 547.83 334.65 M 547.83 327.45 L 547.83 320.38 M 547.83 313.17 L 547.83 306.1 M 547.83 298.9 L 547.83 291.83 M 547.83 284.62 L 547.83 277.55 M 547.83 270.34 L 547.83 263.28 M 547.83 256.07 L 547.83 249.0 M 547.83 241.79 L 547.83 234.73 M 547.83 227.52 L 547.83 220.45 M 547.83 213.24 L 547.83 206.18 M 547.83 198.97 L 547.83 191.9 M 547.83 184.69 L 547.83 177.63 M 547.83 170.42 L 547.83 163.35 M 547.83 156.14 L 547.83 149.08 M 547.83 141.87 L 547.83 134.8 M 547.83 127.59 L 547.83 120.53 M 547.83 113.32 L 547.83 106.25 M 547.83 99.04 L 547.83 91.98 M 547.83 84.77 L 547.83 77.7" />
	<path d=" M 551.88 788.52 L 555.77 785.69 M 559.82 782.75 L 563.72 779.91 M 567.76 776.98 L 571.66 774.14 M 575.7 771.21 L 579.6 768.37 M 583.65 765.43 L 587.54 762.6 M 591.59 759.66 L 595.49 756.83 M 599.53 753.89 L 603.43 751.06 M 607.48 748.12 L 611.37 745.29 M 615.42 742.35 L 619.32 739.52 M 623.36 736.58 L 627.26 733.75 M 631.3 730.81 L 635.2 727.98 M 639.25 725.04 L 643.15 722.21" />
	<path d=" M 551.88 644.35 L 555.77 641.52 M 559.82 638.58 L 563.72 635.75 M 567.76 632.81 L 571.66 629.98 M 575.7 627.04 L 579.6 624.21 M 583.65 621.27 L 587.54 618.44 M 591.59 615.5 L 595.49 612.67 M 599.53 609.73 L 603.43 606.9 M 607.48 603.96 L 611.37 601.13 M 615.42 598.19 L 619.32 595.35 M 623.36 592.42 L 627.26 589.58 M 631.3 586.64 L 635.2 583.81 M 639.25 580.87 L 643.15 578.04" />
	<path d=" M 551.88 500.19 L 555.77 497.36 M 559.82 494.42 L 563.72 491.59 M 567.76 488.65 L 571.66 485.82 M 575.7 482.88 L 579.6 480.04 M 583.65 477.11 L 587.54 474.27 M 591.59 471.33 L 595.49 468.5 M 599.53 465.56 L 603.43 462.73 M 607.48 459.79 L 611.37 456.96 M 615.42 454.02 L 619.32 451.19 M 623.36 448.25 L 627.26 445.42 M 631.3 442.48 L 635.2 439.65 M 639.25 436.71 L 643.15 433.88" />
	<path d=" M 551.88 356.02 L 555.77 353.19 M 559.82 350.25 L 563.72 347.42 M 567.76 344.48 L 571.66 341.65 M 575.7 338.71 L 579.6 335.88 M 583.65 332.94 L 587.54 330.11 M 591.59 327.17 L 595.49 324.34 M 599.53 321.4 L 603.43 318.57 M 607.48 315.63 L 611.37 312.8 M 615.42 309.86 L 619.32 307.03 M 623.36 304.09 L 627.26 301.26 M 631.3 298.32 L 635.2 295.48 M 639.25 292.55 L 643.15 289.71" />
	<path d=" M 551.88 211.86 L 555.77 209.03 M 559.82 206.09 L 563.72 203.26 M 567.76 200.32 L 571.66 197.49 M 575.7 194.55 L 579.6 191.72 M 583.65 188.78 L 587.54 185.95 M 591.59 183.01 L 595.49 180.17 M 599.53 177.24 L 603.43 174.4 M 607.48 171.46 L 611.37 168.63 M 615.42 165.69 L 619.32 162.86 M 623.36 159.92 L 627.26 157.09 M 631.3 154.15 L 635.2 151.32 M 639.25 148.38 L 643.15 145.55" />
	<path d=" M 552.83 647.29 L 557.3 647.29 M 562.3 647.29 L 566.78 647.29 M 571.78 647.29 L 576.25 647.29 M 581.25 647.29 L 585.73 647.29 M 590.73 647.29 L 595.2 647.29 M 600.2 647.29 L 604.67 647.29 M 609.67 647.29 L 614.15 647.29 M 619.15 647.29 L 623.62 647.29 M 628.62 647.29 L 633.1 647.29 M 638.1 647.29 L 642.57 647.29" />
	<path d=" M 552.83 503.13 L 557.3 503.13 M 562.3 503.13 L 566.78 503.13 M 571.78 503.13 L 576.25 503.13 M 581.25 503.13 L 585.73 503.13 M 590.73 503.13 L 595.2 503.13 M 600.2 503.13 L 604.67 503.13 M 609.67 503.13 L 614.15 503.13 M 619.15 503.13 L 623.62 503.13 M 628.62 503.13 L 633.1 503.13 M 638.1 503.13 L 642.57 503.13" />
	<path d=" M 552.83 358.96 L 557.3 358.96 M 562.3 358.96 L 566.78 358.96 M 571.78 358.96 L 576.25 358.96 M 581.25 358.96 L 585.73 358.96 M 590.73 358.96 L 595.2 358.96 M 600.2 358.96 L 604.67 358.96 M 609.67 358.96 L 614.15 358.96 M 619.15 358.96 L 623.62 358.96 M 628.62 358.96 L 633.1 358.96 M 638.1 358.96 L 642.57 358.96" />
	<path d=" M 552.83 214.8 L 557.3 214.8 M 562.3 214.8 L 566.78 214.8 M 571.78 214.8 L 576.25 214.8 M 581.25 214.8 L 585.73 214.8 M 590.73 214.8 L 595.2 214.8 M 600.2 214.8 L 604.67 214.8 M 609.67 214.8 L 614.15 214.8 M 619.15 214.8 L 623.62 214.8 M 628.62 214.8 L 633.1 214.8 M 638.1 214.8 L 642.57 214.8" />

</g></svg>