<?xml version="1.0" encoding="UTF-8"?>
<!DOCTYPE svg PUBLIC "-//W3C//DTD SVG 1.1//EN" "http://www.w3.org/Graphics/SVG/1.1/DTD/svg11.dtd">
<!-- Creator: CorelDRAW X7 -->
<svg xmlns="http://www.w3.org/2000/svg" xml:space="preserve" width="508mm" height="584.2mm" version="1.1" style="shape-rendering:geometricPrecision; text-rendering:geometricPrecision; image-rendering:optimizeQuality; fill-rule:evenodd; clip-rule:evenodd"
viewBox="0 0 50800 58420"
 xmlns:xlink="http://www.w3.org/1999/xlink">
 <defs>
  <style type="text/css">
   <![CDATA[
    .str0 {stroke:#2B2A29;stroke-width:20}
    .fil0 {fill:none}
    .fil1 {fill:#2B2A29}
   ]]>
  </style>
 </defs>
 <g id="Layer_x0020_1">
  <metadata id="CorelCorpID_0Corel-Layer"/>
  <g id="_347735912">
   <rect class="fil0 str0" width="50800" height="58420"/>
   <path class="fil1 str0" d="M19018 29777c394,-113 789,-192 1184,-239l456 -1241c-1718,-81 -3940,465 -6776,3058 -389,-1201 -778,-2402 -1167,-3603 11104,-10676 22756,-16903 32058,-20964 0,0 -82,642 -82,642 -9041,5388 -17394,10532 -21752,22298 2432,640 4476,2506 5224,5098 1131,3919 -1130,8013 -5049,9144 -3919,1131 -8013,-1129 -9144,-5048 -1132,-3919 1129,-8014 5048,-9145zm3307 1733c-90,281 -176,567 -262,856 1596,354 2953,1547 3438,3228 707,2449 -705,5008 -3155,5715 -2449,707 -5008,-706 -5715,-3155 -630,-2184 424,-4455 2396,-5423l412 -1120c-2862,883 -4500,3901 -3666,6790 844,2924 3897,4609 6821,3766 2923,-844 4609,-3898 3765,-6821 -572,-1982 -2160,-3394 -4034,-3836z"/>
  </g>
 </g>
</svg>
