<?xml version="1.0" encoding="UTF-8"?>
<!DOCTYPE svg PUBLIC "-//W3C//DTD SVG 1.1//EN" "http://www.w3.org/Graphics/SVG/1.1/DTD/svg11.dtd">
<!-- Creator: CorelDRAW X7 -->
<svg xmlns="http://www.w3.org/2000/svg" xml:space="preserve" width="508mm" height="584.2mm" version="1.1" style="shape-rendering:geometricPrecision; text-rendering:geometricPrecision; image-rendering:optimizeQuality; fill-rule:evenodd; clip-rule:evenodd"
viewBox="0 0 50800 58420"
 xmlns:xlink="http://www.w3.org/1999/xlink">
 <defs>
  <style type="text/css">
   <![CDATA[
    .str0 {stroke:#2B2A29;stroke-width:20}
    .fil0 {fill:none}
    .fil1 {fill:#2B2A29}
   ]]>
  </style>
 </defs>
 <g id="Layer_x0020_1">
  <metadata id="CorelCorpID_0Corel-Layer"/>
  <rect class="fil0 str0" width="50800" height="58420"/>
  <rect class="fil0 str0" width="50800" height="58420"/>
  <path class="fil1 str0" d="M35126 33462c-394,-114 -789,-193 -1183,-239l-457 -1241c1718,-81 3940,465 6776,3058 389,-1201 778,-2402 1167,-3603 -11103,-10676 -22755,-16903 -32058,-20964 0,0 82,642 82,642 9041,5388 17394,10532 21753,22298 -2432,640 -4476,2506 -5224,5098 -1132,3919 1129,8013 5048,9144 3919,1131 8014,-1129 9145,-5048 1131,-3920 -1129,-8014 -5049,-9145zm-3307 1733c90,281 177,567 262,856 -1596,354 -2953,1547 -3438,3228 -707,2449 706,5008 3155,5715 2450,707 5009,-706 5715,-3155 631,-2184 -424,-4455 -2396,-5423l-412 -1120c2862,883 4500,3900 3666,6790 -844,2923 -3897,4609 -6820,3766 -2924,-844 -4609,-3898 -3766,-6821 572,-1982 2160,-3395 4034,-3836z"/>
 </g>
</svg>
