<?xml version="1.0" encoding="UTF-8"?>
<!DOCTYPE svg PUBLIC "-//W3C//DTD SVG 1.1//EN" "http://www.w3.org/Graphics/SVG/1.1/DTD/svg11.dtd">
<!-- Creator: CorelDRAW X7 -->
<svg xmlns="http://www.w3.org/2000/svg" xml:space="preserve" width="584.2mm" height="584.2mm" version="1.1" style="shape-rendering:geometricPrecision; text-rendering:geometricPrecision; image-rendering:optimizeQuality; fill-rule:evenodd; clip-rule:evenodd"
viewBox="0 0 58420 58420"
 xmlns:xlink="http://www.w3.org/1999/xlink">
 <defs>
  <style type="text/css">
   <![CDATA[
    .str2 {stroke:#2B2A29;stroke-width:200}
    .str3 {stroke:#2B2A29;stroke-width:200}
    .str0 {stroke:#2B2A29;stroke-width:7.62}
    .str1 {stroke:#2B2A29;stroke-width:100;stroke-dasharray:1000.000000 300.000000}
    .fil0 {fill:none}
    .fil1 {fill:none;fill-rule:nonzero}
    .fil2 {fill:#2B2A29}
   ]]>
  </style>
 </defs>
 <g id="Layer_x0020_1">
  <metadata id="CorelCorpID_0Corel-Layer"/>
  <g id="_350469744">
   <rect class="fil0 str0" width="58420" height="58420"/>
   <path class="fil0 str1" d="M3383 2000l51654 0c761,0 1383,568 1383,1263l0 51894c0,695 -622,1263 -1383,1263l-51654 0c-761,0 -1383,-568 -1383,-1263l0 -51894c0,-695 622,-1263 1383,-1263z"/>
   <path class="fil1 str2" d="M10032 19961l0 -8105 4173 0 629 3097 520 -3097 4294 0 0 8105 -2806 0 0 -4174 -133 0 -701 4089 -2347 0 -690 -4089 -133 0 0 4174 -2806 0zm16245 -4137l0 2298c73,56 169,101 290,133l-36 1718c-629,96 -1060,145 -1294,145 -234,0 -448,-35 -641,-103 -194,-69 -323,-139 -387,-212l-97 -109c-500,283 -1107,424 -1821,424 -713,0 -1251,-164 -1614,-490 -363,-327 -545,-853 -545,-1579 0,-725 206,-1211 617,-1457 411,-246 1061,-385 1948,-418l871 -36 0 -109c0,-153 -170,-230 -508,-230 -734,0 -1468,41 -2202,121l-399 37 -61 -1839c1065,-282 2037,-423 2916,-423 919,0 1633,137 2141,411 548,290 822,863 822,1718zm-3169 2431c153,0 306,-61 460,-181l0 -448 -412 24c-209,16 -314,121 -314,315 0,193 89,290 266,290zm6689 1706l-2709 0 0 -8347 2709 0 0 4198 351 0 544 -1960 2673 0 -871 2951 944 3158 -2710 0 -568 -1791 -363 0 0 1791zm6326 -2262c8,282 190,423 545,423 806,0 1612,-24 2419,-73l472 -36 60 1754c-1072,234 -2139,351 -3199,351 -1061,0 -1827,-244 -2299,-732 -471,-488 -707,-1278 -707,-2371 0,-1093 254,-1919 762,-2480 508,-560 1300,-840 2377,-840 1076,0 1877,230 2401,689 524,460 786,1165 786,2117l-121 1198 -3496 0zm907 -1476c0,-234 -34,-399 -102,-496 -69,-97 -188,-145 -357,-145 -170,0 -286,48 -351,145 -64,97 -101,262 -109,496l919 0zm3206 3738l0 -2408 2758 0 0 2408 -2758 0zm-30204 1645l3665 0c1976,0 2964,669 2964,2008 0,508 -55,899 -164,1173 -108,274 -332,532 -671,774 395,170 667,377 817,623 149,246 223,655 223,1228 0,1532 -1040,2298 -3120,2298l-3714 0 0 -8104zm3460 4899l-654 0 0 1330 654 0c282,0 471,-46 568,-139 97,-92 145,-266 145,-520 0,-254 -52,-429 -157,-526 -105,-97 -290,-145 -556,-145zm-37 -3048l-617 0 0 1294 629 0c242,0 412,-53 508,-157 97,-105 146,-273 146,-502 0,-230 -53,-393 -158,-490 -105,-97 -274,-145 -508,-145zm6605 6253l-2710 0 0 -6108 2710 0 0 568c508,-484 935,-725 1282,-725l0 2516c-274,0 -629,108 -1065,326l-217 109 0 3314zm4294 -2262c8,283 189,424 544,424 807,0 1613,-25 2419,-73l472 -36 61 1754c-1073,234 -2139,351 -3200,351 -1060,0 -1826,-244 -2298,-732 -472,-488 -708,-1278 -708,-2371 0,-1093 254,-1919 762,-2480 508,-560 1301,-840 2377,-840 1077,0 1877,229 2401,689 524,460 787,1165 787,2117l-121 1197 -3496 0zm907 -1475c0,-234 -34,-400 -103,-496 -68,-97 -187,-145 -357,-145 -169,0 -286,48 -350,145 -65,96 -101,262 -109,496l919 0zm9145 -400l0 2299c72,56 169,100 290,133l-36 1717c-629,97 -1061,146 -1295,146 -233,0 -447,-35 -641,-103 -193,-69 -322,-139 -387,-212l-97 -109c-500,282 -1106,424 -1820,424 -714,0 -1252,-164 -1615,-490 -363,-327 -544,-853 -544,-1579 0,-726 205,-1212 617,-1457 411,-246 1060,-386 1947,-418l871 -36 0 -109c0,-153 -169,-230 -508,-230 -734,0 -1468,41 -2201,121l-400 36 -60 -1838c1064,-282 2036,-423 2915,-423 919,0 1633,137 2141,411 548,290 823,863 823,1717zm-3170 2432c154,0 307,-61 460,-182l0 -447 -411 24c-210,16 -315,121 -315,314 0,194 89,291 266,291zm6690 1705l-2710 0 0 -8346 2710 0 0 4197 350 0 545 -1959 2673 0 -871 2951 943 3157 -2709 0 -569 -1790 -362 0 0 1790zm3967 0l0 -2407 2758 0 0 2407 -2758 0zm-25946 9593c-855,209 -1730,314 -2625,314 -895,0 -1584,-127 -2068,-381 -484,-254 -833,-679 -1046,-1276 -214,-597 -321,-1455 -321,-2576 0,-1605 248,-2704 744,-3297 496,-592 1441,-889 2836,-889 581,0 1266,81 2057,242l423 85 -72 2165c-662,-80 -1273,-121 -1833,-121 -561,0 -921,107 -1083,321 -161,214 -242,655 -242,1324 0,670 39,1133 115,1391 77,258 200,430 369,514 170,85 444,127 823,127l1887 -72 36 2129zm3218 157l-2710 0 0 -6108 2710 0 0 568c508,-484 935,-726 1282,-726l0 2516c-274,0 -629,109 -1065,327l-217 109 0 3314zm4294 -2262c8,282 189,423 544,423 806,0 1613,-24 2419,-72l472 -36 60 1753c-1072,234 -2139,351 -3199,351 -1060,0 -1826,-244 -2298,-732 -472,-487 -708,-1278 -708,-2370 0,-1093 254,-1920 762,-2480 508,-560 1301,-841 2377,-841 1077,0 1877,230 2401,690 524,459 786,1165 786,2117l-121 1197 -3495 0zm907 -1476c0,-233 -34,-399 -103,-496 -68,-96 -187,-145 -357,-145 -169,0 -286,49 -351,145 -64,97 -100,263 -108,496l919 0zm9145 -399l0 2298c72,57 169,101 290,133l-36 1718c-629,97 -1061,145 -1295,145 -234,0 -447,-34 -641,-103 -193,-68 -322,-139 -387,-211l-97 -109c-500,282 -1106,423 -1820,423 -714,0 -1252,-163 -1615,-490 -363,-326 -544,-852 -544,-1578 0,-726 205,-1212 617,-1458 411,-246 1060,-385 1947,-417l871 -36 0 -109c0,-153 -169,-230 -508,-230 -734,0 -1468,40 -2201,121l-400 36 -60 -1838c1064,-283 2036,-424 2915,-424 919,0 1633,137 2141,412 548,290 823,862 823,1717zm-3170 2431c154,0 307,-60 460,-181l0 -448 -411 25c-210,16 -315,121 -315,314 0,194 89,290 266,290zm6871 -2213l0 1258c0,202 26,337 79,405 52,69 159,103 320,103l544 -12 37 2105c-694,145 -1226,217 -1597,217 -750,0 -1286,-155 -1609,-465 -322,-311 -484,-885 -484,-1724l0 -1887 -471 0 0 -2189 471 0 0 -1210 2710 0 0 1210 980 0 0 2189 -980 0zm4076 1657c8,282 190,423 545,423 806,0 1612,-24 2419,-72l472 -36 60 1753c-1072,234 -2139,351 -3199,351 -1061,0 -1827,-244 -2299,-732 -471,-487 -707,-1278 -707,-2370 0,-1093 254,-1920 762,-2480 508,-560 1300,-841 2377,-841 1076,0 1877,230 2401,690 524,459 786,1165 786,2117l-121 1197 -3496 0zm907 -1476c0,-233 -34,-399 -102,-496 -69,-96 -188,-145 -357,-145 -170,0 -286,49 -351,145 -64,97 -101,263 -109,496l919 0zm3206 3738l0 -2407 2758 0 0 2407 -2758 0z"/>
   <g>
    <path class="fil2" d="M26795 42482c126,-31 193,111 246,196 29,46 58,91 88,137 30,45 56,89 86,134 60,88 116,181 174,271 60,94 116,178 174,270l696 1086c171,270 357,547 523,815 87,140 23,231 -141,231l-3563 0c-76,0 -140,8 -197,-29 -49,-31 -64,-89 -34,-160 16,-37 147,-236 171,-274l1044 -1627c172,-266 350,-553 523,-814 66,-99 113,-213 210,-236zm15 -218l21 0c38,1 78,10 118,28 116,51 192,180 255,283 22,36 139,220 159,243 0,-14 -7,-123 8,-123 45,0 151,61 199,72l-5 106c-3,30 -4,68 35,68 38,0 40,-13 48,-54 3,-18 11,-50 11,-73 36,3 143,81 182,102 0,20 -12,55 -16,72 -11,46 -34,105 37,105 26,0 54,-91 59,-114 41,11 130,111 161,131 -14,26 -55,113 -55,140 0,20 21,38 43,38 26,0 36,-25 46,-42 10,-19 25,-38 30,-59 22,1 30,20 41,34 32,40 70,80 98,122 -36,54 -123,151 -43,170 38,10 71,-65 98,-85 26,17 64,100 83,134 5,9 6,14 11,22 4,8 8,13 12,22 -16,11 -16,16 -28,30l-56 59c-16,20 -24,41 -2,64 43,44 92,-50 129,-60 14,27 67,164 67,199 -22,6 -75,51 -97,67 -27,20 -31,61 5,77 26,11 92,-37 118,-51 15,31 30,133 34,178 1,20 3,25 -16,35l-59 30c-23,11 -61,23 -61,53 0,82 109,18 148,9 0,29 4,183 -1,198 -4,15 -17,14 -32,18 -11,4 -28,8 -39,12 -28,9 -48,13 -72,26 6,24 27,46 38,68 34,0 58,-13 93,-13 0,141 -59,73 43,224 21,32 39,63 61,96l151 238c11,17 19,30 30,47 11,17 19,32 30,49 11,17 20,31 30,47 97,164 124,373 -79,475 -46,22 -94,32 -154,41 -54,8 -872,2 -971,2 14,19 50,36 64,55 -13,19 -154,102 -178,102 -38,0 -91,-134 -149,-86 -51,43 46,95 56,132 -27,15 -164,68 -199,68 -3,-13 -79,-118 -97,-118 -24,0 -51,14 -51,42 0,16 49,78 55,106 -17,0 -34,5 -50,9 -31,6 -134,16 -153,25 -20,-38 -35,-79 -58,-116 -6,-9 -19,-24 -31,-24 -68,0 -42,57 -30,94 6,18 16,35 17,54l-195 0c-27,-8 -16,-35 -45,-115 -22,-59 -15,-36 -4,-134 3,-26 6,-69 12,-94l-43 0c0,63 -17,122 -17,187 -9,6 -29,15 -29,29 0,43 12,74 12,114 -34,0 -71,-8 -104,-13 -31,-6 -67,-13 -99,-20 -2,-31 -9,-68 -12,-98 -3,-34 -7,-67 -43,-67 -59,0 -42,87 -42,139 -11,-5 -40,-13 -54,-17l-105 -40c-16,-6 -32,-15 -48,-19 3,-42 33,-174 -30,-174 -51,0 -46,71 -59,127 -48,-11 -136,-73 -178,-101 0,-16 5,-33 9,-47 -254,0 -508,0 -762,0 -153,0 -229,7 -340,-41 -74,-32 -155,-118 -155,-221 0,-75 9,-121 35,-185 16,-42 40,-79 63,-115l275 -432c24,-37 44,-72 69,-109 59,-89 27,-41 27,-129 55,-29 66,-19 98,-68 13,-20 31,-36 25,-63 -29,-7 -51,2 -77,12 -12,5 -42,17 -54,18 0,-33 -4,-48 -4,-81l4 -127c21,-2 55,-15 76,-21l72 -25c48,0 88,12 136,12 3,-15 10,-21 16,-34l-148 -17c-8,-15 -9,-29 -34,-29 -64,0 -109,33 -107,3 0,-14 4,-32 5,-42 10,-55 19,-101 31,-152 34,0 66,-5 100,-9 13,-1 35,-4 45,-10 26,-15 24,-58 -1,-70 -13,-7 -38,-4 -56,-4 -71,0 -66,12 -51,-39 9,-32 19,-59 30,-88 9,-28 21,-56 34,-80 33,0 119,11 143,4 14,-5 22,-10 27,-25 23,-70 -88,-56 -123,-72 9,-42 76,-140 101,-178 42,3 93,29 136,29 38,0 58,-51 25,-72l-102 -38c25,-46 84,-99 117,-141 23,-30 38,-11 86,10 43,19 106,52 106,-25 0,-21 -79,-61 -101,-72 17,-26 126,-116 156,-132 20,5 74,44 93,56 46,32 81,16 81,-22 0,-31 -68,-66 -89,-97 17,-5 69,-40 88,-52 16,-9 77,-45 94,-45l58 51c16,16 37,46 65,46 21,0 38,-17 38,-38 0,-43 -58,-70 -68,-106 43,-21 156,-68 203,-68 25,-46 57,-87 83,-132l88 -129c72,-97 167,-162 275,-166z"/>
    <path class="fil2" d="M27298 44402c0,-12 3,-18 6,-26l22 0c6,12 7,12 7,30l0 610c0,24 -6,37 -29,29 -3,-7 -6,-14 -6,-25l0 -618zm-52 -89l-1 741c-58,36 -99,73 -99,156 0,45 28,131 78,132l1 -106c10,-10 80,-67 91,-71l93 70 0 107c21,-1 23,-4 35,-17 8,-9 14,-17 21,-29 33,-58 30,-130 -7,-185 -23,-32 -35,-34 -68,-58 -4,-229 0,-506 0,-740 0,-18 84,-50 62,-161 -71,33 -77,102 -119,102 -44,0 -41,4 -62,-15 -5,-5 -20,-15 -23,-22 -4,-10 -3,-32 -3,-44 1,-20 4,-20 16,-30 11,-9 15,-16 24,-23 12,-9 56,-35 74,-65 -29,-19 -82,-7 -108,7 -27,15 -49,35 -63,67 -15,34 -16,75 -1,110 24,57 48,51 59,74z"/>
    <path class="fil2" d="M26342 44752c-22,2 -32,2 -46,14 7,26 25,23 16,61 -8,35 -23,372 -29,438 -12,151 155,151 156,18l-17 -449c-9,-57 13,-37 18,-68 -16,-8 -38,-12 -62,-13 -6,-45 -5,-793 2,-814 7,-27 5,-74 -7,-100l-31 -2c-3,32 -16,69 -4,96 13,30 5,78 5,113 0,96 5,662 -1,706z"/>
    <path class="fil2" d="M26993 44811l-56 -57c3,-35 18,-58 45,-66 38,24 60,65 79,46 11,-14 3,-44 -3,-61 -34,-83 -127,-67 -149,-79 -63,-34 -348,-292 -416,-351 -21,-19 -61,-61 -81,-72l-2 112c1,23 -1,20 11,32 15,15 26,22 41,36 73,68 360,307 373,333 18,37 3,79 43,114 25,22 76,40 115,13z"/>
    <path class="fil2" d="M27440 44002c-25,13 -20,26 -37,42 -34,35 -94,96 -129,120l0 22c5,14 32,37 47,43l101 -85c16,-14 32,-32 56,-37 67,-16 69,-41 88,-6 15,29 19,20 45,57 20,28 28,61 45,89l24 -1c14,-38 -68,-211 -93,-255 -24,-42 -40,-75 -93,-83 -30,-5 -31,-24 -41,-50 -6,-13 -31,-37 -44,-46 -21,5 -43,16 -52,29 -16,24 2,40 14,57 27,37 76,1 69,104z"/>
    <path class="fil2" d="M26105 43915c8,22 46,40 56,59 17,34 -16,61 -38,68 -13,-7 -23,-19 -35,-29 -18,-16 -17,-19 -51,-19 -4,80 45,131 127,122 29,-3 42,15 75,43 19,15 51,47 69,56 2,-38 3,-89 1,-127 -1,-25 -11,-26 -23,-39 -17,-18 -13,-22 -18,-50 -13,-72 -86,-110 -163,-84z"/>
    <path class="fil2" d="M26860 44512c7,11 67,69 106,51l130 -123c47,-56 89,-86 126,-127 -34,-23 -25,-31 -50,-56 -15,9 -22,18 -37,31 -13,10 -28,21 -41,31 -47,35 -205,156 -234,193z"/>
    <path class="fil2" d="M26631 44685c-1,30 20,39 37,60 9,9 44,42 56,46 17,0 23,-26 38,-42 12,-14 34,-30 43,-42 -6,-16 -62,-65 -78,-72 -38,38 -54,27 -96,50z"/>
    <path class="fil2" d="M32407 44530l0 745c0,20 24,13 72,13 20,0 13,-34 13,-72l0 -618c18,5 20,33 32,73 9,30 16,55 25,85 45,136 79,284 122,416 7,22 22,65 24,86l110 0c9,-19 18,-59 25,-81l165 -562c7,-19 1,-12 13,-17 3,5 4,4 4,12l0 678c54,0 85,8 85,-13l0 -745c0,-10 -3,-13 -13,-13 -138,0 -136,-12 -147,31l-62 205c-10,30 -17,54 -25,84l-72 246c-5,14 -20,70 -28,82 -19,-79 -115,-398 -142,-484 -10,-29 -15,-53 -25,-82 -9,-27 -17,-54 -24,-82 -26,0 -53,0 -80,0 -38,0 -72,-7 -72,13z"/>
    <path class="fil2" d="M29580 44136c0,20 24,13 72,13 17,0 13,-14 13,-29l0 -661c20,5 22,37 32,73l124 418c9,29 45,148 47,169l110 0c9,-19 18,-59 25,-81 50,-162 116,-380 160,-542 10,-36 5,-32 18,-37 3,5 4,4 4,13l0 677 85 0 0 -766 -152 0 -96 323c-16,55 -31,108 -48,160 -9,28 -15,52 -24,81l-27 79c-2,-23 -86,-292 -95,-324l-83 -285c-15,-47 2,-34 -165,-34l0 753z"/>
    <path class="fil2" d="M32449 43776l-177 0 0 -317c87,0 223,-16 269,39 35,40 41,122 28,178 -14,58 -50,100 -120,100zm-266 373c55,0 89,8 89,-13l0 -279 173 0c13,0 9,3 14,12l96 204c9,24 29,55 34,76 102,0 104,7 86,-27l-68 -140c-10,-20 -63,-131 -65,-146 33,-8 71,-38 88,-66 64,-107 66,-387 -168,-387l-279 0 0 766z"/>
    <path class="fil2" d="M29805 44598l29 0c2,18 9,34 13,50l39 156c17,68 38,139 54,209l-241 0c0,-19 18,-80 24,-103l82 -312zm-267 690c103,0 83,8 98,-42l42 -153 283 0 41 150c14,52 -4,45 86,45 23,0 4,-41 -8,-89l-152 -589c-4,-18 -8,-35 -13,-51 -16,-54 14,-42 -170,-42 -17,0 -26,56 -34,85 -8,32 -16,67 -24,98 -33,131 -89,359 -126,488 -8,24 -23,74 -23,100z"/>
    <path class="fil2" d="M30647 43459l25 0c1,15 9,35 13,51l40 155c18,72 36,138 53,209l-241 0 53 -209c11,-37 46,-187 57,-206zm-271 690l89 0 25 -97c9,-33 18,-65 25,-98l284 0 25 98c8,27 23,69 26,97l89 0c-1,-18 -7,-30 -11,-48l-135 -526c-8,-34 -16,-61 -24,-94l-25 -98 -174 0c-3,47 -193,726 -194,766z"/>
    <path class="fil2" d="M31747 45080c0,34 8,66 16,90 20,56 57,90 111,109 82,31 239,31 316,-47 36,-36 56,-103 56,-173l0 -542c-100,0 -90,-8 -89,38l0 386c0,173 13,273 -161,278 -22,1 -72,-8 -88,-16l-40 -28c-1,0 -6,-7 -6,-7 -38,-51 -26,-145 -26,-223l0 -385c1,-51 13,-43 -89,-43l0 563z"/>
    <path class="fil2" d="M31044 44149c56,0 89,8 89,-13l0 -326c131,0 87,-20 148,81l76 132c89,148 42,126 157,126 17,0 11,-9 6,-18l-28 -48c-6,-10 -8,-16 -13,-25l-168 -294c6,-27 106,-196 127,-237 13,-26 72,-127 76,-144l-97 0c-18,26 -29,57 -46,85l-70 129c-18,33 -51,104 -70,133l-98 4 0 -351 -89 0 0 766z"/>
    <path class="fil2" d="M31620 43395l0 741c0,10 3,13 13,13l419 0 0 -81 -343 0 0 -270 283 0c0,-53 8,-81 -12,-81l-271 0 0 -245c0,-10 3,-13 13,-13l330 0 0 -76 -419 0c-10,0 -13,3 -13,12z"/>
    <path class="fil2" d="M32983 43573c0,132 60,175 176,209 56,17 133,20 172,69 41,51 38,226 -95,226l-143 -4c-31,-1 -61,-9 -94,-9 -5,23 -3,49 -8,72 64,15 174,21 245,21 62,0 125,-25 154,-58 46,-52 54,-111 54,-187 0,-118 -68,-158 -157,-186 -76,-23 -211,-34 -211,-132l0 -34c0,-130 157,-112 249,-105 111,8 98,33 98,-64 -34,0 -115,-21 -216,-21 -135,0 -224,69 -224,203z"/>
    <path class="fil2" d="M30160 44720c0,25 6,59 13,77 6,17 21,44 33,56 106,105 326,52 326,206 0,46 -3,85 -30,118 -42,49 -139,46 -204,36l-121 -10c0,81 -34,75 80,85 132,11 278,37 346,-107 23,-50 27,-166 3,-216 -78,-161 -353,-66 -353,-253 0,-182 230,-110 347,-110l4 -68c-35,-17 -174,-25 -228,-25 -133,0 -216,75 -216,211z"/>
    <path class="fil2" d="M30884 44974l0 314c99,0 85,9 84,-51l0 -191c0,-54 -5,-73 14,-112 15,-30 28,-55 43,-85 29,-58 55,-111 84,-169 15,-30 28,-55 43,-85 46,-93 58,-78 -48,-78 -15,0 -42,67 -50,82 -15,31 -27,58 -42,89 -15,31 -29,58 -44,88 -7,15 -34,79 -46,88 -5,-19 -72,-145 -86,-176 -8,-16 -13,-29 -20,-44l-44 -87c-20,-48 -5,-40 -100,-40 -22,0 -6,19 10,50l145 290c11,22 57,96 57,117z"/>
    <path class="fil2" d="M31281 44530l0 758 377 0c20,0 13,-29 13,-81l-301 0 0 -677c0,-20 -26,-13 -76,-13 -10,0 -13,3 -13,13z"/>
    <path class="fil2" d="M33626 43323c49,0 38,11 38,-110 0,1 1,1 1,3l8 22c19,68 17,77 46,77 17,0 24,-49 35,-83 2,-5 4,-11 5,-16 1,-2 2,-5 3,-7l3 114 34 0 0 -190 -46 0 -29 89c-5,14 -5,20 -14,29l-28 -94c-9,-28 -1,-24 -56,-24l0 190z"/>
    <path class="fil2" d="M32805 43637c76,0 63,7 63,-60 0,-23 -1,-48 0,-72 1,-23 5,-38 5,-67 -1,-68 15,-60 -72,-60 -20,0 -14,40 -13,60l4 139c0,20 -8,60 13,60z"/>
    <path class="fil2" d="M33482 43158c0,17 13,13 46,13l0 140c0,19 43,19 43,0l0 -140c43,0 38,5 38,-38l-127 0 0 25z"/>
   </g>
   <path class="fil0 str3" d="M47126 14327c0,-208 27,-360 120,-492 241,-417 897,-379 897,435 0,777 14,6401 -40,6628 0,38 -27,95 -40,133l-40 94c-214,360 -549,360 -790,38 -121,-132 -121,-246 -121,-454l14 -6382zm-911 20186c0,114 14,208 27,322 0,38 0,114 13,152 27,113 0,37 54,94 67,57 763,38 844,19 67,-151 258,-1774 214,-2064 -27,-170 -76,-531 -103,-683 -84,-369 -98,-410 -114,-612 -9,-118 -11,-260 -11,-485l14 -5340c0,-360 -41,-2386 53,-2575 696,-19 911,151 1138,-284 161,-322 -67,-606 -13,-833 134,-474 187,-114 187,-1137l14 -7460c0,-550 40,-1137 -322,-1553 -388,-455 -629,-455 -1406,-455 -401,0 -549,-38 -857,95 -790,341 -790,1193 -790,1988 -13,1231 27,2500 -13,3712 -13,587 -94,4109 40,4582 27,114 121,228 67,379 -53,152 -94,114 -94,341 -13,852 884,625 1206,644 26,454 0,1003 0,1477 0,473 0,966 0,1458 -14,966 -14,1931 -14,2897l0 2556c-37,157 -99,345 -147,550 -268,1287 -54,1098 13,2215zm-790 -19940c0,-227 14,-416 54,-625 80,-284 522,-568 817,-189 147,170 147,246 147,530l-14 4128c0,455 67,2367 -80,2670 -120,284 -495,474 -790,133 -134,-152 -147,-265 -147,-511l13 -6136z"/>
  </g>
 </g>
</svg>
